<svg xmlns="http://www.w3.org/2000/svg" width="62.8" height="99.882" viewBox="0 0 62.8 99.882"><g transform="translate(58.317 502.197)"><g transform="translate(318 203)"><path d="M-322.766-675.055c1.624,15.522-6.858,32.85-6.858,32.85,4.873-55.412-30.142-62.992-30.142-62.992,5.956,6.678,9.206,21.479,3.249,33.21s-4.873,32.128-4.873,32.128c-5.6-2.707-3.181-18.771-3.181-18.771s-13.966,11.552-11.439,28.518c3.389,22.758,22.878,24.465,22.878,24.465l.346.244a13.52,13.52,0,0,1-5.9-11.172,13.537,13.537,0,0,1,13.537-13.537,13.537,13.537,0,0,1,13.537,13.537,13.506,13.506,0,0,1-5.571,10.928h.021C-294.338-619.448-322.766-675.055-322.766-675.055Z" transform="translate(0)" fill="#ec663b"/><path d="M-272.121-264.982h0l-.024-.015Z" transform="translate(-80.541 -340.333)" fill="#ec663b"/></g></g></svg>