<svg xmlns="http://www.w3.org/2000/svg" width="66.134" height="66.128" viewBox="0 0 66.134 66.128"><path d="M1040.533,75.91c1.894.315,3.1-.652,4.2-1.873.722-.8,1.513-1.532,2.282-2.3,5.3,10.172,5.076,26.974-7.464,38.5a33.034,33.034,0,1,1-8.156-54.166c-.809.8-1.567,1.625-2.4,2.366a4.412,4.412,0,0,0-1.822,4.127,25.184,25.184,0,0,0-20.008.094,24.889,24.889,0,0,0-12.062,10.927,25.318,25.318,0,0,0,33.4,34.954,24.865,24.865,0,0,0,12.455-13.893A25.143,25.143,0,0,0,1040.533,75.91Z" transform="translate(-984.161 -52.812)" fill="#ec663b"/><path d="M1093.473,138.546c-.145.155-.278.308-.422.451-1.7,1.7-3.412,3.4-5.1,5.116a1.078,1.078,0,0,1-1.019.389,9.9,9.9,0,0,0-10.953,7.931,9.886,9.886,0,1,0,19.417,3.727,14.989,14.989,0,0,0,.105-2.933,1.43,1.43,0,0,1,.405-1.216c1.856-1.8,3.673-3.648,5.513-5.486,3.14,5.533,2.833,14.924-4.137,21.062a17.629,17.629,0,0,1-25.274-24.391A17.387,17.387,0,0,1,1093.473,138.546Z" transform="translate(-1052.633 -121.23)" fill="#ec663b"/><path d="M1170.708,59c1.07-1.211,2.171-2.121,3.7-1.83a4.3,4.3,0,0,1,2.031,1.012,3.314,3.314,0,0,1,.938,1.84,4.125,4.125,0,0,1-.351,2.11,9.161,9.161,0,0,1-1.312,1.738c1.615,0,3.186,0,4.757,0,.744,0,1.245.373,1.223,1a1.569,1.569,0,0,1-.389.968q-3.741,3.8-7.544,7.541a1.643,1.643,0,0,1-1.04.387q-3.165.053-6.331,0a1.579,1.579,0,0,0-1.248.533q-6.894,6.927-13.811,13.831a3.457,3.457,0,0,1-3.421,1.111,3.419,3.419,0,0,1-1.7-5.738c1.184-1.248,2.425-2.441,3.642-3.658q5.255-5.257,10.518-10.505a1.365,1.365,0,0,0,.439-1.08c-.02-2.111-.038-4.222.015-6.332a2.03,2.03,0,0,1,.521-1.255c2.4-2.463,4.853-4.88,7.279-7.321a1.219,1.219,0,0,1,1.408-.423,1.187,1.187,0,0,1,.685,1.295C1170.7,55.754,1170.708,57.281,1170.708,59Z" transform="translate(-1115.609 -52.838)" fill="#ec663b"/></svg>