<svg xmlns="http://www.w3.org/2000/svg" width="181.713" height="69.032" viewBox="0 0 181.713 69.032"><g transform="translate(-44.479 -332.657)"><path d="M69.934,385.415a5.226,5.226,0,0,1-2.809,3.084,5.165,5.165,0,0,1-4.172.224,5.368,5.368,0,0,1-3.08-2.856,5.155,5.155,0,0,1-.228-4.168,5.4,5.4,0,0,1,2.856-3.084,5.059,5.059,0,0,1,4.125-.224,5.4,5.4,0,0,1,3.037,2.852A5.3,5.3,0,0,1,69.934,385.415Z" transform="translate(-8.452 -25.871)" fill="#fff"/><path d="M100.029,383.052a5.423,5.423,0,0,1-2.856,3.037,5.085,5.085,0,0,1-4.082.271,5.2,5.2,0,0,1-3.08-2.813,5.138,5.138,0,0,1-.228-4.168,5.4,5.4,0,0,1,2.856-3.084,5.059,5.059,0,0,1,4.125-.224,5.409,5.409,0,0,1,3.037,2.856A5.076,5.076,0,0,1,100.029,383.052Z" transform="translate(-25.627 -24.549)" fill="#fff"/><path d="M218.766,438.648a13.11,13.11,0,0,0-.387,4.869,11.164,11.164,0,0,0,.211,1.166A17.865,17.865,0,0,1,218.766,438.648Z" transform="translate(-99.062 -60.404)" fill="#fff"/><path d="M400.2,364.145A5.323,5.323,0,0,1,398.653,368a5.1,5.1,0,0,1-3.806,1.587,5.439,5.439,0,1,1,0-10.877,5.1,5.1,0,0,1,3.806,1.587A5.32,5.32,0,0,1,400.2,364.145Z" transform="translate(-196.576 -14.846)" fill="#fff"/><path d="M420.937,390.7a5.145,5.145,0,0,1-1.587,3.763,5.478,5.478,0,0,1-7.7,0,5.145,5.145,0,0,1-1.587-3.763,5.439,5.439,0,1,1,10.877,0Z" transform="translate(-208.344 -29.977)" fill="#fff"/><path d="M391.642,395.879a5.441,5.441,0,1,1-10.882,0,5.145,5.145,0,0,1,1.587-3.763,5.472,5.472,0,0,1,7.707,0A5.162,5.162,0,0,1,391.642,395.879Z" transform="translate(-191.646 -32.981)" fill="#fff"/><path d="M155.011,396.036a7.874,7.874,0,0,0,2.537,2.556q4.49,3.013,13.527,3.011,11.877,0,15.866-5.075,4.71,2.632,8.245,2.495a17.591,17.591,0,0,0,8.159-2.946q7.89,4.806,15.411,1.088a13.791,13.791,0,0,0,5.393-4.9,12.948,12.948,0,0,0,2.043-7.161,13.64,13.64,0,0,0-.366-3.441,24.491,24.491,0,0,0-2.718-5.987q-.91-1.445-2.086-3.626c-.542.366-1.419.938-2.628,1.725s-2.086,1.389-2.628,1.811l-5.26,3.535a16.876,16.876,0,0,0,1.273,2.357q.632,1,1.72,3.174,1.994,4.168,1.359,5.531a3.437,3.437,0,0,1-2.9,2.039,4.05,4.05,0,0,1-3.355-1.406,11.554,11.554,0,0,0,1.359-5.165q-.09-3.987-3.264-9.067-.9-1.445-2.538-4.533c-.542.366-1.419.938-2.628,1.725s-2.086,1.389-2.628,1.811l-5.26,3.535a38.421,38.421,0,0,0,2.086,3.535,40.746,40.746,0,0,1,2.086,3.535q1.723,3.264-1.178,5.26a3.929,3.929,0,0,1-2.675.723,3.387,3.387,0,0,1-2.585-1.359,14.241,14.241,0,0,0,1.454-5.165,17.725,17.725,0,0,0-2.813-9.067q-.813-1.445-2.447-4.533l-5.256,3.535q-.819.639-2.632,1.815c-1.209.787-2.082,1.359-2.628,1.72l2.813,5.712q2.9,5.9-1,8.069-2.271,1.271-7.8,1.269a26.176,26.176,0,0,1-5.256-.361,6.494,6.494,0,0,1-1.755-.477c10.529-12.83.675-34.2.675-34.2.378,3.781-.757,11.346-5.673,13.049s-5.23-2.981-4.727-4.538c1.686-5.2,6.241-9.458,1.7-21.182-5.441-14.056-23.828-13.806-23.828-13.806,18.912,16.262-1.7,31.582-4.353,34.232-1.824,1.824-6.791,4.9-8.159,11.355a17.866,17.866,0,0,0-.176,6.034.033.033,0,0,0,0,.017q1.471,6.258,9.935,9.239a45.817,45.817,0,0,1-6.292.615c-.439.017-.882.022-1.32.022a26.881,26.881,0,0,1-5.35-.361q-3.174-.632-3.17-2.813v-2.447q1.445-6.884-2-15.045a68.466,68.466,0,0,1-4.262-13.6,14.061,14.061,0,0,1,0-6.344q.729-4.168,2.9-4.714.723-.181.723-.271t-.813-.181a8.979,8.979,0,0,0-3.535.632,16.407,16.407,0,0,0-5.892,4.985,15.357,15.357,0,0,0-2.994,7.8,24.06,24.06,0,0,0,1.088,8.791,52.468,52.468,0,0,0,3.626,8.8q.181.361,2,4.529,1.9,5.084.727,7.256-1.548,2.987-8.249,2.989t-9.428-6.71A27.575,27.575,0,0,1,85.778,373.5q1.084-7.89,3.806-11.785-4.987.181-7.57,1.811a8.9,8.9,0,0,0-3.673,4.8q-10.426-.181-14.322.09-8.155.639-12.873,3.264a12.538,12.538,0,0,0-6.525,9.7q-.91,5.806,3.987,11.6a24.451,24.451,0,0,0,11.6,7.613q7.252,2.452,13.144-.632,6.439-3.355,6.254-8.791a7.547,7.547,0,0,0-4.895-7.161,12.3,12.3,0,0,0-8.7-.637A7.189,7.189,0,0,0,62.66,385.2a3.978,3.978,0,0,0-1.269,2.9,4.024,4.024,0,0,0,3.987,3.987,3.969,3.969,0,0,0,3.535-1.991,3.762,3.762,0,0,0,0-3.9q3.264,0,4.671,1.815a3.886,3.886,0,0,1,.5,4.077A6.577,6.577,0,0,1,70.23,395.8a12.519,12.519,0,0,1-7.3.456q-4.89-1-7.294-3.673a7.076,7.076,0,0,1-1.948-5.935,9.214,9.214,0,0,1,3.578-5.849,15.352,15.352,0,0,1,8.387-3.127,46.264,46.264,0,0,1,11.965.546q1.632,10.787,4.8,15.862,4.8,7.522,14.232,7.522,6.793,0,11.058-3.355,4.348,3.361,14.142,3.355A54.546,54.546,0,0,0,132,400.429c1.006-.194,2.052-.417,3.135-.662A11.157,11.157,0,1,1,152.7,386.347a11.34,11.34,0,0,1,1.337,4.131,31.334,31.334,0,0,0,.512,4.454A4.961,4.961,0,0,0,155.011,396.036Z" transform="translate(0 0)" fill="#fff"/></g></svg>