<svg xmlns="http://www.w3.org/2000/svg" xmlns:xlink="http://www.w3.org/1999/xlink" width="1334" height="709" viewBox="0 0 1334 709"><defs><clipPath id="a"><rect width="1334" height="709" transform="translate(293 2406)" fill="none"/></clipPath></defs><g transform="translate(-293 -2406)" clip-path="url(#a)"><g transform="translate(1193 2406)"><text transform="translate(52 272)" fill="#fff" font-size="24" font-family="'\32 9LTBukra-Medium', '\32 9LT Bukra'" font-weight="500"><tspan x="32.228" y="24">نـقـوم بدراسـة الـسـوق</tspan><tspan y="24"> </tspan><tspan x="32.156" y="59">ونقاط الـقـوَّة والـضـعـف</tspan><tspan y="59"> </tspan><tspan x="92.564" y="94">لـمـشـروعك</tspan><tspan y="94">،</tspan><tspan x="38.708" y="129">والحصول على التغذية</tspan><tspan y="129"> </tspan><tspan x="46.172" y="164">الراجعة مــن الـعـمـلاء</tspan><tspan y="164"> </tspan><tspan x="74.432" y="199">الـمـسـتـهـدفين</tspan><tspan y="199"> </tspan><tspan x="48.332" y="234">بـالاسـتـعـانـة بـأحـدث</tspan><tspan y="234"> </tspan><tspan x="45.08" y="269">الـوسـائـل والـتـقـنيات</tspan><tspan y="269"> </tspan><tspan x="34.628" y="304">الـمتاحة المتوافقة مع</tspan><tspan y="304"> </tspan><tspan x="99.2" y="339">تطلعاتكم</tspan><tspan y="339">.</tspan></text><rect width="434" height="709" rx="71" fill="none"/><line x2="117" transform="translate(157.5 235.217)" fill="none" stroke="#ec663b" stroke-linecap="round" stroke-width="5"/><g transform="translate(-674.186 -373.058)"><path d="M974.8,469.462a7,7,0,0,1-4.642,4.095c-3.775,1.366-7.492,2.9-11.206,4.427-2.151.885-4.145.937-6.077-.546a1.4,1.4,0,0,0-1.267-.082c-2.945,1.827-5.848,3.722-8.744,5.585,2.947,7.442-2.79,15.313-11.669,13.974a10.284,10.284,0,0,1-3.863,7,9.979,9.979,0,0,1-7.747,1.958c-2.826,8.5-5.386,10.252-13.584,9.307-.938,4.5-3.566,7.482-8.151,8.448-4.658.982-7.979-1.741-11.392-4.474-.693.778-1.355,1.5-1.988,2.24a8.82,8.82,0,0,1-9.181,3.176,8.71,8.71,0,0,1-6.866-7.039c-.1-.427-.555-1.08-.878-1.1-5.408-.338-8.427-3.293-9.418-8.461-6.09-.557-9.072-3.126-9.944-8.514-8.8-1.272-11.658-5.778-8.758-14.159-2.407-1.532-4.861-3.1-7.317-4.658-.838-.533-1.712-1.013-2.512-1.6-1.371-1-2.616-1.633-4.445-.72a4.994,4.994,0,0,1-3.473-.2c-4.393-1.6-8.736-3.345-13.073-5.1a5.1,5.1,0,0,1-2.986-6.91q8.37-21.277,16.807-42.527c1.241-3.126,3.968-4.267,7.128-3.042,4.206,1.629,8.4,3.3,12.6,4.949a5.447,5.447,0,0,1,3.793,5.438,1.607,1.607,0,0,0,.792,1.147,22.3,22.3,0,0,0,9.826,2.366c6.921.1,13.912-.032,20.642,2.157a2.288,2.288,0,0,0,1.572-.44,6.977,6.977,0,0,0,1.312-1.254,13.337,13.337,0,0,1,13.075-4.115c2.485.484,5,.835,7.494,1.243,1.807.294,2.727,1.286,2.594,2.8-.132,1.5-1.28,2.381-3.1,2.156q-3.932-.486-7.834-1.2a8.862,8.862,0,0,0-8.581,2.579A140.387,140.387,0,0,1,861.4,457c-1.675,1.112-1.678,1.928-.108,3.19,2.792,2.245,5.921,2.442,9.221,1.467,4.5-1.329,8.142-4.087,11.632-7.075,3.251-2.784,5.972-2.711,9,.247,7.163,7,15.634,10.012,25.648,8.531a4.419,4.419,0,0,1,2.826.978c6.653,4.825,13.248,9.729,19.97,14.69,3.32-2.129,6.671-4.235,9.948-6.451.291-.2.292-1.181.1-1.672-2.582-6.671-5.225-13.318-7.848-19.973-1.873-4.752-3.74-9.507-5.681-14.446-1.6.572-3.125,1-4.551,1.656A24.386,24.386,0,0,1,915.4,439.5c-1.07-.248-2.175-.341-3.258-.536a2.5,2.5,0,0,1-2.292-2.886,2.319,2.319,0,0,1,2.844-2.067c1.97.2,3.936.495,5.88.873a15.678,15.678,0,0,0,9.242-.764c1.015-.422,2.076-.732,3.1-1.128,1.7-.657,3.657-.831,3.446-3.633-.127-1.687,1.358-2.95,3-3.606,4.5-1.8,8.993-3.6,13.519-5.322a4.977,4.977,0,0,1,6.574,2.8c2.222,5.452,4.349,10.944,6.48,16.433a2.513,2.513,0,0,1-1.292,3.452c-1.381.582-2.74-.049-3.405-1.706-1.907-4.749-3.766-9.517-5.649-14.275-.26-.657-.542-1.306-.849-2.044l-13.592,5.369,17.026,43.16,13.616-5.369c-1.382-3.529-2.721-6.948-4.061-10.367-.622-1.587-1.266-3.168-1.872-4.762-.733-1.929-.277-3.312,1.24-3.861,1.489-.539,2.678.123,3.415,1.97,1.976,4.957,3.931,9.923,5.9,14.883a6.114,6.114,0,0,0,.385.7ZM842.816,481.475c1.325-1.548,2.541-3.047,3.84-4.47a9.077,9.077,0,0,1,15.547,3.89c.135.517.3,1.026.449,1.52a10.053,10.053,0,0,1,6.679,2.264,9.639,9.639,0,0,1,3.229,6.239c5.126-.026,8.949,2.6,10.061,8.418,8.287-.319,13.4,9.036,6.986,16.256a44.255,44.255,0,0,0,5.674,3.03c1.931.71,4.24-.675,5.172-2.626a4.244,4.244,0,0,0-1.327-5.548c-1.219-.948-2.443-1.891-3.653-2.852-1.589-1.262-1.94-2.716-.975-3.95,1-1.281,2.37-1.293,4.063-.017,2.6,1.96,5.142,4,7.8,5.876a4.9,4.9,0,0,0,7.044-1.012c1.562-2.21,1.009-4.981-1.353-6.793-2.057-1.577-4.13-3.136-6.163-4.745a2.473,2.473,0,0,1-.688-3.62c.877-1.218,2.371-1.362,3.791-.346.583.418,1.135.877,1.707,1.311,2.549,1.933,5.041,3.948,7.667,5.769a4.842,4.842,0,0,0,6.87-1.2c1.542-2.291,1.047-4.812-1.316-6.639-2.4-1.857-4.815-3.695-7.205-5.563-.938-.733-1.6-1.769-.982-2.866a3.634,3.634,0,0,1,2.171-1.648,3.576,3.576,0,0,1,2.336.9c3.37,2.493,6.677,5.071,10.012,7.613a4.982,4.982,0,0,0,4.459,1.19,4.6,4.6,0,0,0,3.662-3.63,5.062,5.062,0,0,0-2.115-5.371c-5.543-4.1-11.125-8.15-16.619-12.314a8.327,8.327,0,0,0-5.97-1.874c-10,.555-18.571-3.017-25.722-9.96-1.086-1.054-1.734-1.056-2.829-.075a36.327,36.327,0,0,1-11.521,7.315c-5.2,1.93-10.248,1.961-14.949-1.412-4.851-3.481-4.715-8.506.147-11.909,3.836-2.686,7.525-5.584,11.239-8.441,1.233-.948,2.341-2.059,3.8-3.356a96.43,96.43,0,0,0-17.669-1.371,21.936,21.936,0,0,1-9.006-1.66c-1.027-.467-2.1-.836-3.243-1.288l-14.4,36.5Zm-18.974-7.864c5.7-14.438,11.332-28.725,17.029-43.166l-13.636-5.37-17.022,43.162Zm39.484,13.777a7.338,7.338,0,0,0-2.452,1.143c-2.412,2.634-4.772,5.33-6.963,8.149a3.759,3.759,0,0,0,.793,5.182,3.837,3.837,0,0,0,5.258-.157c2.354-2.539,4.59-5.194,6.765-7.89a3.549,3.549,0,0,0,.211-4.188A4.353,4.353,0,0,0,863.325,487.388Zm-16.033,7.143a7.445,7.445,0,0,0,2.45-1.163c2.451-2.675,4.854-5.406,7.082-8.267a3.964,3.964,0,0,0-5.9-5.13,82.546,82.546,0,0,0-7.136,8.43C842.065,490.821,844.206,494.252,847.292,494.532Zm20.086,16.983a9.1,9.1,0,0,0,2.661-1.39q3.476-3.748,6.663-7.76a3.838,3.838,0,0,0-.639-5.343,3.788,3.788,0,0,0-5.365.167c-2.312,2.5-4.513,5.116-6.657,7.767a3.6,3.6,0,0,0-.274,4.189A4.53,4.53,0,0,0,867.378,511.514Zm20.278-2.791a4.394,4.394,0,0,0-2.647-3.87,3.776,3.776,0,0,0-4.5,1.007c-2.02,2.251-3.97,4.565-5.911,6.886-1.718,2.056-1.667,4.52.061,6.032,1.853,1.622,4.2,1.342,6.079-.8,1.92-2.193,3.828-4.4,5.644-6.679A13.2,13.2,0,0,0,887.656,508.724Z" transform="translate(0)" fill="#ec663b"/></g><text transform="translate(216 208)" fill="#fff" font-size="35" font-family="'\32 9LTBukra-Medium', '\32 9LT Bukra'" font-weight="500"><tspan x="-201.582" y="0">بناء الخطط الاستراتيجية</tspan></text><text transform="translate(216 596)" fill="#ec663b" font-size="30" font-family="Speda" text-decoration="underline"><tspan x="-104.861" y="0">مزيد من التفاصيل</tspan></text></g><g transform="translate(743 2406)"><text transform="translate(55 272)" fill="#fff" font-size="24" font-family="'\32 9LTBukra-Medium', '\32 9LT Bukra'" font-weight="500"><tspan x="53.852" y="24">قوَّة التطبيقات تبدأ</tspan><tspan y="24"> </tspan><tspan x="106.352" y="59">بالتصميم</tspan><tspan y="59"></tspan><tspan x="0.428" y="94">السـلـس الـ</tspan><tspan y="94" xml:space="preserve"> UX/UI </tspan><tspan y="94">للـتـطبيق</tspan><tspan y="94"></tspan><tspan x="75.908" y="129">يُـنـاسـب جـمـيـع</tspan><tspan y="129"> </tspan><tspan x="83" y="164">المستخدمين</tspan><tspan y="164">.</tspan><tspan x="17.768" y="199">نـسـتـطـيع تـحويل أفكارك</tspan><tspan y="199"> </tspan><tspan x="141.548" y="234">إلى</tspan><tspan y="234"></tspan><tspan x="2.852" y="269">واقـع وتـرتـيـبـهـا وتــخــطــيــط</tspan><tspan y="269"></tspan><tspan x="58.076" y="304">الـهـيـكـل الرئيسي</tspan><tspan y="304"> </tspan><tspan x="0.068" y="339">لمشروعك ومن ثم بــرمــجـتـه</tspan><tspan y="339"> </tspan></text><rect width="434" height="709" rx="71" fill="none"/><line x2="117" transform="translate(158.5 235.217)" fill="none" stroke="#ec663b" stroke-linecap="round" stroke-width="5"/><text transform="translate(202 666)" fill="#ec663b" font-size="30" font-family="Speda" text-decoration="underline"><tspan x="-104.861" y="0">مزيد من التفاصيل</tspan></text><text transform="translate(217 208)" fill="#fff" font-size="35" font-family="'\32 9LTBukra-Medium', '\32 9LT Bukra'" font-weight="500"><tspan x="-195.142" y="0">بناء واجهات المستخدم</tspan></text><g transform="translate(45.358 -971.729)"><path d="M198.689,1000.529c1.28.519,2.577,1,3.832,1.577a10.411,10.411,0,0,1,1.563,1.121l-2.874,3.291c-1.889-1.573-4.054-1.677-6.281-1.673q-22.458.033-44.916.014c-3.7,0-6.214,1.747-7,5a22.269,22.269,0,0,0-.27,3.616h34.577v4.387h-34.43v11.476c1.118-.154,2.221-.326,3.329-.451.74-.083.828-.533.819-1.151-.024-1.81-.008-3.622-.008-5.517h4.38v6.38c15,2.419,23.629,11.036,26.068,26h6.358v4.429h-6.348c-2.369,14.964-10.942,23.616-25.98,26.048v6.377h-4.479q0-2.381,0-4.767c0-1.737-.012-1.673-1.7-1.953-10.114-1.679-17.511-7.078-21.735-16.443-1.175-2.606-1.617-5.554-2.276-8.373-.172-.74-.463-.861-1.082-.855-1.816.017-3.632.006-5.57.006v-4.431h6.142c.849-2.982,1.416-5.849,2.475-8.52a27.066,27.066,0,0,1,14.06-14.782,1.5,1.5,0,0,0,1.022-1.6c-.036-5.836-.024-11.671-.017-17.506.005-3.941,1.263-7.358,4.625-9.616a28.262,28.262,0,0,1,4.7-2.073Zm-56.6,60.2c-4.708-5.894-4.9-11.343-.613-15.834a10.867,10.867,0,0,1,14.111-1.255,10.656,10.656,0,0,1,4.23,6.41c.928,4.188-.473,7.692-3.465,10.684,5.489,3.237,8.08,7.995,8.126,14.391a24,24,0,0,0,8.41-16.052h-4.06v-4.5h3.963c-.692-11.743-11.442-21.047-21.366-21.2v3.9h-4.41v-3.929c-10.444.386-20.646,9.853-21.33,21.3h4.123c0,1.316.055,2.495-.04,3.663a1.163,1.163,0,0,1-.847.719c-1.079.089-2.17.034-3.337.034a23.991,23.991,0,0,0,8.3,15.942C135.04,1066.925,136.318,1064.717,142.088,1060.726Zm9.4,19.918c1.854-.439,3.594-.739,5.261-1.267,3.407-1.079,3.4-1.13,3.322-4.688-.088-4.11-1.588-7.541-5.2-9.683a10.715,10.715,0,0,0-16.38,9.1c-.138,4.287-.1,4.388,4.036,5.549,1.425.4,2.905.61,4.536.943v-4.2h4.429Zm-2.3-21.719a6.442,6.442,0,0,0,6.519-6.367,6.532,6.532,0,0,0-6.4-6.523,6.458,6.458,0,0,0-6.483,6.408A6.365,6.365,0,0,0,149.188,1058.925Z" transform="translate(-0.785)" fill="#ec663b"/><path d="M244.728,1058.22c-2.457,2.992-4.837,6.051-7.386,8.963q-11.82,13.5-23.754,26.911a5.1,5.1,0,0,0-1.278,2.639,15.159,15.159,0,0,1-15.437,12.961c-4.652.021-9.3.008-13.956,0-1.593,0-2.54-.535-2.826-1.636-.349-1.343.4-2.152,1.455-2.788a5.747,5.747,0,0,0,2.775-5.344c-.013-2.955-.156-5.929,1.029-8.736a15.054,15.054,0,0,1,12.5-9.625,2.48,2.48,0,0,0,1.239-.486c3.853-3.363,7.68-6.758,11.351-10v-22.03h4.289v18.218c1.5-1.307,2.785-2.424,4.065-3.55,4.7-4.136,9.491-8.165,14.052-12.445,4.172-3.916,10.008-2.327,11.68,2.014.021.055.131.075.2.112Zm-34.376,32.925q8.571-9.706,17.126-19.393c4.027-4.563,8.078-9.1,12.04-13.723a3.812,3.812,0,0,0,.962-2.565c-.265-2.225-2.638-2.7-4.548-1.016q-13.789,12.159-27.577,24.319c-1.858,1.639-3.708,3.289-5.489,4.869Zm-22.77,13.935a2.151,2.151,0,0,0,.464.139c3.38-.008,6.762.055,10.139-.054a10.539,10.539,0,0,0,9.746-9.052,1.813,1.813,0,0,0-.4-1.307c-2.775-2.841-5.591-5.642-8.419-8.431a1.385,1.385,0,0,0-.956-.4,10.811,10.811,0,0,0-9.335,9.531C188.481,1098.7,189.31,1102.045,187.582,1105.081Z" transform="translate(-7.734 -5.16)" fill="#ec663b"/><path d="M215.78,1010.192q11.484,0,22.969,0c2.244,0,2.943.705,2.944,2.954q0,12.244,0,24.487c0,2.2-.757,2.961-2.971,2.961q-23.033.007-46.065,0c-2.18,0-2.979-.812-2.981-2.989q-.005-12.181,0-24.361c0-2.326.718-3.054,3.01-3.054Q204.231,1010.189,215.78,1010.192Zm-21.617,4.424v21.415h43.122v-21.415Z" transform="translate(-8.762 -1.028)" fill="#ec663b"/><path d="M137.547,1097.479h4.43v10.814h1.471q6.532,0,13.065,0c2.061,0,2.8.748,2.8,2.839q.008,7.8,0,15.6c0,2.615-.651,3.257-3.32,3.259q-9.45.005-18.9,0-13.191,0-26.385,0c-2.842,0-3.417-.577-3.417-3.4q0-7.737,0-15.473c0-2.088.734-2.821,2.809-2.821q12.939-.005,25.878,0h1.565Zm-25.816,15.206v12.783h43.148v-12.783Z" transform="translate(0 -10.312)" fill="#ec663b"/><path d="M142.967,1136.805l3.592-2.1c.475.524.894,1.049,1.376,1.507a6.819,6.819,0,0,0,4.886,1.74q23.281.025,46.562.01c4.354,0,7.134-3.114,6.968-7-.083-1.932-.014-3.87-.014-5.929H167.5v-4.388h38.832v-5.024c0-4.19,0-4.19,4.4-3.59.021.414.063.858.063,1.3,0,5.75-.038,11.5.013,17.252.066,7.5-5.544,11.81-11.764,11.75-15.562-.15-31.125-.044-46.689-.054a10.605,10.605,0,0,1-9.12-4.82,2.11,2.11,0,0,1-.192-.323A1.928,1.928,0,0,1,142.967,1136.805Z" transform="translate(-3.795 -11.83)" fill="#ec663b"/><path d="M120.374,1010.192c3.383,0,6.767-.006,10.149,0,1.963.005,2.82.792,2.831,2.74q.044,8.118,0,16.237c-.01,1.869-.865,2.749-2.715,2.757q-10.34.044-20.68,0c-1.88-.008-2.66-.877-2.663-2.767q-.012-8.118,0-16.236c0-1.959.794-2.725,2.8-2.729C113.523,1010.186,116.948,1010.192,120.374,1010.192Zm8.464,4.438h-17.1v12.782h17.1Z" transform="translate(0 -1.028)" fill="#ec663b"/><path d="M181.931,1131.505v4.179h-4.288v-4.179Z" transform="translate(-7.483 -13.931)" fill="#ec663b"/><path d="M234.05,1029.627v4.281h-34.7c0-1.129-.005-2.177,0-3.224,0-.328.045-.656.074-1.057Z" transform="translate(-9.792 -3.095)" fill="#ec663b"/><path d="M213.944,1024.192v-4.21h21.6v4.21Z" transform="translate(-11.344 -2.069)" fill="#ec663b"/><path d="M208.075,1019.99v4.189H199.4v-4.189Z" transform="translate(-9.798 -2.07)" fill="#ec663b"/><path d="M153.454,1119.34v4.2H134.078v-4.2Z" transform="translate(-2.849 -12.637)" fill="#ec663b"/><path d="M127.8,1119.333v4.168H117.056v-4.168Z" transform="translate(-1.039 -12.636)" fill="#ec663b"/><path d="M117.008,1019.932h8.626v4.272h-8.626Z" transform="translate(-1.034 -2.064)" fill="#ec663b"/></g></g><g transform="translate(293 2406)"><text transform="translate(54 272)" fill="#fff" font-size="24" font-family="'\32 9LTBukra-Medium', '\32 9LT Bukra'" font-weight="500"><tspan x="13.592" y="24">نعمل كفـريق على تمييزك</tspan><tspan y="24"> </tspan><tspan x="146.768" y="59">عن</tspan><tspan y="59"></tspan><tspan x="45.656" y="94">الـمـنـافـسـين بـابتكار</tspan><tspan y="94"> </tspan><tspan x="112.208" y="129">وتصميم</tspan><tspan y="129"></tspan><tspan x="33.764" y="164">هـويَّـة تـجـاريـة بـمـعايير</tspan><tspan y="164"> </tspan><tspan x="0.836" y="199">عالمية وتطبيقها على جميع</tspan><tspan y="199"> </tspan><tspan x="55.508" y="234">منتجاتك وخدماتك</tspan><tspan y="234">.</tspan></text><rect width="434" height="709" rx="71" fill="none"/><line x2="117" transform="translate(158.5 235.217)" fill="none" stroke="#ec663b" stroke-linecap="round" stroke-width="5"/><g transform="translate(-661.425 -757.139)"><path d="M811.425,870.378a14.325,14.325,0,0,1,3.077-5.946c.184-.192.139-.725.039-1.05a11.622,11.622,0,0,1,.287-7.927q4.5-11.332,9.018-22.653c1.887-4.7,5.429-7.175,10.443-7.671a2.241,2.241,0,0,0,1.416-.848c2.1-2.94,4.137-5.931,6.2-8.9,3.724-5.372,9.084-6.912,15.084-4.4a1.668,1.668,0,0,0,1.41-.323c2.173-1.885,4.285-3.841,6.417-5.774,5.867-5.32,12.665-4.937,17.9.968,3.442,3.883,6.924,7.73,10.409,11.574.776.857,1.185,1.743.519,2.815a1.936,1.936,0,0,1-3.225.147c-1.134-1.2-2.216-2.441-3.393-3.745l-9.4,8.5c2.341,1.623,4.575,3.174,6.811,4.722,2.219,1.537,4.44,3.071,6.733,4.656l6.575-5.942c-.5-.574-.964-1.087-1.411-1.611a2.083,2.083,0,0,1-.061-3.024,2.022,2.022,0,0,1,3,.338q4.574,5.034,9.109,10.1c10,11.116,19.972,22.264,30.026,33.334a25.057,25.057,0,0,1,7.014,17.865c-.177,10.823-8.835,20.991-19.558,22.707a34.875,34.875,0,0,1-5.463.421q-48.141.037-96.283.017c-6.743,0-10.586-2.884-12.522-9.372-.022-.073-.112-.126-.17-.188Zm47.867-5.477v4.613c0,5.713.009,11.426-.006,17.139,0,1.693-1.114,2.681-2.547,2.286-1.253-.346-1.447-1.344-1.446-2.468q.015-10.009,0-20.018v-1.518H837.16v39.69h18.062c.028-.434.072-.815.074-1.2.01-2.66-.02-5.321.029-7.98a1.961,1.961,0,0,1,1.966-2.015,2.048,2.048,0,0,1,1.992,2.027c.035.477.01.959.01,1.439v7.712h18.055V864.9Zm44.41,39.739h19.74a1.141,1.141,0,0,0,.129-.015,19.987,19.987,0,0,0,17.4-24.123c-1.688-8.342-9.513-15.343-17.748-15.593-6.269-.19-12.547-.063-18.822-.071a5.423,5.423,0,0,0-.7.1ZM864.28,860.758c6.432,0,12.622.007,18.812-.021a1.148,1.148,0,0,0,.89-.491c1.408-3.4,2.766-6.82,4.172-10.328l-16.887-6.73c-.737,1.834-1.415,3.566-2.126,5.284-.585,1.413-1.585,1.934-2.737,1.475-1.121-.447-1.5-1.574-.968-2.955.673-1.737,1.375-3.463,2.1-5.292l-16.881-6.733-10.224,25.626a2.053,2.053,0,0,0,.466.147c6.105.01,12.211.025,18.317-.014a1.4,1.4,0,0,0,.99-.726c.632-1.381,1.153-2.813,1.727-4.222.639-1.564,1.579-2.147,2.734-1.711,1.26.477,1.6,1.552.993,3.135C865.225,858.331,864.785,859.458,864.28,860.758Zm17.273,43.815h17.983V864.922H881.553Zm-48.5.09v-39.7a2.043,2.043,0,0,0-.431-.116c-3.269-.007-6.538-.047-9.807,0a7.364,7.364,0,0,0-7.427,7.38q-.112,12.552,0,25.106a7.318,7.318,0,0,0,6.693,7.3C825.7,904.779,829.315,904.663,833.056,904.663Zm13.837-71.052a3.113,3.113,0,0,0-.506-.351c-3.149-1.245-6.263-2.6-9.464-3.69a7.164,7.164,0,0,0-9.013,4.01c-3.262,7.909-6.383,15.876-9.521,23.835a5.316,5.316,0,0,0-.193,4c2.169-.23,4.18-.571,6.2-.63,3.482-.1,6.97-.063,10.453-.005a1.523,1.523,0,0,0,1.7-1.168c2.157-5.542,4.374-11.061,6.576-16.586Q845,838.324,846.892,833.61Zm-7.575-7.479c5.274,2.108,10.388,4.16,15.519,6.171a1.048,1.048,0,0,0,.935-.318c2.674-3.8,5.31-7.634,8.01-11.538-2.443-1.7-4.831-3.359-7.227-5.012a11.907,11.907,0,0,0-1.335-.815,7.37,7.37,0,0,0-9.362,2.131C843.633,819.757,841.571,822.884,839.317,826.132Zm45.053-12.5c-2.1-2.278-4-4.546-6.121-6.6a7.018,7.018,0,0,0-8.917-.63c-2.89,2.21-5.512,4.773-8.326,7.249l13.233,9.144Zm-25.155,20.439c5.409,2.153,10.642,4.243,15.886,6.3a.982.982,0,0,0,.884-.121c1.8-2.531,3.561-5.095,5.352-7.682l-14.258-9.857ZM891.864,851.4c-1.264,3.181-2.458,6.183-3.684,9.265h26.368l.042-.2Zm6.961-6.725-14.2-9.814-5.066,7.331c4.29,1.7,8.395,3.346,12.508,4.966,1.323.52,2.907,1.66,3.938,1.294,1.142-.405,1.789-2.209,2.648-3.406A2.913,2.913,0,0,0,898.825,844.671Zm-4.278-7.819,13.561,9.374,3.052-2.784-10.725-11.905ZM899.9,850.3l15.6,6.213.106-.229L902.177,847Zm13.943-3.861-2.348,2.138,10.387,7.178.157-.214Z" transform="translate(0 0)" fill="#ec663b"/><path d="M950.984,913.956a9.442,9.442,0,1,1,9.44,9.511A9.471,9.471,0,0,1,950.984,913.956Zm9.426-5.4a5.432,5.432,0,1,0,.074,10.864,5.432,5.432,0,1,0-.074-10.864Z" transform="translate(-38.864 -28.785)" fill="#ec663b"/></g><text transform="translate(217 596)" fill="#ec663b" font-size="30" font-family="Speda" text-decoration="underline"><tspan x="-104.861" y="0">مزيد من التفاصيل</tspan></text><text transform="translate(217 208)" fill="#fff" font-size="35" font-family="'\32 9LTBukra-Medium', '\32 9LT Bukra'" font-weight="500"><tspan x="-134.732" y="0">الهويات التجارية</tspan></text></g><g transform="translate(-157 2406)"><text transform="translate(54 272)" fill="#fff" font-size="24" font-family="'\32 9LTBukra-Medium', '\32 9LT Bukra'" font-weight="500"><tspan x="53.852" y="24">قوَّة التطبيقات تبدأ</tspan><tspan y="24"> </tspan><tspan x="106.352" y="54">بالتصميم</tspan><tspan y="54"></tspan><tspan x="0.428" y="84">السـلـس الـ</tspan><tspan y="84" xml:space="preserve"> UX/UI </tspan><tspan y="84">للـتـطبيق</tspan><tspan y="84"></tspan><tspan x="75.908" y="114">يُـنـاسـب جـمـيـع</tspan><tspan y="114"> </tspan><tspan x="83" y="144">المستخدمين</tspan><tspan y="144">.</tspan><tspan x="17.768" y="174">نـسـتـطـيع تـحويل أفكارك</tspan><tspan y="174"> </tspan><tspan x="141.548" y="204">إلى</tspan><tspan y="204"></tspan><tspan x="2.852" y="234">واقـع وتـرتـيـبـهـا وتــخــطــيــط</tspan><tspan y="234"></tspan><tspan x="58.076" y="264">الـهـيـكـل الرئيسي</tspan><tspan y="264"> </tspan><tspan x="100.196" y="294">لمشروعك</tspan><tspan y="294">.</tspan></text><rect width="434" height="709" rx="71" fill="none"/><line x2="117" transform="translate(158.5 235.217)" fill="none" stroke="#dd6565" stroke-linecap="round" stroke-width="5"/><text transform="translate(217 596)" fill="#dd6565" font-size="30" font-family="Speda" text-decoration="underline"><tspan x="-104.861" y="0">مزيد من التفاصيل</tspan></text><text transform="translate(217 208)" fill="#fff" font-size="35" font-family="'\32 9LTBukra-Medium', '\32 9LT Bukra'" font-weight="500"><tspan x="-195.142" y="0">بناء واجهات المستخدم</tspan></text><g transform="translate(44.358 -978.729)"><path d="M198.689,1000.529c1.28.519,2.577,1,3.832,1.577a10.411,10.411,0,0,1,1.563,1.121l-2.874,3.291c-1.889-1.573-4.054-1.677-6.281-1.673q-22.458.033-44.916.014c-3.7,0-6.214,1.747-7,5a22.269,22.269,0,0,0-.27,3.616h34.577v4.387h-34.43v11.476c1.118-.154,2.221-.326,3.329-.451.74-.083.828-.533.819-1.151-.024-1.81-.008-3.622-.008-5.517h4.38v6.38c15,2.419,23.629,11.036,26.068,26h6.358v4.429h-6.348c-2.369,14.964-10.942,23.616-25.98,26.048v6.377h-4.479q0-2.381,0-4.767c0-1.737-.012-1.673-1.7-1.953-10.114-1.679-17.511-7.078-21.735-16.443-1.175-2.606-1.617-5.554-2.276-8.373-.172-.74-.463-.861-1.082-.855-1.816.017-3.632.006-5.57.006v-4.431h6.142c.849-2.982,1.416-5.849,2.475-8.52a27.066,27.066,0,0,1,14.06-14.782,1.5,1.5,0,0,0,1.022-1.6c-.036-5.836-.024-11.671-.017-17.506.005-3.941,1.263-7.358,4.625-9.616a28.262,28.262,0,0,1,4.7-2.073Zm-56.6,60.2c-4.708-5.894-4.9-11.343-.613-15.834a10.867,10.867,0,0,1,14.111-1.255,10.656,10.656,0,0,1,4.23,6.41c.928,4.188-.473,7.692-3.465,10.684,5.489,3.237,8.08,7.995,8.126,14.391a24,24,0,0,0,8.41-16.052h-4.06v-4.5h3.963c-.692-11.743-11.442-21.047-21.366-21.2v3.9h-4.41v-3.929c-10.444.386-20.646,9.853-21.33,21.3h4.123c0,1.316.055,2.495-.04,3.663a1.163,1.163,0,0,1-.847.719c-1.079.089-2.17.034-3.337.034a23.991,23.991,0,0,0,8.3,15.942C135.04,1066.925,136.318,1064.717,142.088,1060.726Zm9.4,19.918c1.854-.439,3.594-.739,5.261-1.267,3.407-1.079,3.4-1.13,3.322-4.688-.088-4.11-1.588-7.541-5.2-9.683a10.715,10.715,0,0,0-16.38,9.1c-.138,4.287-.1,4.388,4.036,5.549,1.425.4,2.905.61,4.536.943v-4.2h4.429Zm-2.3-21.719a6.442,6.442,0,0,0,6.519-6.367,6.532,6.532,0,0,0-6.4-6.523,6.458,6.458,0,0,0-6.483,6.408A6.365,6.365,0,0,0,149.188,1058.925Z" transform="translate(-0.785)" fill="#dd6565"/><path d="M244.728,1058.22c-2.457,2.992-4.837,6.051-7.386,8.963q-11.82,13.5-23.754,26.911a5.1,5.1,0,0,0-1.278,2.639,15.159,15.159,0,0,1-15.437,12.961c-4.652.021-9.3.008-13.956,0-1.593,0-2.54-.535-2.826-1.636-.349-1.343.4-2.152,1.455-2.788a5.747,5.747,0,0,0,2.775-5.344c-.013-2.955-.156-5.929,1.029-8.736a15.054,15.054,0,0,1,12.5-9.625,2.48,2.48,0,0,0,1.239-.486c3.853-3.363,7.68-6.758,11.351-10v-22.03h4.289v18.218c1.5-1.307,2.785-2.424,4.065-3.55,4.7-4.136,9.491-8.165,14.052-12.445,4.172-3.916,10.008-2.327,11.68,2.014.021.055.131.075.2.112Zm-34.376,32.925q8.571-9.706,17.126-19.393c4.027-4.563,8.078-9.1,12.04-13.723a3.812,3.812,0,0,0,.962-2.565c-.265-2.225-2.638-2.7-4.548-1.016q-13.789,12.159-27.577,24.319c-1.858,1.639-3.708,3.289-5.489,4.869Zm-22.77,13.935a2.151,2.151,0,0,0,.464.139c3.38-.008,6.762.055,10.139-.054a10.539,10.539,0,0,0,9.746-9.052,1.813,1.813,0,0,0-.4-1.307c-2.775-2.841-5.591-5.642-8.419-8.431a1.385,1.385,0,0,0-.956-.4,10.811,10.811,0,0,0-9.335,9.531C188.481,1098.7,189.31,1102.045,187.582,1105.081Z" transform="translate(-7.734 -5.16)" fill="#dd6565"/><path d="M215.78,1010.192q11.484,0,22.969,0c2.244,0,2.943.705,2.944,2.954q0,12.244,0,24.487c0,2.2-.757,2.961-2.971,2.961q-23.033.007-46.065,0c-2.18,0-2.979-.812-2.981-2.989q-.005-12.181,0-24.361c0-2.326.718-3.054,3.01-3.054Q204.231,1010.189,215.78,1010.192Zm-21.617,4.424v21.415h43.122v-21.415Z" transform="translate(-8.762 -1.028)" fill="#dd6565"/><path d="M137.547,1097.479h4.43v10.814h1.471q6.532,0,13.065,0c2.061,0,2.8.748,2.8,2.839q.008,7.8,0,15.6c0,2.615-.651,3.257-3.32,3.259q-9.45.005-18.9,0-13.191,0-26.385,0c-2.842,0-3.417-.577-3.417-3.4q0-7.737,0-15.473c0-2.088.734-2.821,2.809-2.821q12.939-.005,25.878,0h1.565Zm-25.816,15.206v12.783h43.148v-12.783Z" transform="translate(0 -10.312)" fill="#dd6565"/><path d="M142.967,1136.805l3.592-2.1c.475.524.894,1.049,1.376,1.507a6.819,6.819,0,0,0,4.886,1.74q23.281.025,46.562.01c4.354,0,7.134-3.114,6.968-7-.083-1.932-.014-3.87-.014-5.929H167.5v-4.388h38.832v-5.024c0-4.19,0-4.19,4.4-3.59.021.414.063.858.063,1.3,0,5.75-.038,11.5.013,17.252.066,7.5-5.544,11.81-11.764,11.75-15.562-.15-31.125-.044-46.689-.054a10.605,10.605,0,0,1-9.12-4.82,2.11,2.11,0,0,1-.192-.323A1.928,1.928,0,0,1,142.967,1136.805Z" transform="translate(-3.795 -11.83)" fill="#dd6565"/><path d="M120.374,1010.192c3.383,0,6.767-.006,10.149,0,1.963.005,2.82.792,2.831,2.74q.044,8.118,0,16.237c-.01,1.869-.865,2.749-2.715,2.757q-10.34.044-20.68,0c-1.88-.008-2.66-.877-2.663-2.767q-.012-8.118,0-16.236c0-1.959.794-2.725,2.8-2.729C113.523,1010.186,116.948,1010.192,120.374,1010.192Zm8.464,4.438h-17.1v12.782h17.1Z" transform="translate(0 -1.028)" fill="#dd6565"/><path d="M181.931,1131.505v4.179h-4.288v-4.179Z" transform="translate(-7.483 -13.931)" fill="#dd6565"/><path d="M234.05,1029.627v4.281h-34.7c0-1.129-.005-2.177,0-3.224,0-.328.045-.656.074-1.057Z" transform="translate(-9.792 -3.095)" fill="#dd6565"/><path d="M213.944,1024.192v-4.21h21.6v4.21Z" transform="translate(-11.344 -2.069)" fill="#dd6565"/><path d="M208.075,1019.99v4.189H199.4v-4.189Z" transform="translate(-9.798 -2.07)" fill="#dd6565"/><path d="M153.454,1119.34v4.2H134.078v-4.2Z" transform="translate(-2.849 -12.637)" fill="#dd6565"/><path d="M127.8,1119.333v4.168H117.056v-4.168Z" transform="translate(-1.039 -12.636)" fill="#dd6565"/><path d="M117.008,1019.932h8.626v4.272h-8.626Z" transform="translate(-1.034 -2.064)" fill="#dd6565"/></g></g><g transform="translate(-607 2406)"><text transform="translate(54 272)" fill="#fff" font-size="24" font-family="'\32 9LTBukra-Medium', '\32 9LT Bukra'" font-weight="500"><tspan x="48.584" y="24">نجعلك الأكثر وضوحاً</tspan><tspan y="24"></tspan><tspan x="53.492" y="54">في عيـون عـمـلائـك</tspan><tspan y="54">.</tspan></text><rect width="434" height="709" rx="71" fill="none"/><line x2="117" transform="translate(158.5 235.217)" fill="none" stroke="#dd6565" stroke-linecap="round" stroke-width="5"/><text transform="translate(217 596)" fill="#dd6565" font-size="30" font-family="Speda" text-decoration="underline"><tspan x="-104.861" y="0">مزيد من التفاصيل</tspan></text><text transform="translate(217 208)" fill="#fff" font-size="35" font-family="'\32 9LTBukra-Medium', '\32 9LT Bukra'" font-weight="500"><tspan x="-61.652" y="0">التصوير</tspan></text><g transform="translate(47.83 -1369.618)"><path d="M104.263,1543.985a4.041,4.041,0,0,1-1.292-3.373c.06-6.21.026-12.422.026-18.632v-1.5h4.293V1539.6h19.456v4.39Z" transform="translate(0 -22.584)" fill="#dd6565"/><path d="M230.1,1543.975v-4.3h19.412v-19.252h4.337v1.419c0,6.253-.034,12.507.026,18.76a4.041,4.041,0,0,1-1.292,3.373Z" transform="translate(-22.105 -22.574)" fill="#dd6565"/><path d="M169.6,1515.36q-21.013,0-42.027,0c-4.682,0-8.389-1.834-10.44-6.167a11.969,11.969,0,0,1-1.1-4.913q-.12-23.312-.036-46.625a10.714,10.714,0,0,1,10.991-10.975q9.133-.046,18.267.012c.914.006,1.318-.214,1.538-1.171.826-3.6,1.758-7.168,2.664-10.746a6.364,6.364,0,0,1,6.6-5.237q13.541-.035,27.081,0c3.532.008,5.794,1.841,6.673,5.3.906,3.578,1.844,7.148,2.678,10.742.211.907.584,1.114,1.452,1.109,5.961-.037,11.923-.025,17.884-.018,6.878.006,11.441,4.557,11.445,11.431q.011,22.994,0,45.988c0,5.4-3.019,9.448-8.12,10.837a14.16,14.16,0,0,1-3.654.416Q190.548,1515.384,169.6,1515.36Zm.037-4.352q21.014,0,42.029,0c4.672,0,7.279-2.619,7.28-7.276q0-22.867,0-45.733c0-4.328-2.69-6.991-7.026-6.995q-10.092-.009-20.184,0c-1.858,0-2.478-.5-2.931-2.324q-1.553-6.238-3.106-12.475c-.482-1.921-1.023-2.331-3.036-2.332q-13.03,0-26.061,0c-2.009,0-2.547.413-3.031,2.339q-1.55,6.172-3.086,12.349c-.5,2.011-1.041,2.444-3.084,2.445q-10.029,0-20.057,0c-4.334,0-7.016,2.668-7.019,7q-.011,22.994.012,45.989a8.984,8.984,0,0,0,.351,2.512c.862,2.9,3.357,4.5,6.923,4.5Q148.62,1511.013,169.635,1511.008Z" transform="translate(-2.261 -6.768)" fill="#dd6565"/><path d="M206.686,1403.356c.03,1.313-.962,2.163-2.595,2.3a8.286,8.286,0,0,0-7.241,4.878,11.6,11.6,0,0,0-.834,3.308c-.221,1.533-1,2.5-2.22,2.506-1.15,0-1.966-.893-2.168-2.378-.71-5.214-3.227-7.68-8.507-8.334a2.213,2.213,0,0,1-2.188-2.215c.016-1.208.772-1.969,2.246-2.116,4.029-.4,6.859-2.331,8.068-6.306a16.984,16.984,0,0,0,.409-2.381,2.132,2.132,0,0,1,2.07-2.026,2.2,2.2,0,0,1,2.237,2.019,18.633,18.633,0,0,0,.5,2.745,8.083,8.083,0,0,0,6.8,5.756c.545.092,1.1.121,1.642.235A2.208,2.208,0,0,1,206.686,1403.356Zm-9.991.148-2.875-2.87-2.9,2.83,2.867,2.9Z" transform="translate(-13.556)" fill="#dd6565"/><path d="M217.175,1434.5a2.062,2.062,0,0,1-2.081-1.708c-.185-.954-.242-1.941-.512-2.869a8.389,8.389,0,0,0-7.539-6.047,6.151,6.151,0,0,1-1.247-.232,1.947,1.947,0,0,1-1.482-2.109,2.006,2.006,0,0,1,1.668-1.979,21.262,21.262,0,0,0,4.382-1.157,7.894,7.894,0,0,0,4.544-6.879,7.13,7.13,0,0,1,.174-1,1.966,1.966,0,0,1,2.175-1.713,1.866,1.866,0,0,1,1.974,1.782c.5,5.467,3.436,8.455,8.922,8.958a1.893,1.893,0,0,1,1.829,2.065,2.02,2.02,0,0,1-1.787,2.126,21.081,21.081,0,0,0-4.363,1.2,7.733,7.733,0,0,0-4.386,6.567C219.252,1433.517,218.522,1434.486,217.175,1434.5Zm-2.81-12.907,2.71,2.969,2.956-2.9-2.79-2.878Z" transform="translate(-17.621 -3.166)" fill="#dd6565"/><path d="M240.552,1393.148c1.2.022,2.03.929,2.148,2.4a8.372,8.372,0,0,0,4.834,7.4,11.235,11.235,0,0,0,3.293.846c1.576.221,2.514.915,2.581,2.151.064,1.189-.8,2.108-2.395,2.259-3.344.317-5.929,1.789-7.4,4.844a12.937,12.937,0,0,0-.9,3.547c-.235,1.47-.963,2.3-2.231,2.289-1.228-.015-1.965-.784-2.13-2.226-.5-4.371-2.606-7.072-6.392-8.108-.813-.222-1.673-.266-2.506-.413a2,2,0,0,1-1.794-2,1.941,1.941,0,0,1,1.615-2.137c.7-.163,1.432-.161,2.134-.312,4.008-.858,6.433-3.737,6.94-8.2C238.525,1394.029,239.37,1393.125,240.552,1393.148Zm-.05,9.97-2.8,2.824,2.779,2.934,2.91-2.838Z" transform="translate(-21.682 -0.444)" fill="#dd6565"/><path d="M126.626,1416.547v4.31H107.372v19.182H103v-1.257q0-9.634,0-19.265c0-2.268.695-2.967,2.958-2.968q9.7-.006,19.392,0Z" transform="translate(-0.006 -4.512)" fill="#dd6565"/><path d="M175.535,1460.638a25.742,25.742,0,1,1-25.815,25.7A25.883,25.883,0,0,1,175.535,1460.638Zm-.025,4.391a21.382,21.382,0,1,0,21.43,21.415A21.465,21.465,0,0,0,175.51,1465.029Z" transform="translate(-8.129 -12.179)" fill="#dd6565"/><path d="M126.4,1468.164c0-1.7-.036-3.4.01-5.1.044-1.576.765-2.389,2.342-2.421q5.162-.1,10.328,0a2.194,2.194,0,0,1,2.382,2.421q.09,5.1,0,10.2a2.192,2.192,0,0,1-2.382,2.42q-5.164.1-10.329,0c-1.576-.031-2.3-.846-2.34-2.422C126.367,1471.565,126.4,1469.864,126.4,1468.164Zm10.637-3.073h-6.189v6.146h6.189Z" transform="translate(-4.072 -12.171)" fill="#dd6565"/><path d="M194.464,1488.195a17.149,17.149,0,1,1-17.187-17.181A17.219,17.219,0,0,1,194.464,1488.195Zm-17.328,12.83a12.834,12.834,0,0,0,.486-25.664c-6.649-.28-12.9,5.505-13.094,12.022A12.856,12.856,0,0,0,177.136,1501.025Z" transform="translate(-9.945 -13.983)" fill="#dd6565"/></g></g><g transform="translate(-1061 2406)"><text transform="translate(54 272)" fill="#fff" font-size="24" font-family="'\32 9LTBukra-Medium', '\32 9LT Bukra'" font-weight="500"><tspan x="14.204" y="24">سواءً كنت قديماً أو جديداً</tspan><tspan y="24"> </tspan><tspan x="2.24" y="54">في الــســوق، فــإن تــواجــدك</tspan><tspan y="54"> </tspan><tspan x="21.32" y="84">على الإنــتــرنــت يُــعــزِّز مـن</tspan><tspan y="84"> </tspan><tspan x="31.184" y="114">مبيعاتك، ويـرفع الوعي</tspan><tspan y="114"> </tspan><tspan x="39.644" y="144">بعلامتك التجارية على</tspan><tspan y="144"> </tspan><tspan x="112.184" y="174">الجمهور</tspan><tspan y="174">.</tspan></text><rect width="434" height="709" rx="71" fill="none"/><line x2="117" transform="translate(158.5 235.217)" fill="none" stroke="#dd6565" stroke-linecap="round" stroke-width="5"/><text transform="translate(217 596)" fill="#dd6565" font-size="30" font-family="Speda" text-decoration="underline"><tspan x="-104.861" y="0">مزيد من التفاصيل</tspan></text><text transform="translate(217 208)" fill="#fff" font-size="35" font-family="'\32 9LTBukra-Medium', '\32 9LT Bukra'" font-weight="500"><tspan x="-209.947" y="0">تصميم المواقع التعرفية</tspan></text><g transform="translate(-665.095 -1164.936)"><path d="M842.594,1208.659v4.459h-4.335v63.032h8.9V1193.8c0-2.56.6-3.167,3.112-3.167h70.362c2.445,0,3.084.633,3.084,3.056q0,40.334,0,80.669v1.778h8.925V1213.2h-4.316v-4.523c2.331,0,4.662-.065,6.988.028a1.991,1.991,0,0,1,1.9,1.934,8.183,8.183,0,0,1,.017,1.125q0,32.944,0,65.887c0,2.449-.635,3.1-3.046,3.1H836.664c-2.35,0-3.011-.656-3.011-2.987q0-33.084,0-66.168c0-2.248.681-2.925,2.926-2.928C838.543,1208.656,840.506,1208.659,842.594,1208.659Zm9.134,67.485h67.384v-80.932H851.727Z" transform="translate(-2.548)" fill="#dd6565"/><path d="M896.128,1301.316a21.539,21.539,0,0,0,3.333,12.749,1.872,1.872,0,0,0,1.295.736c1.488.092,2.985.034,4.566.034v4.433H860.48v-4.432c1.485,0,2.971.041,4.454-.025a1.766,1.766,0,0,0,1.267-.539,21.6,21.6,0,0,0,3.453-12.955h-1.7q-17.168,0-34.336,0a11.159,11.159,0,0,1-11.522-11.539q-.006-38.01,0-76.022a11.16,11.16,0,0,1,11.5-11.555c2.105,0,4.21,0,6.411,0v4.5c-2.024,0-4.026-.007-6.028,0-4.544.018-7.383,2.834-7.384,7.373q-.01,37.659,0,75.318c0,4.612,2.834,7.419,7.482,7.419q48.831.006,97.662,0c4.63,0,7.444-2.819,7.446-7.455q.008-37.59,0-75.178c0-4.645-2.81-7.461-7.424-7.477-1.964-.007-3.929,0-5.988,0v-4.244c3.049,0,6.135-.387,9.083.085a10.773,10.773,0,0,1,8.827,10.83q.015,38.363,0,76.726a11.148,11.148,0,0,1-11.278,11.215q-17.238.02-34.476,0Zm-4.739.073H874.4a27.677,27.677,0,0,1-3.17,13.371h23.327A27.689,27.689,0,0,1,891.389,1301.389Z" transform="translate(0 -2.549)" fill="#dd6565"/><path d="M888.627,1316.444V1312.1H906.46v4.339Z" transform="translate(-14.67 -26.783)" fill="#dd6565"/><path d="M868.4,1270.2v-4.327H917.8v4.327Z" transform="translate(-10.209 -16.589)" fill="#dd6565"/><path d="M917.811,1283.243v4.33H868.4v-4.33Z" transform="translate(-10.211 -20.419)" fill="#dd6565"/><path d="M906.551,1217.009a9.006,9.006,0,1,1-8.947-9.032A8.932,8.932,0,0,1,906.551,1217.009Zm-9,4.467a4.493,4.493,0,1,0-4.5-4.483A4.61,4.61,0,0,0,897.554,1221.476Z" transform="translate(-14.651 -3.824)" fill="#dd6565"/><path d="M882.854,1249.629a13.7,13.7,0,0,1,12.676-15.677c7.168-.428,15.195,5.465,14.178,15.789h-4.423c.2-3.776-.55-7.157-3.745-9.5a8.546,8.546,0,0,0-5.805-1.721c-5.4.4-8.165,4.012-8.53,11.11Z" transform="translate(-13.371 -9.546)" fill="#dd6565"/></g></g></g></svg>