<svg xmlns="http://www.w3.org/2000/svg" xmlns:xlink="http://www.w3.org/1999/xlink" width="203.794" height="204.701" viewBox="0 0 203.794 204.701"><defs><linearGradient id="a" x1="0.476" x2="0.526" y2="1" gradientUnits="objectBoundingBox"><stop offset="0" stop-color="#de2120"/><stop offset="0.341" stop-color="#e02e22"/><stop offset="0.539" stop-color="#e44528"/><stop offset="0.769" stop-color="#e64e2a"/><stop offset="1" stop-color="#e64e2a"/></linearGradient><clipPath id="c"><circle cx="101.897" cy="101.897" r="101.897" transform="translate(203.794 203.794) rotate(180)" fill="url(#a)"/></clipPath></defs><g transform="translate(-1432.311 -3710.899)"><circle cx="101.897" cy="101.897" r="101.897" transform="translate(1636.105 3914.693) rotate(180)" fill="url(#a)"/><g transform="translate(1432.311 3711.806)" clip-path="url(#c)"><g transform="translate(-2082.379 -126.078)"><path d="M2187.477,926.122c-2.007,5.9-18.555,27.652-13.28,27.652,2.381,0,9-.725,11.873-4.15,4.1-4.9,10.1-10.5,12.6-14.311,1.2-1.821-1.068-5.534-1.463-7.551Z" transform="translate(-19.141 -374.22)" fill="#524140"/><path d="M2201.143,771.29s-5.786,8.147-11.173,6.305c-2.488-.849,2.127-6.9,2.595-13.063s-8.184-61.84-8.184-67.842,2.145-16.771,2.145-16.771-5.486-33.048-5.07-66.971c.188-15.637,24.448-24.125,25.782-3.455s-1.3,71.295-1.3,71.295,1.33,5.831,0,15.9C2204.789,705.358,2201.143,771.29,2201.143,771.29Z" transform="translate(-23.075 -217.747)" fill="#fcb883"/><path d="M2256.89,926.122c2.007,5.9,18.555,27.652,13.284,27.652-2.381,0-9.008-.725-11.873-4.15-4.109-4.9-10.1-10.5-12.606-14.311-1.2-1.821,1.073-5.534,1.463-7.551Z" transform="translate(-53.486 -374.22)" fill="#524140"/><path d="M2242.134,771.8s5.791,8.147,11.178,6.305c2.488-.849-2.128-6.9-2.6-13.063s8.184-61.84,8.184-67.842-2.145-16.771-2.145-16.771,5.486-33.048,5.074-66.971c-.193-15.637-25.413-23.2-26.744-2.531s2.256,70.371,2.256,70.371-1.329,5.831,0,15.9C2238.492,705.868,2242.134,771.8,2242.134,771.8Z" transform="translate(-48.462 -218.256)" fill="#fcb883"/><path d="M2202.93,333.721h28.695v-10.6s-3.037-2.788-12.7-2.788-13.529,1.861-13.529,1.861Z" transform="translate(-33.303 -85.995)" fill="#732821"/><path d="M2316.72,533.489c1.406,5.576.995,12.61-1.536,13.245-2.2.553-5.228-4.6-6.824-9.024-.245-.678.163,3.434-1.857,3.1-1.2-.2-1.781-6.685-1.205-8.12,1.677-4.193,3.071-5.724,4.795-6.16C2312.624,525.89,2315.313,527.9,2316.72,533.489Z" transform="translate(-81.902 -184.045)" fill="#fcb883"/><path d="M2180.8,350.128h49.266l4.465-24.05-20.824-4.461v-13.7h-16.548v13.7l-20.82,4.461Z" transform="translate(-20.651 -80.09)" fill="#fcb883"/><path d="M2216.054,310.71s3.719,5.58,8.552,5.58,8-5.58,8-5.58v-2.788h-16.548Z" transform="translate(-39.547 -80.09)" fill="#d4895e"/><path d="M2233.242,217.1c-2.822,8.922-15.754,25.034-27.511,25.034-10.577,0-24.448-13.384-27.738-25.034s-2.119-25.036-2.119-25.036c0-15.865,4.705-32.969,29.857-32.969s29.862,19.829,29.862,35.2C2235.593,194.293,2236.061,208.174,2233.242,217.1Z" transform="translate(-20.334 -9.279)" fill="#fcb883"/><path d="M2165.583,246.746c1.592,5.243,4.517,7.332,5.73,4.587,1.179-2.668,3.6-4.135,2.865-8.583s-4.757-9.164-7.24-7.817C2163.061,237.035,2164.279,242.442,2165.583,246.746Z" transform="translate(-14.932 -45.252)" fill="#fcb883"/><path d="M2290.43,244.413c-1.591,5.243-5.79,8.641-7,5.9-1.184-2.67-3.611-4.137-2.865-8.587s5.426-9.132,7.909-7.787C2292.352,236.043,2291.734,240.113,2290.43,244.413Z" transform="translate(-70.174 -44.778)" fill="#fcb883"/><path d="M2224.051,202.435c4.7-2.353,4.178-12.45,10.084-12.45,4.156-20.449-5.722-48.419-33.979-48.419-30.029,0-37.239,30.434-36.012,49.607,5.421-3.547,3.247,6.678,10.654,11.261-3-6.445,3.611-4.617.412-15,3.114-4.4-.708-22.375,24.358-22.375s18.958,12.706,23.9,19.4S2225.814,199.711,2224.051,202.435Z" transform="translate(-14.788 -0.941)" fill="#341e13"/><path d="M2301.522,363.628c.884,4.184,4.876,57.531,4.465,76.6-1.146,2.235-9.6,5.335-10.9,3.633-1.814-25.7-7.626-71.376-7.626-75.758,0-5.8-4.757-25.545,1.047-25.545S2298.55,349.5,2301.522,363.628Z" transform="translate(-72.649 -96.569)" fill="#41747a"/><path d="M2133.735,533.726c-1.407,5.578-1,12.611,1.531,13.247,2.2.551,5.233-4.6,6.824-9.026.245-.678-.158,3.434,1.861,3.1,1.2-.2,1.776-6.685,1.2-8.12-1.677-4.195-3.071-5.726-4.791-6.16C2137.826,526.127,2135.137,528.146,2133.735,533.726Z" transform="translate(0 -184.158)" fill="#fcb883"/><path d="M2216.176,383.844c.249-5.949,4.285-23.785,4.285-23.785l1.047-25.544-11.4-2.441-6.142-6.421-17.062,1.8-11.032-1.669-6.142,6.417-11.4,2.442,1.047,25.547s6.163,19.4,6.412,25.351c-5.76,15.162-13.361,20.586-14.768,58.79s-6.224,204.318-6.224,204.318h94.208s-8.278-186.8-10.925-212.83S2221.4,396.982,2216.176,383.844Z" transform="translate(-5.648 -88.526)" fill="#41747a"/><path d="M2141.722,363.869c-.884,4.184-4.881,57.533-4.465,76.6,1.141,2.237,9.591,5.334,10.9,3.629,1.814-25.692,7.626-71.372,7.626-75.749,0-5.8,4.757-25.547-1.047-25.547S2144.694,349.74,2141.722,363.869Z" transform="translate(-2.042 -96.683)" fill="#41747a"/><g transform="translate(2164.068 187.099)"><g transform="translate(0 0.871)"><path d="M2193.522,234.66l-.39-.255a3.379,3.379,0,0,1-.42-.451,3.53,3.53,0,0,1-.253-.559,3.829,3.829,0,0,1-.1-1.514,3.743,3.743,0,0,0,.5,1.33,2.87,2.87,0,0,0,.309.352c.12.058.172.122.275.169.266.077.446.127.446.127a.446.446,0,0,1-.249.858A.381.381,0,0,1,2193.522,234.66Z" transform="translate(-2192.325 -231.881)" fill="#452829"/></g><path d="M2207.2,235.651c0,1.628-2.681,3.97-6.018,3.97-4.079,0-6.537-2.368-6.537-4.879s3.53-4.191,6.506-3.64C2204.441,231.714,2207.2,233.861,2207.2,235.651Z" transform="translate(-2193.431 -230.59)" fill="#fff"/><path d="M2207.04,235.822a4.405,4.405,0,0,1-1.935,3.648,7.477,7.477,0,0,1-5.113-.109,4.412,4.412,0,1,1,7.047-3.539Z" transform="translate(-2195.128 -230.786)" fill="#452829"/><g transform="translate(1.157)"><path d="M2194.658,235.092a4.165,4.165,0,0,1-.12-.727,3.073,3.073,0,0,1,.553-1.934,4.969,4.969,0,0,1,2.3-1.707,7.864,7.864,0,0,1,3.247-.491,7.679,7.679,0,0,1,1.635.356,10.7,10.7,0,0,1,1.488.59,7.831,7.831,0,0,1,2.294,1.647,3.976,3.976,0,0,1,1.034,1.707,2.271,2.271,0,0,1,.055.748,2.28,2.28,0,0,0-.218-.686,4.534,4.534,0,0,0-1.219-1.4,10.928,10.928,0,0,0-3.667-1.808,11.722,11.722,0,0,0-1.479-.294,6.453,6.453,0,0,0-5.092,1.634A3.317,3.317,0,0,0,2194.658,235.092Z" transform="translate(-2194.533 -230.219)" fill="#452829"/></g><path d="M2207.272,238.743a2.814,2.814,0,1,1-2.814-2.811A2.814,2.814,0,0,1,2207.272,238.743Z" transform="translate(-2196.759 -232.937)" fill="#331e1d"/><path d="M2208.224,237.675a1.254,1.254,0,1,0,1.256-1.257A1.253,1.253,0,0,0,2208.224,237.675Z" transform="translate(-2199.89 -233.168)" fill="#fff"/><path d="M2209.047,234.768a.411.411,0,1,1-.407-.412A.41.41,0,0,1,2209.047,234.768Z" transform="translate(-2199.89 -232.187)" fill="#fff"/></g><g transform="translate(2193.933 187.099)"><g transform="translate(11.898 0.871)"><path d="M2272.315,233.859l.446-.127c.1-.047.15-.112.275-.169a3.3,3.3,0,0,0,.309-.352,3.791,3.791,0,0,0,.5-1.33,3.818,3.818,0,0,1-.1,1.514,3.155,3.155,0,0,1-.249.558,3.059,3.059,0,0,1-.424.452c-.232.154-.386.255-.386.255a.446.446,0,0,1-.493-.744A.468.468,0,0,1,2272.315,233.859Z" transform="translate(-2271.993 -231.881)" fill="#452829"/></g><path d="M2249.314,235.651c0,1.628,2.681,3.97,6.022,3.97,4.079,0,6.532-2.368,6.532-4.879s-3.53-4.191-6.507-3.64C2252.08,231.714,2249.314,233.861,2249.314,235.651Z" transform="translate(-2249.304 -230.59)" fill="#fff"/><path d="M2252.873,235.822a4.414,4.414,0,0,0,1.93,3.648,7.475,7.475,0,0,0,5.113-.109,4.411,4.411,0,1,0-7.043-3.539Z" transform="translate(-2250.998 -230.786)" fill="#452829"/><g transform="translate(0)"><path d="M2261.8,235.092a3.316,3.316,0,0,0-.81-2.361,6.467,6.467,0,0,0-5.1-1.634,12.034,12.034,0,0,0-1.479.294,11.031,11.031,0,0,0-3.667,1.808,4.572,4.572,0,0,0-1.214,1.4,2.4,2.4,0,0,0-.223.686,2.305,2.305,0,0,1,.056-.748,4.019,4.019,0,0,1,1.033-1.707,7.894,7.894,0,0,1,2.295-1.647,10.759,10.759,0,0,1,1.492-.59,7.692,7.692,0,0,1,1.63-.356,7.881,7.881,0,0,1,3.251.491,4.991,4.991,0,0,1,2.3,1.707,3.128,3.128,0,0,1,.553,1.934A4.274,4.274,0,0,1,2261.8,235.092Z" transform="translate(-2249.296 -230.219)" fill="#452829"/></g><path d="M2255.541,238.743a2.811,2.811,0,1,0,2.809-2.811A2.81,2.81,0,0,0,2255.541,238.743Z" transform="translate(-2252.267 -232.937)" fill="#331e1d"/><path d="M2257.42,237.675a1.254,1.254,0,1,1-1.256-1.257A1.256,1.256,0,0,1,2257.42,237.675Z" transform="translate(-2251.968 -233.168)" fill="#fff"/><path d="M2258.118,234.768a.414.414,0,1,0,.412-.412A.414.414,0,0,0,2258.118,234.768Z" transform="translate(-2253.493 -232.187)" fill="#fff"/></g><path d="M2231.229,261.279a3.247,3.247,0,0,1-2.711,1.444,5.394,5.394,0,0,1-3.371-.858c-.275-.309,1.831-4.03,1.831-4.03s-.982,2.6-.541,3.241,1.656.635,2.23.635A5.328,5.328,0,0,0,2231.229,261.279Z" transform="translate(-43.862 -56.259)" fill="#d4895e"/><path d="M2233.648,282.128c0,4.263-3.839,7.716-8.574,7.716s-8.57-3.453-8.57-7.716Z" transform="translate(-39.761 -67.818)" fill="#af0020"/><path d="M2220.071,290.436a9.172,9.172,0,0,0,13.4,0,24.166,24.166,0,0,0-13.4,0Z" transform="translate(-41.459 -71.319)" fill="#de212b"/><path d="M2233.3,284.095a7.818,7.818,0,0,0,.253-1.967h-15.227a7.752,7.752,0,0,0,.232,1.875,1.659,1.659,0,0,0,1.352,1.008h12.176A1.338,1.338,0,0,0,2233.3,284.095Z" transform="translate(-40.629 -67.818)" fill="#fff"/><path d="M2262.587,218.22a20.815,20.815,0,0,0-9.389-1.741c-1.836.171-3.749.362-4.469.513s-.438-1.943.038-2.029,2.578-1.244,4.607-1.1C2258.573,214.21,2262.587,218.22,2262.587,218.22Z" transform="translate(-54.885 -35.33)" fill="#341e13"/><path d="M2193.381,218.22a20.8,20.8,0,0,1,9.389-1.741c1.836.171,3.744.362,4.465.513s.438-1.943-.042-2.029-2.569-1.244-4.6-1.1C2197.391,214.21,2193.381,218.22,2193.381,218.22Z" transform="translate(-28.76 -35.33)" fill="#341e13"/><path d="M2260.243,253.5c0,1.675-2.646,3.033-5.911,3.033s-5.91-1.358-5.91-3.033,2.642-3.037,5.91-3.037S2260.243,251.825,2260.243,253.5Z" transform="translate(-54.948 -52.754)" fill="#f08973"/><path d="M2205.5,253.5c0,1.675-2.646,3.033-5.911,3.033s-5.91-1.358-5.91-3.033,2.642-3.037,5.91-3.037S2205.5,251.825,2205.5,253.5Z" transform="translate(-28.9 -52.754)" fill="#f08973"/><path d="M2208.729,184.467c11.233,0,21.7,4.276,28.133,14.5,0-20.682-14.721-29-27.571-29s-29.72,13.325-25.5,28.815C2189.333,190.045,2197.5,184.467,2208.729,184.467Z" transform="translate(-23.884 -14.453)" fill="#41747a"/><path d="M2198.336,139.59c-24.637.133-36.549,19.488-36.36,53.519.154,29.119,8.75,36.8,16.179,41.345,6.159,2.88,37.5,2.711,43.613-.236,7.06-2.589,14.823-14.894,14.506-44.071C2235.939,159.486,2225.555,139.44,2198.336,139.59Zm28.458,56.128c0,26.308-17.954,35.768-29.99,35.768-13,0-23.6-16.481-23.6-35.768,0-15.619,0-34.507,25.062-34.507S2226.794,173.78,2226.794,195.719Z" transform="translate(-13.817 0)" fill="#60afba"/><path d="M2234.1,323.326h-2.745a2.2,2.2,0,0,0,1.994-2.368,2.517,2.517,0,0,0-.755-1.838,2.1,2.1,0,0,0,.755-1.621,2.035,2.035,0,0,0-1.986-2.082H2180.1a2.038,2.038,0,0,0-1.986,2.082,2.127,2.127,0,0,0,.6,1.488,2.5,2.5,0,0,0-.9,1.971,2.207,2.207,0,0,0,1.994,2.368h-2.749c-1.218,0-3.208,4.774-3.208,6.08s15.57,8.544,32.413,8.544,30.037-6.876,30.037-8.18S2235.323,323.326,2234.1,323.326Z" transform="translate(-19.472 -83.656)" fill="#60afba"/><path d="M2238.456,318.031a81.557,81.557,0,0,1-39.413,0s8.823.558,19.709.558S2238.456,318.031,2238.456,318.031Z" transform="translate(-31.454 -84.9)" fill="#4b868e"/><path d="M2237.852,330.8a114.327,114.327,0,0,1-46.77,0s10.47.56,23.385.56S2237.852,330.8,2237.852,330.8Z" transform="translate(-27.666 -90.973)" fill="#4b868e"/></g></g></g></svg>