<svg xmlns="http://www.w3.org/2000/svg" xmlns:xlink="http://www.w3.org/1999/xlink" width="203.794" height="204.701" viewBox="0 0 203.794 204.701"><defs><linearGradient id="a" x1="0.476" x2="0.526" y2="1" gradientUnits="objectBoundingBox"><stop offset="0" stop-color="#de2120"/><stop offset="0.341" stop-color="#e02e22"/><stop offset="0.539" stop-color="#e44528"/><stop offset="0.769" stop-color="#e64e2a"/><stop offset="1" stop-color="#e64e2a"/></linearGradient><clipPath id="c"><circle cx="101.897" cy="101.897" r="101.897" transform="translate(203.794 203.794) rotate(180)" fill="url(#a)"/></clipPath></defs><g transform="translate(-1432.311 -3710.899)"><circle cx="101.897" cy="101.897" r="101.897" transform="translate(1636.105 3914.693) rotate(180)" fill="url(#a)"/><g transform="translate(1432.311 3711.806)" clip-path="url(#c)"><g transform="translate(-159.07 -514.833)"><rect width="63.427" height="52.195" transform="translate(230.498 606.669)" fill="#550e0a"/><path d="M321.742,1188.669s6.33,8.911,12.225,6.894c2.718-.929-2.328-7.548-2.838-14.288s4.068-92.036,4.068-98.6-2.345-18.341-2.345-18.341,6-13.374,5.548-50.48c-.208-17.1-20.578-26.267-22.034-3.66s1.019,54.357,1.019,54.357-1.458,6.377,0,17.393C318.635,1091.425,321.742,1188.669,321.742,1188.669Z" transform="translate(-46.212 -185.63)" fill="#f9ab78"/><path d="M336.433,1311.8c1.3,3.818,8.45,12.271,12.215,20.083,2.593,5.389,2.493,6.654.607,8.066s-9.661,2.607-12.795-1.137c-4.495-5.363-11.048-11.484-13.79-15.653-1.309-1.99.542-10.646,1.465-10.719s.652,2.228,3.973,2.159c.326-1.233-.341-.728,1.085-2.159S336.433,1311.8,336.433,1311.8Z" transform="translate(-48.742 -311.859)" fill="#341e13"/><path d="M270.429,1188.331s-6.333,8.911-12.225,6.894c-2.72-.929,2.328-7.548,2.838-14.288s-4.07-92.036-4.07-98.6S259.317,1064,259.317,1064s-6-13.374-5.548-50.48c.211-17.1,23.813-27.079,25.269-4.47S277,1064.214,277,1064.214s1.659,6.612.2,17.628C275.957,1091.323,270.429,1188.331,270.429,1188.331Z" transform="translate(-21.288 -185.293)" fill="#f9ab78"/><path d="M251.783,1311.8c-1.3,3.818-8.448,12.271-12.21,20.083-2.6,5.389-2.5,6.654-.61,8.066s9.661,2.607,12.8-1.137c4.495-5.363,11.048-11.484,13.79-15.653,1.309-1.99-.542-10.646-1.463-10.719s-.652,2.228-3.975,2.159c-.323-1.233.338-.728-1.083-2.159S251.783,1311.8,251.783,1311.8Z" transform="translate(-14.808 -311.859)" fill="#341e13"/><path d="M240.227,643.231c0,7.122,17.187,29.142,37,29.142s36.878-23.5,36.878-30.617-16.062-6.9-35.878-6.9S240.227,636.11,240.227,643.231Z" transform="translate(-15.868 -40.523)" fill="#341e13"/><path d="M274.33,715.284h31.384l1.064-12.609s-4.625-3.657-15.2-3.657-16.271,4.674-16.271,4.674Z" transform="translate(-29.542 -66.25)" fill="#9c9c9c"/><path d="M390.925,937.346c1.711,6.781,1.211,15.33-1.867,16.1-2.664.673-6.357-5.59-8.293-10.972-.3-.824.2,4.176-2.26,3.767-1.46-.245-2.162-8.129-1.466-9.869,2.039-5.1,3.735-6.963,5.831-7.489C385.945,928.111,389.214,930.562,390.925,937.346Z" transform="translate(-70.615 -158.362)" fill="#f9ab78"/><path d="M251.576,736.008H305.46l4.879-26.3-22.774-4.882V689.851h-18.1v14.976l-26.027,4.882Z" transform="translate(-17.157 -62.574)" fill="#f9ab78"/><path d="M286.89,692.9s4.068,6.1,9.352,6.1,8.744-6.1,8.744-6.1v-3.049h-18.1Z" transform="translate(-34.578 -62.574)" fill="#e1bd94" style="mix-blend-mode:multiply;isolation:isolate"/><path d="M310.929,610.842c-6.451,18.395-15.952,27.384-30.088,27.384-14.3,0-23.309-9.19-30.34-27.384-4.774-12.352-2.319-27.385-2.319-27.385,0-17.351,5.147-36.058,32.659-36.058S313.5,569.089,313.5,585.9C313.5,585.9,314.313,601.182,310.929,610.842Z" transform="translate(-18.805 -5.457)" fill="#f9ab78"/><path d="M234.363,632.145c1.735,5.734,7.725,8.753,9.053,5.754,1.292-2.919,3.945-4.524,3.134-9.391s-7.08-10.117-9.8-8.644C232.51,622.163,232.934,627.437,234.363,632.145Z" transform="translate(-13.116 -34.411)" fill="#f9ab78"/><path d="M360.833,631.14c-1.737,5.735-7.722,8.756-9.05,5.757-1.294-2.919-3.945-4.524-3.137-9.391s7.083-10.117,9.8-8.644C362.683,621.161,362.262,626.435,360.833,631.14Z" transform="translate(-59.279 -34.009)" fill="#f9ab78"/><path d="M305.947,597.736s2.372-10.651,8.587-8.781c.216-6.708-.465-5.845-1.946-18.881s-12-36.114-49.637-24.726c-9.269-3.413-20.623,4.649-24.243,19.643-1.9,7.9-2.971,18.273-1.743,24.566,5.928-3.879,8.622,8.181,8.622,8.181l2.2-.235s-4.507-5.641.985-10.69c-3.052-4.365,3.267-19.133,6.161-20.537,5.865-2.843,4.526,3.014,21.182,7.117,14.037,3.458,18.8,1.426,27.455.61,2.458-.228.193,10.761-.914,12.81,6.215,4.083,1.657,10.548,1.657,10.548Z" transform="translate(-14.35 -3.406)" fill="#341e13"/><path d="M257.021,831.615H310.9l-.539-112.824L296.1,713.948s-3.5,5.423-11.739,5.423-11.1-5.423-11.1-5.423l-15.351,4.232Z" transform="translate(-22.602 -72.236)" fill="#fff"/><path d="M381.726,746.045c.961,4.576,4.559,79.521,4.105,100.374-1.25,2.446-12.972,7.132-14.393,5.266-1.985-28.1-5.092-95.955-5.092-100.744,0-6.345-5.2-27.941,1.145-27.941S378.472,730.593,381.726,746.045Z" transform="translate(-65.632 -75.866)" fill="#f4f4f4"/><path d="M201.606,937.491c-1.679,6.676-1.191,15.092,1.841,15.854,2.624.662,6.256-5.506,8.163-10.8.294-.813-.191,4.108,2.228,3.7,1.436-.238,2.127-7.994,1.441-9.712-2.007-5.019-3.679-6.85-5.74-7.372C206.508,928.4,203.288,930.812,201.606,937.491Z" transform="translate(0 -158.472)" fill="#f9ab78"/><path d="M308.639,750.633l.561-34.8-18.971-2.671-5.651-8.039-16.749,13.2-.007-.6L253.107,706.14l-6.717,7.021-18.971,2.671.561,34.8s2.181,25.514,2.1,33.242S218.962,1065.3,218.962,1065.3s25.777,10.028,50.369,10.028,58.232-10.028,58.232-10.028-20.27-275.052-20.356-282.779S308.639,750.633,308.639,750.633Z" transform="translate(-7.342 -68.697)" fill="#f4f4f4"/><path d="M206.534,746.045c-.963,4.576-4.575,79.411-4.122,100.262,1.25,2.448,12.986,7.244,14.408,5.379,1.99-28.1,5.092-95.955,5.092-100.744,0-6.345,5.2-27.941-1.144-27.941S209.788,730.593,206.534,746.045Z" transform="translate(-0.69 -75.866)" fill="#f4f4f4"/><g transform="translate(239.904 583.287)"><path d="M279.237,621.922c0,1.681-2.765,4.1-6.21,4.1-4.21,0-6.739-2.443-6.739-5.034s3.637-4.326,6.712-3.755C276.386,617.858,279.237,620.074,279.237,621.922Z" transform="translate(-266.221 -616.7)" fill="#fff"/><path d="M278.6,622.046a4.548,4.548,0,0,1-1.992,3.764,7.776,7.776,0,0,1-5.279-.113,4.553,4.553,0,1,1,7.272-3.652Z" transform="translate(-267.507 -616.849)" fill="#452829"/><path d="M266.309,621.445a4.308,4.308,0,0,1-.127-.752,3.163,3.163,0,0,1,.571-1.992c1.02-1.513,3.4-2.42,5.73-2.267a10.244,10.244,0,0,1,3.22.973,8.09,8.09,0,0,1,2.367,1.7,4.174,4.174,0,0,1,1.069,1.765,1.672,1.672,0,0,1,.039.772,2.067,2.067,0,0,0-.21-.711,4.73,4.73,0,0,0-1.255-1.438,10.318,10.318,0,0,0-2.343-1.36,10.826,10.826,0,0,0-2.97-.806,6.675,6.675,0,0,0-5.255,1.682A3.42,3.42,0,0,0,266.309,621.445Z" transform="translate(-266.176 -616.417)" fill="#452829"/><path d="M278.4,624.477a2.9,2.9,0,1,1-2.9-2.9A2.9,2.9,0,0,1,278.4,624.477Z" transform="translate(-268.754 -618.486)" fill="#331e1d"/><path d="M278.536,623.313a1.294,1.294,0,1,0,1.294-1.3A1.292,1.292,0,0,0,278.536,623.313Z" transform="translate(-271.132 -618.663)" fill="#fff"/><path d="M279.388,620.578a.426.426,0,1,1-.426-.426A.425.425,0,0,1,279.388,620.578Z" transform="translate(-271.132 -617.915)" fill="#fff"/></g><g transform="translate(269.523 583.287)"><path d="M315.633,621.922c0,1.681,2.765,4.1,6.213,4.1,4.208,0,6.742-2.443,6.742-5.034s-3.642-4.326-6.715-3.755C318.486,617.858,315.633,620.074,315.633,621.922Z" transform="translate(-315.625 -616.7)" fill="#fff"/><path d="M318.849,622.046a4.546,4.546,0,0,0,1.992,3.764,7.767,7.767,0,0,0,5.276-.113,4.552,4.552,0,1,0-7.269-3.652Z" transform="translate(-316.915 -616.849)" fill="#452829"/><path d="M328.514,621.445a3.423,3.423,0,0,0-.838-2.438,6.667,6.667,0,0,0-5.254-1.682,10.833,10.833,0,0,0-2.968.806,10.177,10.177,0,0,0-2.343,1.36,4.642,4.642,0,0,0-1.253,1.438,2.443,2.443,0,0,0-.231.709,2.547,2.547,0,0,1,.059-.77,4.107,4.107,0,0,1,1.066-1.765,8.09,8.09,0,0,1,2.37-1.7,10.259,10.259,0,0,1,3.22-.971c2.328-.152,4.708.755,5.727,2.267a3.182,3.182,0,0,1,.571,1.992A4.264,4.264,0,0,1,328.514,621.445Z" transform="translate(-315.62 -616.417)" fill="#452829"/><path d="M321.254,624.477a2.9,2.9,0,1,0,2.9-2.9A2.9,2.9,0,0,0,321.254,624.477Z" transform="translate(-317.879 -618.486)" fill="#331e1d"/><path d="M323.27,623.313a1.294,1.294,0,1,1-1.294-1.3A1.292,1.292,0,0,1,323.27,623.313Z" transform="translate(-317.65 -618.663)" fill="#fff"/><path d="M323.582,620.578a.425.425,0,1,0,.424-.426A.425.425,0,0,0,323.582,620.578Z" transform="translate(-318.813 -617.915)" fill="#fff"/></g><path d="M261.8,610.059s2.98-3.973,10.393-4.277a40.775,40.775,0,0,1,5.159.056c.843.115.8-3.475.243-3.532s-5.6-.455-7.889.074A10.616,10.616,0,0,0,261.8,610.059Z" transform="translate(-24.516 -27.394)" fill="#341e13"/><path d="M329.431,611.713s-3.059-4.086-10.4-4.684a40.029,40.029,0,0,0-5.1-.144c-.831.083-.892-3.509-.338-3.544s5.523-.235,7.8.385A11.581,11.581,0,0,1,329.431,611.713Z" transform="translate(-45.139 -27.865)" fill="#341e13"/><path d="M251.711,633.709c.448,2.35,2.009,8.087,0,11.038,2.36,11.759,12.074,27.4,30.8,27.4,14.136,0,24.7-6.97,31.146-25.367-1.473-1.728-1.977-10.614-1.586-13.072,0,0-.4-3-1.637-.375-1.5,3.174-1.343,12.084-7.4,14.567-4.511,1.848-14.091-2.237-21.708-2.237-6.176,0-15.082,3.943-19.645,1.794-5.931-2.8-6.767-12.026-7.771-13.982C252.125,630.018,251.711,633.709,251.711,633.709Z" transform="translate(-20.473 -39.377)" fill="#341e13"/><path d="M302.247,645.676a3.556,3.556,0,0,1-2.973,1.583,5.884,5.884,0,0,1-3.681-.943c-.3-.336,2-4.4,2-4.4s-1.073,2.841-.588,3.544,1.809.691,2.436.691A5.864,5.864,0,0,0,302.247,645.676Z" transform="translate(-38.057 -43.353)" fill="#e1bd94" style="mix-blend-mode:multiply;isolation:isolate"/><path d="M305.441,668.192a16.419,16.419,0,0,0,.277-3.026H289.066a16.675,16.675,0,0,0,.25,2.884c.1.534,3.019,2.009,3.642,1.554,2.972-2.184,5.935-2.176,8.68,0C302.3,670.133,305.351,668.675,305.441,668.192Z" transform="translate(-35.45 -52.676)" fill="#f9ab78"/><path d="M264.749,713.162s7.857,7.406,22.713,7.406,21.125-7.406,21.125-7.406l-5.651-8.039s-5.651,4.475-16.229,4.475-15.241-3.458-15.241-3.458Z" transform="translate(-25.7 -68.697)" fill="#dadada"/><rect width="5.443" height="51.512" transform="translate(257.757 649.034)" fill="#dadada"/><g transform="translate(230.853 581.439)"><path d="M265.366,613.332c-11.617,0-14.3,2.221-14.3,5.092,0,4.024,3.274,13.141,11.17,13.141,16.082,0,17.425-10.055,17.425-13.141C279.663,615.432,276.536,613.332,265.366,613.332Zm-2.446,16.246c-6.176,0-8.735-7.129-8.735-10.276,0-2.248,2.1-3.985,11.181-3.985,8.734,0,11.178,1.644,11.178,3.985C276.544,621.716,275.5,629.578,262.92,629.578Z" transform="translate(-251.068 -613.332)" fill="#353e44"/><path d="M305.9,618.424c0,3.086,1.343,13.141,17.424,13.141,7.9,0,11.17-9.116,11.17-13.141,0-2.872-2.681-5.092-14.3-5.092C309.026,613.332,305.9,615.432,305.9,618.424Zm3.12.878c0-2.34,2.445-3.985,11.178-3.985,9.082,0,11.18,1.737,11.18,3.985,0,3.147-2.561,10.276-8.734,10.276C310.063,629.578,309.017,621.716,309.017,619.3Z" transform="translate(-273.052 -613.332)" fill="#353e44"/><path d="M297.4,623.49c1.49-1.4,3.74-1.586,4.8.117s1.306-3.926,1.306-3.926h-7.546S295.909,624.894,297.4,623.49Z" transform="translate(-269.069 -615.878)" fill="#353e44"/></g><path d="M233.931,579.635c0-17.109,5.237-45.846,40.734-45.846,37.324,0,40.736,28.737,40.736,45.846H300.1s-.642-4.879-4.911-4.879H255.235c-7.495,0-8.274,4.879-8.274,4.879Z" transform="translate(-13.344)" fill="#a30c14"/><path d="M349.72,673.181l14.6,3.247-4.84-69.4-15.606-4.919S346.589,647.951,349.72,673.181Z" transform="translate(-57.428 -27.394)" fill="#a30c14"/><path d="M247.73,673.669l-14.65,2.064.51-67.5,13-3.12S250.865,648.439,247.73,673.669Z" transform="translate(-13.002 -28.598)" fill="#a30c14"/><g transform="translate(220.078 533.789)"><rect width="6.382" height="6.382" transform="translate(58.153 17.66)" fill="none"/><rect width="6.382" height="6.381" transform="translate(58.153 25.515)" fill="none"/><rect width="6.382" height="6.381" transform="translate(58.153 33.369)" fill="none"/><rect width="6.382" height="6.381" transform="translate(42.446 25.515)" fill="none"/><rect width="6.382" height="6.382" transform="translate(66.008 17.66)" fill="none"/><rect width="6.382" height="6.381" transform="translate(66.008 33.369)" fill="none"/><rect width="6.382" height="6.381" transform="translate(66.008 25.515)" fill="none"/><rect width="6.382" height="6.381" transform="translate(50.301 25.515)" fill="none"/><rect width="6.382" height="6.382" transform="translate(42.446 9.808)" fill="none"/><path d="M235,641.932h-1.341l-.049,6.382H235Z" transform="translate(-233.292 -577.15)" fill="none"/><rect width="6.382" height="6.382" transform="translate(50.301 9.808)" fill="none"/><rect width="6.382" height="6.382" transform="translate(42.446 17.66)" fill="none"/><rect width="6.382" height="6.381" transform="translate(50.301 33.369)" fill="none"/><rect width="6.382" height="6.382" transform="translate(50.301 17.66)" fill="none"/><rect width="6.382" height="6.382" transform="translate(58.153 9.808)" fill="none"/><path d="M234.8,708.7h-1.639l-.052,6.624H234.8Z" transform="translate(-233.09 -603.92)" fill="none"/><rect width="6.382" height="6.381" transform="translate(73.862 33.369)" fill="none"/><path d="M234.837,695.182h-1.581l-.049,6.627h1.63Z" transform="translate(-233.131 -598.501)" fill="none"/><path d="M234.96,655.044h-1.4l-.047,6.382h1.446Z" transform="translate(-233.254 -582.407)" fill="none"/><path d="M234.878,681.669h-1.522l-.046,6.624h1.568Z" transform="translate(-233.172 -593.083)" fill="none"/><rect width="6.382" height="6.384" transform="translate(73.862 41.221)" fill="none"/><path d="M234.919,668.156H233.46l-.049,6.622h1.507Z" transform="translate(-233.213 -587.664)" fill="none"/><rect width="6.382" height="6.382" transform="translate(73.862 72.637)" fill="none"/><rect width="6.382" height="6.624" transform="translate(73.862 88.587)" fill="none"/><rect width="6.382" height="6.627" transform="translate(73.862 96.681)" fill="none"/><rect width="6.382" height="6.622" transform="translate(73.862 80.492)" fill="none"/><rect width="6.382" height="6.384" transform="translate(73.862 56.928)" fill="none"/><rect width="6.382" height="6.382" transform="translate(73.862 49.078)" fill="none"/><rect width="6.382" height="6.382" transform="translate(73.862 64.783)" fill="none"/><rect width="6.382" height="6.624" transform="translate(73.862 104.778)" fill="none"/><rect width="6.382" height="6.377" transform="translate(42.446 1.956)" fill="none"/><rect width="6.382" height="6.384" transform="translate(3.179 41.221)" fill="none"/><rect width="6.382" height="6.382" transform="translate(3.179 49.078)" fill="none"/><rect width="6.382" height="6.382" transform="translate(11.031 17.66)" fill="none"/><rect width="6.382" height="6.381" transform="translate(3.179 33.369)" fill="none"/><rect width="6.382" height="6.381" transform="translate(11.031 25.515)" fill="none"/><rect width="6.382" height="6.381" transform="translate(11.031 33.369)" fill="none"/><rect width="6.382" height="6.382" transform="translate(3.179 64.783)" fill="none"/><rect width="6.382" height="6.384" transform="translate(3.179 56.928)" fill="none"/><rect width="6.382" height="6.624" transform="translate(3.179 104.778)" fill="none"/><rect width="6.382" height="6.627" transform="translate(3.179 96.681)" fill="none"/><path d="M234.785,722.22h-1.7l0,.468s.615-.088,1.705-.24Z" transform="translate(-233.08 -609.342)" fill="none"/><rect width="6.382" height="6.624" transform="translate(3.179 88.587)" fill="none"/><rect width="6.382" height="6.381" transform="translate(42.446 33.369)" fill="none"/><rect width="6.382" height="6.382" transform="translate(3.179 72.637)" fill="none"/><rect width="6.382" height="6.622" transform="translate(3.179 80.492)" fill="none"/><rect width="6.381" height="6.381" transform="translate(34.592 25.515)" fill="none"/><rect width="6.381" height="6.381" transform="translate(34.592 33.369)" fill="none"/><rect width="6.381" height="6.382" transform="translate(26.74 9.808)" fill="none"/><rect width="6.381" height="6.377" transform="translate(26.74 1.956)" fill="none"/><rect width="6.381" height="6.382" transform="translate(34.592 17.66)" fill="none"/><rect width="6.381" height="6.377" transform="translate(34.592 1.956)" fill="none"/><rect width="6.377" height="6.381" transform="translate(18.888 33.369)" fill="none"/><rect width="6.381" height="6.382" transform="translate(34.592 9.808)" fill="none"/><rect width="6.381" height="6.382" transform="translate(26.74 17.66)" fill="none"/><rect width="6.377" height="6.382" transform="translate(18.888 17.66)" fill="none"/><rect width="6.377" height="6.381" transform="translate(18.888 25.515)" fill="none"/><rect width="6.377" height="6.382" transform="translate(18.888 9.808)" fill="none"/><rect width="6.381" height="6.381" transform="translate(26.74 25.515)" fill="none"/><rect width="6.381" height="6.381" transform="translate(26.74 33.369)" fill="none"/><path d="M351.347,655.044H347.5q.239,3.148.5,6.382h3.35Z" transform="translate(-278.957 -582.407)" fill="none"/><path d="M369.488,715.323h4.838l-.463-6.624h-4.375Z" transform="translate(-287.774 -603.92)" fill="none"/><path d="M369.488,723.452c3.137.7,5.105,1.135,5.105,1.135l-.167-2.367h-4.939Z" transform="translate(-287.774 -609.342)" fill="none"/><path d="M353.253,708.7h-1c.247,2.318.5,4.538.752,6.624h.247Z" transform="translate(-280.863 -603.92)" fill="none"/><path d="M360.222,722.22c1.47.326,2.842.632,4.081.9v-.9Z" transform="translate(-284.058 -609.342)" fill="none"/><path d="M351.758,668.156h-3.232c.176,2.2.362,4.416.553,6.622h2.679Z" transform="translate(-279.369 -587.664)" fill="none"/><path d="M352.706,695.182H350.89c.216,2.267.436,4.482.66,6.627h1.157Z" transform="translate(-280.317 -598.501)" fill="none"/><path d="M352.214,681.669h-2.551c.191,2.233.392,4.445.6,6.624h1.953Z" transform="translate(-279.825 -593.083)" fill="none"/><path d="M369.488,674.778h3.142l-.461-6.622h-2.681Z" transform="translate(-287.774 -587.664)" fill="none"/><path d="M369.488,648.314h2.029l-.446-6.382h-1.583Z" transform="translate(-287.774 -577.15)" fill="none"/><path d="M369.488,635.2h1.483l-.443-6.384h-1.039Z" transform="translate(-287.774 -571.893)" fill="none"/><path d="M369.488,622.1h.936l-.446-6.382h-.49Z" transform="translate(-287.774 -566.639)" fill="none"/><path d="M369.488,701.809h4.272l-.461-6.627h-3.811Z" transform="translate(-287.774 -598.501)" fill="none"/><path d="M369.488,688.293h3.706l-.461-6.624h-3.245Z" transform="translate(-287.774 -593.083)" fill="none"/><path d="M350.956,641.932h-4.431c.149,2.064.306,4.2.471,6.382h3.96Z" transform="translate(-278.567 -577.15)" fill="none"/><path d="M369.488,661.426h2.578l-.446-6.382h-2.132Z" transform="translate(-287.774 -582.407)" fill="none"/><path d="M338.777,602.6a4.134,4.134,0,0,1,1.218.667V602.6Z" transform="translate(-275.46 -561.38)" fill="none"/><path d="M251.494,674.778h4.764c-.01-2.21-.037-4.426-.083-6.622h-4.681Z" transform="translate(-240.463 -587.664)" fill="none"/><path d="M251.494,648.314h4.387c-.091-2.194-.2-4.328-.3-6.382h-4.082Z" transform="translate(-240.463 -577.15)" fill="none"/><path d="M251.494,688.293h4.686c.054-2.184.078-4.4.081-6.624h-4.767Z" transform="translate(-240.463 -593.083)" fill="none"/><path d="M251.494,661.426h4.647c-.054-2.16-.123-4.292-.2-6.382h-4.446Z" transform="translate(-240.463 -582.407)" fill="none"/><path d="M238.386,722.242c.052-.01.1-.017.157-.022h-.157Z" transform="translate(-235.207 -609.342)" fill="none"/><path d="M251.494,701.809h4.342c.137-2.147.233-4.362.3-6.627h-4.644Z" transform="translate(-240.463 -598.501)" fill="none"/><path d="M251.494,715.323h2.769c.279-.042.564-.081.85-.12.258-2.058.463-4.235.625-6.5h-4.244Z" transform="translate(-240.463 -603.92)" fill="none"/><path d="M350.238,615.717h-5.5c.12,1.877.262,4.024.422,6.382h5.083Z" transform="translate(-277.848 -566.639)" fill="none"/><path d="M349.65,602.6h-6.382v2.534a7.4,7.4,0,0,1,.669,2.079c.035.544.074,1.147.113,1.771h5.6Z" transform="translate(-277.261 -561.38)" fill="none"/><path d="M251.494,635.205h4c-.125-2.257-.259-4.395-.392-6.384h-3.607Z" transform="translate(-240.463 -571.893)" fill="none"/><path d="M350.587,628.821H345.6c.137,2,.287,4.144.446,6.384h4.537Z" transform="translate(-278.197 -571.893)" fill="none"/><path d="M369.488,608.985h.387l-.122-1.759c0-1.463-.029-3.017-.1-4.625h-.169Z" transform="translate(-287.774 -561.38)" fill="none"/><path d="M251.494,622.1H255c-.169-2.414-.331-4.564-.478-6.382h-3.029Z" transform="translate(-240.463 -566.639)" fill="none"/><path d="M251.494,602.6v6.384H254.4c-.074-.917-.145-1.732-.206-2.4a6.221,6.221,0,0,1,3.681-3.492V602.6Z" transform="translate(-240.463 -561.38)" fill="none"/><path d="M264.61,602.643c.064-.015.129-.027.2-.042h-.2Z" transform="translate(-245.722 -561.38)" fill="none"/><path d="M244.768,582.763v-6.381H238.66c-.1.294-.186.588-.274.882v5.5Z" transform="translate(-235.207 -550.867)" fill="none"/><path d="M310.319,534.289v-.025a62.26,62.26,0,0,0-6.382-.427v.451Z" transform="translate(-261.491 -533.809)" fill="none"/><path d="M297.207,534.276v-.47a57.106,57.106,0,0,0-6.382.365v.105Z" transform="translate(-256.233 -533.796)" fill="none"/><path d="M235.284,589.494H235.1c-.374,2.176-.62,4.318-.779,6.381h.96Z" transform="translate(-233.579 -556.124)" fill="none"/><path d="M257.876,556.544v-6.382h-4.451c-.681.647-1.32,1.321-1.931,2.015v4.367Z" transform="translate(-240.463 -540.354)" fill="none"/><path d="M235.078,615.717h-1.223l-.047,6.382h1.27Z" transform="translate(-233.372 -566.639)" fill="none"/><path d="M260.277,544.251a32.155,32.155,0,0,0-2.794,2.065h2.794Z" transform="translate(-242.865 -537.984)" fill="none"/><path d="M247.843,556.532q-.955,1.249-1.786,2.566h1.786Z" transform="translate(-238.283 -542.908)" fill="none"/><path d="M270.987,543.756v-5.892a35.1,35.1,0,0,0-6.377,2.911v2.98Z" transform="translate(-245.722 -535.423)" fill="none"/><path d="M317.049,543.431h6.382V537.15c-.1-.03-.2-.066-.3-.1h-6.083Z" transform="translate(-266.748 -535.098)" fill="none"/><path d="M245.292,563.27h-2.664a41.731,41.731,0,0,0-2.934,6.382h5.6Z" transform="translate(-235.732 -545.61)" fill="none"/><path d="M235.117,602.6h-1.061c-.093,1.608-.135,3.161-.135,4.625l-.015,1.759h1.211Z" transform="translate(-233.411 -561.38)" fill="none"/><path d="M357.924,559.27q-.721-1.183-1.544-2.309v2.309Z" transform="translate(-282.518 -543.08)" fill="none"/><path d="M356.38,569.652h5.139a39.855,39.855,0,0,0-2.754-6.382H356.38Z" transform="translate(-282.518 -545.61)" fill="none"/><path d="M356.38,582.763h6.382v-3.424c-.231-.987-.486-1.975-.777-2.957H356.38Z" transform="translate(-282.518 -550.867)" fill="none"/><path d="M343.268,556.544h6.382v-4.181a28.9,28.9,0,0,0-2.061-2.2h-4.321Z" transform="translate(-277.261 -540.354)" fill="none"/><path d="M369.578,599.242c-.027-.446-.056-.894-.09-1.35v1.35Z" transform="translate(-287.774 -559.492)" fill="none"/><path d="M345.942,546.377a31.142,31.142,0,0,0-2.674-1.975v1.975Z" transform="translate(-277.261 -538.044)" fill="none"/><path d="M336.538,543.818v-2.891a34.83,34.83,0,0,0-6.382-2.907v5.8Z" transform="translate(-272.003 -535.485)" fill="none"/><path d="M235.04,628.821h-1.282l-.044,6.384h1.326Z" transform="translate(-233.334 -571.893)" fill="none"/><path d="M234.787,646.895c.419-.061.917-.13,1.473-.206v-.022h.157c2.494-.353,6.207-.878,10.465-1.475h-2.769v-6.624h4.244c.035-.483.066-.976.1-1.471h-4.342V630.47h4.644c.017-.488.032-.978.042-1.471h-4.686v-6.624h4.767c0-.488,0-.982,0-1.473h-4.764v-6.622h4.681c-.01-.492-.02-.982-.034-1.472h-4.647v-6.382h4.445c-.02-.49-.039-.982-.059-1.472h-4.387v-6.382h4.082c-.027-.495-.053-.982-.083-1.47h-4v-6.384h3.607c-.035-.5-.066-.988-.1-1.468h-3.507v-6.382h3.029c-.039-.522-.081-1.012-.122-1.473h-2.907V575.01h6.382v.488a9.043,9.043,0,0,1,1.475-.446v-.042h.2a13.851,13.851,0,0,1,2.73-.255h39.951a4.732,4.732,0,0,1,1.552.255h1.218v.667a5.34,5.34,0,0,1,1.472,1.867V575.01h6.382v6.384h-5.6c.03.471.064.961.1,1.473h5.5v6.382h-5.083c.034.483.066.971.1,1.468h4.983V597.1h-4.537c.037.488.074.975.105,1.47h4.431v6.382h-3.96c.037.49.073.982.113,1.472h3.848v6.382h-3.35c.04.49.078.982.118,1.472h3.232V620.9h-2.679c.039.5.083.985.128,1.473h2.551V629h-1.953c.044.492.09.983.137,1.471h1.816V637.1h-1.157c.052.495.1.985.157,1.471h1v6.624h-.247c.026.2.051.4.073.6l3.948.88h4.081v.9c.515.115,1,.223,1.47.328v-1.232h4.939l-.1-1.475H314.8v-6.624h4.375l-.1-1.471H314.8V630.47h3.811L318.5,629H314.8v-6.624h3.245l-.1-1.473H314.8v-6.622h2.681l-.1-1.472H314.8v-6.382h2.132l-.1-1.472H314.8v-6.382h1.583l-.1-1.47H314.8v-6.384h1.039l-.1-1.468H314.8v-6.382h.49l-.1-1.473H314.8V575.01h.169c-.022-.485-.046-.975-.078-1.471h-.09v-1.35a65.94,65.94,0,0,0-1.47-9.928v3.424h-6.382V559.3h5.605c-.147-.493-.3-.985-.466-1.473h-5.139v-6.382h2.385q-.4-.743-.84-1.471h-1.544V547.67q-.7-.959-1.472-1.872v4.181h-6.382V543.6h4.321c-.525-.507-1.073-1-1.647-1.475h-2.674v-1.975c-.475-.316-.967-.62-1.472-.917v2.892h-6.382v-5.8c-.482-.167-.967-.331-1.47-.483v6.281h-6.382v-6.377h6.083a47.544,47.544,0,0,0-7.556-1.5v.025h-6.382v-.451c-.4-.007-.791-.029-1.2-.029-.093,0-.177,0-.27.01v.47h-6.382v-.105a43.863,43.863,0,0,0-9.327,2.066v5.892h-6.377v-2.98c-.5.294-1,.6-1.475.915v2.066H247.7c-.573.478-1.127.968-1.657,1.475h4.451v6.382h-6.382v-4.367c-.515.585-1,1.186-1.471,1.8v2.566h-1.786c-.307.485-.6.975-.878,1.471h2.664v6.382h-5.6c-.182.488-.348.98-.51,1.473h6.107v6.381H236.26v-5.5a55.662,55.662,0,0,0-1.655,6.973h.182v6.381h-.96q-.059.743-.1,1.471h1.061v6.384h-1.211l-.012,1.473h1.223v6.382h-1.269l-.012,1.468h1.281V597.1h-1.326l-.015,1.47h1.341v6.382H233.4l-.01,1.472h1.4v6.382h-1.445l-.013,1.472h1.458V620.9H233.28l-.014,1.473h1.522V629h-1.568l-.012,1.471h1.58V637.1h-1.629l-.01,1.471h1.639v6.624H233.1l-.012,1.475h1.7Zm72.157-79.736h6.382v6.381h-6.382Zm0,7.852h6.382v6.384h-6.382Zm0,7.857h6.382v6.382h-6.382Zm0,7.85h6.382V597.1h-6.382Zm0,7.854h6.382v6.382h-6.382Zm0,7.855h6.382v6.382h-6.382Zm0,7.855h6.382V620.9h-6.382Zm0,8.095h6.382V629h-6.382Zm0,8.095h6.382V637.1h-6.382Zm0,8.1h6.382v6.624h-6.382Zm-7.855-87.118h6.382v6.382h-6.382Zm0,7.855h6.382v6.381h-6.382Zm0,7.855h6.382v6.381h-6.382ZM291.234,543.6h6.382v6.382h-6.382Zm0,7.852h6.382v6.382h-6.382Zm0,7.855h6.382v6.381h-6.382Zm0,7.855h6.382v6.381h-6.382ZM283.383,543.6h6.382v6.382h-6.382Zm0,7.852h6.382v6.382h-6.382Zm0,7.855h6.382v6.381h-6.382Zm0,7.855h6.382v6.381h-6.382Zm-7.855-31.414h6.382v6.377h-6.382Zm0,7.852h6.382v6.382h-6.382Zm0,7.852h6.382v6.382h-6.382Zm0,7.855h6.382v6.381h-6.382Zm0,7.855h6.382v6.381h-6.382Zm-7.855-31.414h6.382v6.377h-6.382Zm0,7.852h6.382v6.382h-6.382Zm0,7.852h6.382v6.382h-6.382Zm0,7.855h6.382v6.381h-6.382Zm0,7.855h6.382v6.381h-6.382Zm-7.852-31.414H266.2v6.377h-6.381Zm0,7.852H266.2v6.382h-6.381Zm0,7.852H266.2v6.382h-6.381Zm0,7.855H266.2v6.381h-6.381Zm0,7.855H266.2v6.381h-6.381ZM251.969,543.6h6.377v6.382h-6.377Zm0,7.852h6.377v6.382h-6.377Zm0,7.855h6.377v6.381h-6.377Zm0,7.855h6.377v6.381h-6.377Zm-7.857-15.709h6.382v6.382h-6.382Zm0,7.855h6.382v6.381h-6.382Zm0,7.855h6.382v6.381h-6.382Zm-7.852,0h6.382v6.381H236.26Zm0,7.852h6.382v6.384H236.26Zm0,7.857h6.382v6.382H236.26Zm0,7.85h6.382V597.1H236.26Zm0,7.854h6.382v6.382H236.26Zm0,7.855h6.382v6.382H236.26Zm0,7.855h6.382V620.9H236.26Zm0,8.095h6.382V629H236.26Zm0,8.095h6.382V637.1H236.26Zm0,8.1h6.382v6.624H236.26Z" transform="translate(-233.082 -533.789)" fill="#a97e95" style="mix-blend-mode:multiply;isolation:isolate"/></g><path d="M313.872,584.658H234.186c-2.669,0-.62-3.152.385-6.3-1.085-2.779.961-6.3,2.809-6.3h74.227c1.811,0,3.215,4.061,1.809,6.3C313.967,581.507,315.626,584.658,313.872,584.658Z" transform="translate(-12.918 -15.344)" fill="#272228"/></g></g></g></svg>