<svg xmlns="http://www.w3.org/2000/svg" width="129.703" height="129.983" viewBox="0 0 129.703 129.983"><g transform="translate(1035.351 -2328.8)"><path d="M198.689,1000.529c1.28.519,2.577,1,3.832,1.577a10.411,10.411,0,0,1,1.563,1.121l-2.874,3.291c-1.889-1.573-4.054-1.677-6.281-1.673q-22.458.033-44.916.014c-3.7,0-6.214,1.747-7,5a22.269,22.269,0,0,0-.27,3.616h34.577v4.387h-34.43v11.476c1.118-.154,2.221-.326,3.329-.451.74-.083.828-.533.819-1.151-.024-1.81-.008-3.622-.008-5.517h4.38v6.38c15,2.419,23.629,11.036,26.068,26h6.358v4.429h-6.348c-2.369,14.964-10.942,23.616-25.98,26.048v6.377h-4.479q0-2.381,0-4.767c0-1.737-.012-1.673-1.7-1.953-10.114-1.679-17.511-7.078-21.735-16.443-1.175-2.606-1.617-5.554-2.276-8.373-.172-.74-.463-.861-1.082-.855-1.816.017-3.632.006-5.57.006v-4.431h6.142c.849-2.982,1.416-5.849,2.475-8.52a27.066,27.066,0,0,1,14.06-14.782,1.5,1.5,0,0,0,1.022-1.6c-.036-5.836-.024-11.671-.017-17.506.005-3.941,1.263-7.358,4.625-9.616a28.262,28.262,0,0,1,4.7-2.073Zm-56.6,60.2c-4.708-5.894-4.9-11.343-.613-15.834a10.867,10.867,0,0,1,14.111-1.255,10.656,10.656,0,0,1,4.23,6.41c.928,4.188-.473,7.692-3.465,10.684,5.489,3.237,8.08,7.995,8.126,14.391a24,24,0,0,0,8.41-16.052h-4.06v-4.5h3.963c-.692-11.743-11.442-21.047-21.366-21.2v3.9h-4.41v-3.929c-10.444.386-20.646,9.853-21.33,21.3h4.123c0,1.316.055,2.495-.04,3.663a1.163,1.163,0,0,1-.847.719c-1.079.089-2.17.034-3.337.034a23.991,23.991,0,0,0,8.3,15.942C135.04,1066.925,136.318,1064.717,142.088,1060.726Zm9.4,19.918c1.854-.439,3.594-.739,5.261-1.267,3.407-1.079,3.4-1.13,3.322-4.688-.088-4.11-1.588-7.541-5.2-9.683a10.715,10.715,0,0,0-16.38,9.1c-.138,4.287-.1,4.388,4.036,5.549,1.425.4,2.905.61,4.536.943v-4.2h4.429Zm-2.3-21.719a6.442,6.442,0,0,0,6.519-6.367,6.532,6.532,0,0,0-6.4-6.523,6.458,6.458,0,0,0-6.483,6.408A6.365,6.365,0,0,0,149.188,1058.925Z" transform="translate(-1143.426 1328.271)" fill="#ec663b"/><path d="M244.728,1058.22c-2.457,2.992-4.837,6.051-7.386,8.963q-11.82,13.5-23.754,26.911a5.1,5.1,0,0,0-1.278,2.639,15.159,15.159,0,0,1-15.437,12.961c-4.652.021-9.3.008-13.956,0-1.593,0-2.54-.535-2.826-1.636-.349-1.343.4-2.152,1.455-2.788a5.747,5.747,0,0,0,2.775-5.344c-.013-2.955-.156-5.929,1.029-8.736a15.054,15.054,0,0,1,12.5-9.625,2.48,2.48,0,0,0,1.239-.486c3.853-3.363,7.68-6.758,11.351-10v-22.03h4.289v18.218c1.5-1.307,2.785-2.424,4.065-3.55,4.7-4.136,9.491-8.165,14.052-12.445,4.172-3.916,10.008-2.327,11.68,2.014.021.055.131.075.2.112Zm-34.376,32.925q8.571-9.706,17.126-19.393c4.027-4.563,8.078-9.1,12.04-13.723a3.812,3.812,0,0,0,.962-2.565c-.265-2.225-2.638-2.7-4.548-1.016q-13.789,12.159-27.577,24.319c-1.858,1.639-3.708,3.289-5.489,4.869Zm-22.77,13.935a2.151,2.151,0,0,0,.464.139c3.38-.008,6.762.055,10.139-.054a10.539,10.539,0,0,0,9.746-9.052,1.813,1.813,0,0,0-.4-1.307c-2.775-2.841-5.591-5.642-8.419-8.431a1.385,1.385,0,0,0-.956-.4,10.811,10.811,0,0,0-9.335,9.531C188.481,1098.7,189.31,1102.045,187.582,1105.081Z" transform="translate(-1150.376 1323.111)" fill="#ec663b"/><path d="M215.78,1010.192q11.484,0,22.969,0c2.244,0,2.943.705,2.944,2.954q0,12.244,0,24.487c0,2.2-.757,2.961-2.971,2.961q-23.033.007-46.065,0c-2.18,0-2.979-.812-2.981-2.989q-.005-12.181,0-24.361c0-2.326.718-3.054,3.01-3.054Q204.231,1010.189,215.78,1010.192Zm-21.617,4.424v21.415h43.122v-21.415Z" transform="translate(-1151.404 1327.243)" fill="#ec663b"/><path d="M137.547,1097.479h4.43v10.814h1.471q6.532,0,13.065,0c2.061,0,2.8.748,2.8,2.839q.008,7.8,0,15.6c0,2.615-.651,3.257-3.32,3.259q-9.45.005-18.9,0-13.191,0-26.385,0c-2.842,0-3.417-.577-3.417-3.4q0-7.737,0-15.473c0-2.088.734-2.821,2.809-2.821q12.939-.005,25.878,0h1.565Zm-25.816,15.206v12.783h43.148v-12.783Z" transform="translate(-1142.642 1317.959)" fill="#ec663b"/><path d="M142.967,1136.805l3.592-2.1c.475.524.894,1.049,1.376,1.507a6.819,6.819,0,0,0,4.886,1.74q23.281.025,46.562.01c4.354,0,7.134-3.114,6.968-7-.083-1.932-.014-3.87-.014-5.929H167.5v-4.388h38.832v-5.024c0-4.19,0-4.19,4.4-3.59.021.414.063.858.063,1.3,0,5.75-.038,11.5.013,17.252.066,7.5-5.544,11.81-11.764,11.75-15.562-.15-31.125-.044-46.689-.054a10.605,10.605,0,0,1-9.12-4.82,2.11,2.11,0,0,1-.192-.323A1.928,1.928,0,0,1,142.967,1136.805Z" transform="translate(-1146.436 1316.441)" fill="#ec663b"/><path d="M120.374,1010.192c3.383,0,6.767-.006,10.149,0,1.963.005,2.82.792,2.831,2.74q.044,8.118,0,16.237c-.01,1.869-.865,2.749-2.715,2.757q-10.34.044-20.68,0c-1.88-.008-2.66-.877-2.663-2.767q-.012-8.118,0-16.236c0-1.959.794-2.725,2.8-2.729C113.523,1010.186,116.948,1010.192,120.374,1010.192Zm8.464,4.438h-17.1v12.782h17.1Z" transform="translate(-1142.642 1327.243)" fill="#ec663b"/><path d="M181.931,1131.505v4.179h-4.288v-4.179Z" transform="translate(-1150.125 1314.34)" fill="#ec663b"/><path d="M234.05,1029.627v4.281h-34.7c0-1.129-.005-2.177,0-3.224,0-.328.045-.656.074-1.057Z" transform="translate(-1152.433 1325.176)" fill="#ec663b"/><path d="M213.944,1024.192v-4.21h21.6v4.21Z" transform="translate(-1153.986 1326.202)" fill="#ec663b"/><path d="M208.075,1019.99v4.189H199.4v-4.189Z" transform="translate(-1152.439 1326.201)" fill="#ec663b"/><path d="M153.454,1119.34v4.2H134.078v-4.2Z" transform="translate(-1145.491 1315.634)" fill="#ec663b"/><path d="M127.8,1119.333v4.168H117.056v-4.168Z" transform="translate(-1143.68 1315.635)" fill="#ec663b"/><path d="M117.008,1019.932h8.626v4.272h-8.626Z" transform="translate(-1143.675 1326.207)" fill="#ec663b"/></g></svg>