<svg xmlns="http://www.w3.org/2000/svg" width="169.611" height="104.783" viewBox="0 0 169.611 104.783"><g transform="translate(-805.186 -420.058)"><path d="M974.8,469.462a7,7,0,0,1-4.642,4.095c-3.775,1.366-7.492,2.9-11.206,4.427-2.151.885-4.145.937-6.077-.546a1.4,1.4,0,0,0-1.267-.082c-2.945,1.827-5.848,3.722-8.744,5.585,2.947,7.442-2.79,15.313-11.669,13.974a10.284,10.284,0,0,1-3.863,7,9.979,9.979,0,0,1-7.747,1.958c-2.826,8.5-5.386,10.252-13.584,9.307-.938,4.5-3.566,7.482-8.151,8.448-4.658.982-7.979-1.741-11.392-4.474-.693.778-1.355,1.5-1.988,2.24a8.82,8.82,0,0,1-9.181,3.176,8.71,8.71,0,0,1-6.866-7.039c-.1-.427-.555-1.08-.878-1.1-5.408-.338-8.427-3.293-9.418-8.461-6.09-.557-9.072-3.126-9.944-8.514-8.8-1.272-11.658-5.778-8.758-14.159-2.407-1.532-4.861-3.1-7.317-4.658-.838-.533-1.712-1.013-2.512-1.6-1.371-1-2.616-1.633-4.445-.72a4.994,4.994,0,0,1-3.473-.2c-4.393-1.6-8.736-3.345-13.073-5.1a5.1,5.1,0,0,1-2.986-6.91q8.37-21.277,16.807-42.527c1.241-3.126,3.968-4.267,7.128-3.042,4.206,1.629,8.4,3.3,12.6,4.949a5.447,5.447,0,0,1,3.793,5.438,1.607,1.607,0,0,0,.792,1.147,22.3,22.3,0,0,0,9.826,2.366c6.921.1,13.912-.032,20.642,2.157a2.288,2.288,0,0,0,1.572-.44,6.977,6.977,0,0,0,1.312-1.254,13.337,13.337,0,0,1,13.075-4.115c2.485.484,5,.835,7.494,1.243,1.807.294,2.727,1.286,2.594,2.8-.132,1.5-1.28,2.381-3.1,2.156q-3.932-.486-7.834-1.2a8.862,8.862,0,0,0-8.581,2.579A140.387,140.387,0,0,1,861.4,457c-1.675,1.112-1.678,1.928-.108,3.19,2.792,2.245,5.921,2.442,9.221,1.467,4.5-1.329,8.142-4.087,11.632-7.075,3.251-2.784,5.972-2.711,9,.247,7.163,7,15.634,10.012,25.648,8.531a4.419,4.419,0,0,1,2.826.978c6.653,4.825,13.248,9.729,19.97,14.69,3.32-2.129,6.671-4.235,9.948-6.451.291-.2.292-1.181.1-1.672-2.582-6.671-5.225-13.318-7.848-19.973-1.873-4.752-3.74-9.507-5.681-14.446-1.6.572-3.125,1-4.551,1.656A24.386,24.386,0,0,1,915.4,439.5c-1.07-.248-2.175-.341-3.258-.536a2.5,2.5,0,0,1-2.292-2.886,2.319,2.319,0,0,1,2.844-2.067c1.97.2,3.936.495,5.88.873a15.678,15.678,0,0,0,9.242-.764c1.015-.422,2.076-.732,3.1-1.128,1.7-.657,3.657-.831,3.446-3.633-.127-1.687,1.358-2.95,3-3.606,4.5-1.8,8.993-3.6,13.519-5.322a4.977,4.977,0,0,1,6.574,2.8c2.222,5.452,4.349,10.944,6.48,16.433a2.513,2.513,0,0,1-1.292,3.452c-1.381.582-2.74-.049-3.405-1.706-1.907-4.749-3.766-9.517-5.649-14.275-.26-.657-.542-1.306-.849-2.044l-13.592,5.369,17.026,43.16,13.616-5.369c-1.382-3.529-2.721-6.948-4.061-10.367-.622-1.587-1.266-3.168-1.872-4.762-.733-1.929-.277-3.312,1.24-3.861,1.489-.539,2.678.123,3.415,1.97,1.976,4.957,3.931,9.923,5.9,14.883a6.114,6.114,0,0,0,.385.7ZM842.816,481.475c1.325-1.548,2.541-3.047,3.84-4.47a9.077,9.077,0,0,1,15.547,3.89c.135.517.3,1.026.449,1.52a10.053,10.053,0,0,1,6.679,2.264,9.639,9.639,0,0,1,3.229,6.239c5.126-.026,8.949,2.6,10.061,8.418,8.287-.319,13.4,9.036,6.986,16.256a44.255,44.255,0,0,0,5.674,3.03c1.931.71,4.24-.675,5.172-2.626a4.244,4.244,0,0,0-1.327-5.548c-1.219-.948-2.443-1.891-3.653-2.852-1.589-1.262-1.94-2.716-.975-3.95,1-1.281,2.37-1.293,4.063-.017,2.6,1.96,5.142,4,7.8,5.876a4.9,4.9,0,0,0,7.044-1.012c1.562-2.21,1.009-4.981-1.353-6.793-2.057-1.577-4.13-3.136-6.163-4.745a2.473,2.473,0,0,1-.688-3.62c.877-1.218,2.371-1.362,3.791-.346.583.418,1.135.877,1.707,1.311,2.549,1.933,5.041,3.948,7.667,5.769a4.842,4.842,0,0,0,6.87-1.2c1.542-2.291,1.047-4.812-1.316-6.639-2.4-1.857-4.815-3.695-7.205-5.563-.938-.733-1.6-1.769-.982-2.866a3.634,3.634,0,0,1,2.171-1.648,3.576,3.576,0,0,1,2.336.9c3.37,2.493,6.677,5.071,10.012,7.613a4.982,4.982,0,0,0,4.459,1.19,4.6,4.6,0,0,0,3.662-3.63,5.062,5.062,0,0,0-2.115-5.371c-5.543-4.1-11.125-8.15-16.619-12.314a8.327,8.327,0,0,0-5.97-1.874c-10,.555-18.571-3.017-25.722-9.96-1.086-1.054-1.734-1.056-2.829-.075a36.327,36.327,0,0,1-11.521,7.315c-5.2,1.93-10.248,1.961-14.949-1.412-4.851-3.481-4.715-8.506.147-11.909,3.836-2.686,7.525-5.584,11.239-8.441,1.233-.948,2.341-2.059,3.8-3.356a96.43,96.43,0,0,0-17.669-1.371,21.936,21.936,0,0,1-9.006-1.66c-1.027-.467-2.1-.836-3.243-1.288l-14.4,36.5Zm-18.974-7.864c5.7-14.438,11.332-28.725,17.029-43.166l-13.636-5.37-17.022,43.162Zm39.484,13.777a7.338,7.338,0,0,0-2.452,1.143c-2.412,2.634-4.772,5.33-6.963,8.149a3.759,3.759,0,0,0,.793,5.182,3.837,3.837,0,0,0,5.258-.157c2.354-2.539,4.59-5.194,6.765-7.89a3.549,3.549,0,0,0,.211-4.188A4.353,4.353,0,0,0,863.325,487.388Zm-16.033,7.143a7.445,7.445,0,0,0,2.45-1.163c2.451-2.675,4.854-5.406,7.082-8.267a3.964,3.964,0,0,0-5.9-5.13,82.546,82.546,0,0,0-7.136,8.43C842.065,490.821,844.206,494.252,847.292,494.532Zm20.086,16.983a9.1,9.1,0,0,0,2.661-1.39q3.476-3.748,6.663-7.76a3.838,3.838,0,0,0-.639-5.343,3.788,3.788,0,0,0-5.365.167c-2.312,2.5-4.513,5.116-6.657,7.767a3.6,3.6,0,0,0-.274,4.189A4.53,4.53,0,0,0,867.378,511.514Zm20.278-2.791a4.394,4.394,0,0,0-2.647-3.87,3.776,3.776,0,0,0-4.5,1.007c-2.02,2.251-3.97,4.565-5.911,6.886-1.718,2.056-1.667,4.52.061,6.032,1.853,1.622,4.2,1.342,6.079-.8,1.92-2.193,3.828-4.4,5.644-6.679A13.2,13.2,0,0,0,887.656,508.724Z" transform="translate(0)" fill="#ec663b"/></g></svg>