<svg xmlns="http://www.w3.org/2000/svg" xmlns:xlink="http://www.w3.org/1999/xlink" width="203.794" height="204.701" viewBox="0 0 203.794 204.701"><defs><linearGradient id="a" x1="0.476" x2="0.526" y2="1" gradientUnits="objectBoundingBox"><stop offset="0" stop-color="#de2120"/><stop offset="0.341" stop-color="#e02e22"/><stop offset="0.539" stop-color="#e44528"/><stop offset="0.769" stop-color="#e64e2a"/><stop offset="1" stop-color="#e64e2a"/></linearGradient><clipPath id="c"><circle cx="101.897" cy="101.897" r="101.897" transform="translate(203.794 203.794) rotate(180)" fill="url(#a)"/></clipPath></defs><g transform="translate(-1432.311 -3710.899)"><circle cx="101.897" cy="101.897" r="101.897" transform="translate(1636.105 3914.693) rotate(180)" fill="url(#a)"/><g transform="translate(1432.311 3711.806)" clip-path="url(#c)"><g transform="translate(892.175 -229.128)"><g transform="translate(-764.862 341.335)"><g transform="translate(30.324 159.309)"><path d="M-514.93,922.081c4.058,15.178,8.017,28.6,8.017,28.6s11.807,5.389,12.037-2.925c0,0-.346-11.755-.847-26.457A189.265,189.265,0,0,1-514.93,922.081Z" transform="translate(514.93 -921.298)" fill="#f6a179"/></g><g transform="translate(0)"><path d="M-539.753,678.357c-1.409-11.278-.556-52.454-5.469-81.848-6.112-36.565-13.861-64.31-13.861-64.31-2.455-12.566-8.859-23.024-10.732-24.069a33.261,33.261,0,0,0-12.388-3.9c-2.784-.419-12.376,25.871-12.111,31.5.128,2.733,13.673,38.333,20.45,73.758,6.406,33.489,6.057,66.911,6.438,69.263C-566.489,684.529-539.317,681.846-539.753,678.357Z" transform="translate(594.319 -504.227)" fill="#223b43"/></g><g transform="translate(29.55 179.969)"><g transform="translate(3.114 11.44)"><path d="M-495.244,1010.516s1.932,5.156,1.395,6.694-5.427,5.384-6.357,6.185-6.485,4.21-8.18,3.078c-1.409-.941.978-2.725,3.694-5.06s4.825-4.911,4.853-5.526c.07-1.556-.254-8.671.088-10.22S-495.823,1008.4-495.244,1010.516Z" transform="translate(508.803 -1005.337)" fill="#d46737"/></g><g transform="translate(1.572 16.595)"><path d="M-496.242,1024.308s.965,5.214.13,6.652-6.5,4.656-7.59,5.335-7.343,3.4-8.836,2.124c-1.241-1.063,1.507-2.543,4.69-4.524s5.78-4.282,5.948-4.855c.439-1.5,1.4-8.451,2.037-9.92S-496.423,1022.193-496.242,1024.308Z" transform="translate(512.842 -1018.832)" fill="#d46737"/></g><g transform="translate(2.549 16.372)"><path d="M-496.111,1025.938s1.665,8.1,1.628,10.045-9.254,9.124-12.428,11.1-4.6-1.015-2.086-3.27c4.639-4.7,8.334-7.108,8.357-8.324s1.109-14.431,2.358-16.729C-497.059,1016.511-496.835,1022.21-496.111,1025.938Z" transform="translate(510.283 -1018.25)" fill="#f0804f"/></g><g transform="translate(3.905)"><path d="M-506.647,985.273c2.242-7.6,6.591-12.831,13.882-8.054,4.843,3.173,6.468,17.377,5.17,22.71C-488.028,1001.708-508.2,990.53-506.647,985.273Z" transform="translate(506.732 -975.387)" fill="#f6a179"/></g><g transform="translate(14.267 10.88)"><path d="M-470.592,1012.436c.326,2.44-.646,12.532-.677,14.157s-3.811,12.7-3.867,15.715c-.035,1.857-4.228.6-4.16-3.032s2.945-11.567,2.978-13.32-3.335-18.922-3.286-21.5S-471.12,1008.489-470.592,1012.436Z" transform="translate(479.605 -1003.87)" fill="#f6a179"/></g><g transform="translate(0 2.204)"><path d="M-505.527,991.976s-3.047,7.765-4.929,10.667c-.866,1.336-4.385,8.959-6.216,3.044-.871-2.812.461-7.762,1.237-10.249,1.084-3.475,1.911-9.252,5.573-13.3C-505.954,977.813-504.382,989.059-505.527,991.976Z" transform="translate(516.957 -981.158)" fill="#f6a179"/></g></g></g><g transform="translate(-870.266 341.335)"><g transform="translate(4.193 159.309)"><path d="M-839.234,922.081c-4.058,15.178-8.018,28.6-8.018,28.6s-11.807,5.389-12.037-2.925c0,0,.346-11.755.847-26.457A189.269,189.269,0,0,0-839.234,922.081Z" transform="translate(859.289 -921.298)" fill="#f6a179"/></g><path d="M-870.26,678.357c1.409-11.278.556-52.454,5.469-81.848,6.113-36.565,13.861-64.31,13.861-64.31,2.455-12.566,8.859-23.024,10.731-24.069a33.261,33.261,0,0,1,12.388-3.9c2.784-.419,12.376,25.871,12.111,31.5-.128,2.733-13.673,38.333-20.449,73.758-6.406,33.489-6.057,66.911-6.438,69.263C-843.524,684.529-870.7,681.846-870.26,678.357Z" transform="translate(870.266 -504.227)" fill="#223b43"/><g transform="translate(1.55 179.969)"><g transform="translate(5.308 11.44)"><path d="M-850.821,1010.516s-1.932,5.156-1.4,6.694,5.427,5.384,6.358,6.185,6.485,4.21,8.18,3.078c1.409-.941-.978-2.725-3.694-5.06s-4.825-4.911-4.853-5.526c-.07-1.556.254-8.671-.088-10.22S-850.242,1008.4-850.821,1010.516Z" transform="translate(852.311 -1005.337)" fill="#d46737"/></g><g transform="translate(4.829 16.595)"><path d="M-853.1,1024.308s-.965,5.214-.13,6.652,6.5,4.656,7.59,5.335,7.343,3.4,8.836,2.124c1.241-1.063-1.506-2.543-4.69-4.524s-5.78-4.282-5.948-4.855c-.439-1.5-1.4-8.451-2.037-9.92S-852.914,1022.193-853.1,1024.308Z" transform="translate(853.565 -1018.832)" fill="#d46737"/></g><g transform="translate(5.121 16.372)"><path d="M-851.172,1025.938s-1.665,8.1-1.628,10.045,9.254,9.124,12.428,11.1,4.6-1.015,2.086-3.27c-4.639-4.7-8.334-7.108-8.357-8.324s-1.109-14.431-2.358-16.729C-850.223,1016.511-850.447,1022.21-851.172,1025.938Z" transform="translate(852.801 -1018.25)" fill="#f0804f"/></g><path d="M-846.727,985.273c-2.242-7.6-6.591-12.831-13.882-8.054-4.843,3.173-6.468,17.377-5.17,22.71C-865.346,1001.708-845.177,990.53-846.727,985.273Z" transform="translate(866.208 -975.387)" fill="#f6a179"/><g transform="translate(0.125 10.88)"><path d="M-865.815,1012.436c-.326,2.44.647,12.532.677,14.157s3.811,12.7,3.867,15.715c.035,1.857,4.228.6,4.16-3.032s-2.945-11.567-2.978-13.32,3.335-18.922,3.286-21.5S-865.287,1008.489-865.815,1012.436Z" transform="translate(865.882 -1003.87)" fill="#f6a179"/></g><g transform="translate(11.677 2.204)"><path d="M-835.273,991.976s3.047,7.765,4.929,10.667c.866,1.336,4.385,8.959,6.216,3.044.871-2.812-.462-7.762-1.238-10.249-1.084-3.475-1.911-9.252-5.573-13.3C-834.847,977.813-836.418,989.059-835.273,991.976Z" transform="translate(835.639 -981.158)" fill="#f6a179"/></g></g></g><g transform="translate(-783.076 644.049)"><g transform="translate(0)"><path d="M-611.312,1377.822c.785-18.088,1.161-51.832,2.005-54.064,3.805-10.068,2.74-18.914,1.963-27.024,0,0-25.294,1.485-26.763,8.527-1.887,9.043.745,20.27-2.386,29.209a99.589,99.589,0,0,0-5.443,35.094c4.484,30.673,6.548,55.613,14.4,84.407l9.805-2.748C-617.984,1432.371-612.268,1399.871-611.312,1377.822Z" transform="translate(642.004 -1296.734)" fill="#f6a179"/></g><g transform="translate(7.066 140.611)"><g transform="translate(0 6.039)"><path d="M-585.42,1716.641c-1.961-2.938-20.205-33.993-20.205-33.993l-13.1-1.982a2.261,2.261,0,0,0-.558,1.743h0s-4.749,7.612-4.177,12.9l1.28,36.268h4.134l-.053-30.237c.66,8.978,3.307,27.593,4.176,30.237h30.348c3.724,0,6.1-4.382,3.9-7.188C-581.753,1721.743-583.942,1718.855-585.42,1716.641Z" transform="translate(623.505 -1680.666)" fill="#181818"/></g><g transform="translate(4.5)"><path d="M-602.334,1664.856s10.2,19.934,12.227,24.7,9.575,14.5,8.962,15.888c-.527,1.191-10.655,1.047-13.094-.715-6.926-5-9.144-9.455-9.144-9.455l-8.185-24.761a2,2,0,0,1,1.032-2.712Z" transform="translate(611.725 -1664.856)" fill="#f6a179"/></g></g></g><g transform="translate(-844.897 644.049)"><g transform="translate(22.648)"><path d="M-742.24,1377.822c-.152-18.088.654-51.832-.112-54.064-3.453-10.068-2.078-18.914-1.018-27.024,0,0,25.242,1.485,26.465,8.527,1.57,9.043-1.455,20.27,1.363,29.209a98.21,98.21,0,0,1,4.214,35.094c-5.557,30.673-8.494,55.613-17.359,84.407l-9.709-2.748C-737.477,1432.371-742.055,1399.871-742.24,1377.822Z" transform="translate(744.556 -1296.734)" fill="#f6a179"/></g><g transform="translate(0 140.611)"><g transform="translate(0 6.039)"><path d="M-796.9,1716.641c2.064-2.938,21.4-33.993,21.4-33.993l13.167-1.982a2.19,2.19,0,0,1,.5,1.743h0s4.482,7.612,3.725,12.9l-2.55,36.268H-764.8l1.111-30.237c-.974,8.978-4.273,27.593-5.235,30.237h-30.348c-3.724,0-5.946-4.382-3.644-7.188C-800.744,1721.743-798.453,1718.855-796.9,1716.641Z" transform="translate(803.849 -1680.666)" fill="#181818"/></g><g transform="translate(9.978)"><path d="M-755.089,1664.856s-10.9,19.934-13.092,24.7-10.083,14.5-9.518,15.888c.485,1.191,10.619,1.047,13.12-.715,7.1-5,9.475-9.455,9.475-9.455l9.052-24.761a1.945,1.945,0,0,0-.937-2.712Z" transform="translate(777.728 -1664.856)" fill="#f6a179"/></g></g></g><path d="M-723.957,507.44c1.258,10.652,2.613,22.722,3.151,26.8.5,3.768.91,7.661-.035,11.331a19.875,19.875,0,0,1-8.169,10.979,38.814,38.814,0,0,1-7.062,3.79c-.416,10.357,3.184,31.075,3.184,31.075,10.522,16.839,12.3,38.16,13.606,58.218q8.588,132.3,17.178,264.589c-8.308-1.974-17.553-.311-25.834,2.423-10.512,3.47-20.646,8.548-31.67,9.716-17.317,1.835-32.026.269-51.059-10.884-7.818-4.581-17.51-4.024-26.344-2.9q8.535-131.469,17.071-262.947c1.3-20.059,3.084-41.379,13.606-58.218,0,0,3.6-20.718,3.184-31.075a38.851,38.851,0,0,1-7.062-3.79,19.877,19.877,0,0,1-8.169-10.979c-.945-3.67-.532-7.563-.035-11.331,1-7.6,4.843-42.935,5.6-45.16,2.942-8.632,24.843-9.15,35.942-16.649h14.526c11.1,7.5,33,8.017,35.942,16.649C-726.056,490.109-725.043,498.247-723.957,507.44Z" transform="translate(-20.552 -143.24)" fill="#223b43"/><path d="M-555.7,1480.986c-1.831-.1.4,8.239,1.515,21.783.848,10.327,1.089,23.067-5.09,37.1-.118.412-.246.8-.386,1.179q1.562-.558,3.133-1.081a67.034,67.034,0,0,1,12.15-2.876c-4.022-15.011-5.8-30.146-8.4-46.114C-553.162,1488.681-553.867,1481.084-555.7,1480.986Z" transform="translate(-191.964 -766.557)" fill="#1c2f35"/><path d="M-800.731,1478.57c.394-5.52-.728-9.3-1.791-4.5s-.788,39.429-8.564,55.412a34.08,34.08,0,0,1,13.7,2.311C-798.235,1520.426-801.125,1484.09-800.731,1478.57Z" transform="translate(-36.575 -760.925)" fill="#1c2f35"/><path d="M-786.349,653.294c2.292-5.348-.382-10.7,0-16.425.382-2.292,2.138-7.411,5.826-9.186,5.441-2.618,40.276-5.483,52.5,1.774,5.73,3.438,2.027,15.815,4.7,21.926,5.54,12.4,12.353,23.887,16.795,36.351-1.715-13.243-4.857-26.176-11.74-37.191,0,0-3.6-20.718-3.184-31.075a38.806,38.806,0,0,0,7.062-3.79,19.874,19.874,0,0,0,8.168-10.979c.946-3.67.532-7.563.036-11.331-.318-2.413-.923-7.626-1.624-13.687-.757,5.268,1,12.448.29,17.741-1.146,8.785-7.017,15-15.8,18.439-21.008,8.4-48.25,9.7-67.73-.992-16.66-9.18-9.419-29.87-9.774-46.766-1.2,10.252-2.458,21.383-2.97,25.265-.5,3.768-.91,7.661.035,11.331a19.876,19.876,0,0,0,8.169,10.979,38.853,38.853,0,0,0,7.062,3.79c.416,10.357-3.184,31.075-3.184,31.075-10.522,16.839-12.3,38.16-13.606,58.218q-4.018,61.891-8.036,123.78C-806.691,821.594-808.122,698.366-786.349,653.294Z" transform="translate(-35.171 -202.369)" fill="#1c2f35"/><g transform="translate(-826.225 240.661)"><g transform="translate(27.099 63.648)"><g transform="translate(0 0)"><g transform="translate(0)"><rect width="24.387" height="45.726" rx="12.193" transform="translate(24.387 45.726) rotate(-180)" fill="#f6a179"/></g><g transform="translate(0 0)"><path d="M-659.635,434.243V419.485a12.229,12.229,0,0,0-12.193-12.193,12.229,12.229,0,0,0-12.193,12.193v9.707s6.1,6.022,11.05,6.993A21.668,21.668,0,0,0-659.635,434.243Z" transform="translate(684.021 -407.292)" fill="#bc5746"/></g></g></g><g transform="translate(13.905 13.902)"><path d="M-690.488,277.06c14.641.159,28.131,5.019,27.073,27.992,0,0-1.27,19.8-2.355,24.938s-13.8,23.276-25.19,23.153c-12.222-.133-25.386-18.554-26.36-23.712s-1.213-24.412-1.213-24.412C-719.322,282.016-705.13,276.9-690.488,277.06Z" transform="translate(718.565 -277.057)" fill="#f6a179"/><g transform="translate(6.538 18.746)"><path d="M-700.976,329.25c.054-.049.109-.094.165-.138a12.469,12.469,0,0,1,10.235-2.778,1.381,1.381,0,0,1,.926.481,5.192,5.192,0,0,1,.634,3.009,14.834,14.834,0,0,0-12.338,1.1,1.745,1.745,0,0,1,.018-1.172A1.348,1.348,0,0,1-700.976,329.25Z" transform="translate(701.448 -326.134)" fill="#151515"/></g><g transform="translate(35.009 18.222)"><path d="M-614.987,327.289c-.058-.045-.116-.086-.175-.126a12.468,12.468,0,0,0-10.414-2,1.383,1.383,0,0,0-.887.549,5.2,5.2,0,0,0-.407,3.048,14.835,14.835,0,0,1,12.387.177,1.745,1.745,0,0,0-.106-1.168A1.343,1.343,0,0,0-614.987,327.289Z" transform="translate(626.91 -324.761)" fill="#151515"/></g><g transform="translate(6.445 27.578)"><g transform="translate(0 0.839)"><path d="M-700.554,354.11s-.146-.1-.37-.241a3.237,3.237,0,0,1-.4-.435,3.251,3.251,0,0,1-.241-.534,3.692,3.692,0,0,1-.095-1.445,3.621,3.621,0,0,0,.478,1.269,2.5,2.5,0,0,0,.3.338c.112.056.164.114.258.161l.427.121a.429.429,0,0,1,.293.53.431.431,0,0,1-.53.291A.511.511,0,0,1-700.554,354.11Z" transform="translate(701.693 -351.455)" fill="#452829"/></g><path d="M-686.648,354.733c0,1.555-2.563,3.793-5.75,3.793-3.9,0-6.245-2.261-6.245-4.66s3.372-4.005,6.22-3.48C-689.288,350.969-686.648,353.021-686.648,354.733Z" transform="translate(699.808 -349.893)" fill="#fff"/><path d="M-685.546,355.047a4.216,4.216,0,0,1-1.843,3.487,7.17,7.17,0,0,1-4.886-.1,4.214,4.214,0,0,1-1.7-3.383,4.213,4.213,0,0,1,4.215-4.212A4.213,4.213,0,0,1-685.546,355.047Z" transform="translate(696.923 -350.232)" fill="#452829"/><g transform="translate(1.105)"><path d="M-698.678,353.915a3.927,3.927,0,0,1-.118-.7,2.96,2.96,0,0,1,.53-1.846c.948-1.4,3.149-2.24,5.306-2.1a9.439,9.439,0,0,1,2.98.9,7.473,7.473,0,0,1,2.194,1.577,3.793,3.793,0,0,1,.987,1.632,2.249,2.249,0,0,1,.053.713,2.209,2.209,0,0,0-.211-.657,4.374,4.374,0,0,0-1.161-1.333,9.445,9.445,0,0,0-2.169-1.26,9.507,9.507,0,0,0-1.335-.47,11.056,11.056,0,0,0-1.413-.28,6.2,6.2,0,0,0-4.869,1.559A3.166,3.166,0,0,0-698.678,353.915Z" transform="translate(698.801 -349.257)" fill="#452829"/></g><path d="M-684.1,359.449a2.683,2.683,0,0,1-2.685,2.688,2.687,2.687,0,0,1-2.69-2.688,2.687,2.687,0,0,1,2.69-2.683A2.683,2.683,0,0,1-684.1,359.449Z" transform="translate(694.142 -353.898)" fill="#331e1d"/><path d="M-680.85,358.6a1.2,1.2,0,0,0,1.2,1.2,1.2,1.2,0,0,0,1.2-1.2,1.2,1.2,0,0,0-1.2-1.2A1.2,1.2,0,0,0-680.85,358.6Z" transform="translate(688.811 -354.292)" fill="#fff"/><path d="M-680.057,355.085a.4.4,0,0,1-.4.4.4.4,0,0,1-.4-.4.4.4,0,0,1,.4-.394A.4.4,0,0,1-680.057,355.085Z" transform="translate(688.811 -352.616)" fill="#fff"/></g><g transform="translate(34.978 27.578)"><g transform="translate(11.369 0.839)"><path d="M-596.92,353.343l.424-.121c.1-.047.147-.105.261-.161a2.872,2.872,0,0,0,.3-.338,3.633,3.633,0,0,0,.476-1.269,3.7,3.7,0,0,1-.094,1.445,2.968,2.968,0,0,1-.239.534,3.013,3.013,0,0,1-.4.435l-.368.241a.43.43,0,0,1-.592-.121.428.428,0,0,1,.121-.59A.483.483,0,0,1-596.92,353.343Z" transform="translate(597.229 -351.455)" fill="#452829"/></g><path d="M-626.967,354.733c0,1.555,2.56,3.793,5.752,3.793,3.9,0,6.241-2.261,6.241-4.66s-3.372-4.005-6.215-3.48C-624.324,350.969-626.967,353.021-626.967,354.733Z" transform="translate(626.977 -349.893)" fill="#fff"/><path d="M-622.3,355.047a4.216,4.216,0,0,0,1.843,3.487,7.164,7.164,0,0,0,4.885-.1,4.21,4.21,0,0,0,1.7-3.383,4.213,4.213,0,0,0-4.215-4.212A4.213,4.213,0,0,0-622.3,355.047Z" transform="translate(624.095 -350.232)" fill="#452829"/><path d="M-615.055,353.915a3.155,3.155,0,0,0-.775-2.257,6.179,6.179,0,0,0-4.865-1.557,11.156,11.156,0,0,0-1.415.278,9.59,9.59,0,0,0-1.333.47,9.4,9.4,0,0,0-2.168,1.26,4.306,4.306,0,0,0-1.159,1.333,2.266,2.266,0,0,0-.213.657,2.1,2.1,0,0,1,.054-.713,3.773,3.773,0,0,1,.986-1.632,7.466,7.466,0,0,1,2.192-1.577,9.444,9.444,0,0,1,2.981-.9c2.158-.138,4.359.7,5.306,2.1a2.962,2.962,0,0,1,.53,1.846A3.771,3.771,0,0,1-615.055,353.915Z" transform="translate(626.993 -349.257)" fill="#452829"/><path d="M-618.809,359.449a2.686,2.686,0,0,0,2.688,2.688,2.684,2.684,0,0,0,2.686-2.688,2.683,2.683,0,0,0-2.686-2.683A2.685,2.685,0,0,0-618.809,359.449Z" transform="translate(621.935 -353.898)" fill="#331e1d"/><path d="M-617.239,358.6a1.2,1.2,0,0,1-1.2,1.2,1.2,1.2,0,0,1-1.2-1.2,1.2,1.2,0,0,1,1.2-1.2A1.2,1.2,0,0,1-617.239,358.6Z" transform="translate(622.447 -354.292)" fill="#fff"/><path d="M-615.426,355.085a.4.4,0,0,0,.4.4.4.4,0,0,0,.394-.4.4.4,0,0,0-.394-.394A.4.4,0,0,0-615.426,355.085Z" transform="translate(619.844 -352.616)" fill="#fff"/></g><path d="M-652.859,388.766a3.1,3.1,0,0,1-2.593,1.387,5.188,5.188,0,0,1-3.222-.823c-.261-.3,1.749-3.851,1.749-3.851s-.937,2.483-.508,3.1,1.577.6,2.124.6A5.1,5.1,0,0,0-652.859,388.766Z" transform="translate(681.565 -344.066)" fill="#d4895e"/><path d="M-653.619,417.335c0,4.07-3.663,7.369-8.188,7.369s-8.19-3.3-8.19-7.369Z" transform="translate(688.548 -363.753)" fill="#af0020"/><path d="M-665.311,427.887a8.515,8.515,0,0,0,6.4,2.782,8.531,8.531,0,0,0,6.4-2.782,23.309,23.309,0,0,0-6.4-.9A23.279,23.279,0,0,0-665.311,427.887Z" transform="translate(685.652 -369.718)" fill="#de212b"/><path d="M-653.289,419.211a7.472,7.472,0,0,0,.237-1.876h-14.543a7.2,7.2,0,0,0,.222,1.788,1.579,1.579,0,0,0,1.29.965h11.634A1.284,1.284,0,0,0-653.289,419.211Z" transform="translate(687.064 -363.753)" fill="#fff"/><path d="M-616.85,378.716c0,1.6-2.531,2.9-5.647,2.9s-5.649-1.3-5.649-2.9,2.528-2.9,5.649-2.9S-616.85,377.116-616.85,378.716Z" transform="translate(662.683 -338.094)" fill="#f08973"/><path d="M-688.636,378.716c0,1.6-2.528,2.9-5.647,2.9s-5.647-1.3-5.647-2.9,2.528-2.9,5.647-2.9S-688.636,377.116-688.636,378.716Z" transform="translate(707.047 -338.094)" fill="#f08973"/><g transform="translate(0.05 24.453)"><path d="M-705.942,341.075c-10.15,0-12.491,1.945-12.491,4.451,0,3.514,2.86,11.479,9.758,11.479,14.05,0,15.219-8.782,15.219-11.479C-693.456,342.914-696.187,341.075-705.942,341.075Zm-2.136,14.194c-5.395,0-7.63-6.228-7.63-8.978,0-1.956,1.828-3.478,9.766-3.478,7.628,0,9.762,1.437,9.762,3.478C-696.18,348.4-697.1,355.269-708.079,355.269Z" transform="translate(718.433 -341.075)" fill="#3d2b39"/><path d="M-643.317,345.526c0,2.7,1.173,11.479,15.221,11.479,6.9,0,9.754-7.964,9.754-11.479,0-2.506-2.339-4.451-12.487-4.451C-640.584,341.075-643.317,342.914-643.317,345.526Zm2.724.765c0-2.042,2.136-3.478,9.764-3.478,7.934,0,9.767,1.523,9.767,3.478,0,2.75-2.238,8.978-7.63,8.978C-639.676,355.269-640.593,348.4-640.593,346.291Z" transform="translate(672.009 -341.075)" fill="#3d2b39"/><path d="M-655.678,353.107c1.3-1.225,3.267-1.387,4.2.1s1.142-3.431,1.142-3.431h-6.594S-656.976,354.335-655.678,353.107Z" transform="translate(680.424 -346.455)" fill="#3d2b39"/></g></g><path d="M-691.7,248.021a34.989,34.989,0,0,0-31.657-5.828c-9.238,2.911-24.223,8.057-28.636,32.225-1.278,7-7.818,50.361,3.866,65.928,5.732,7.636,13.974,17.437,23.306,19.453a25.879,25.879,0,0,0,25.458-9.4c2.1-2.755,3.246-6.434,6.112-8.378,2.667-1.809,10.207-1.938,12.924-1.124,3.336-22.951,5.182-52.1,1.275-68.985C-681.451,261.54-684.7,253.558-691.7,248.021Zm2.591,35.121s.554,18.713-.475,23.582-12.2,22.069-23,21.951c-11.589-.126-24.954-17.591-25.877-22.482s.657-23.052.657-23.052c0-20.5,9.716-24.788,23.6-24.637S-690.684,260.477-689.106,283.142Z" transform="translate(754.968 -240.661)" fill="#1d1d1d"/><path d="M-709.157,295.076s-3.1-24.472,24.934-24.472,22.685,25.034,22.685,25.034-.8-12.811-22.685-13.3C-701.876,281.937-709.157,295.076-709.157,295.076Z" transform="translate(726.718 -259.167)" fill="#09090a"/></g></g></g></g></svg>