<svg xmlns="http://www.w3.org/2000/svg" xmlns:xlink="http://www.w3.org/1999/xlink" width="203.794" height="204.701" viewBox="0 0 203.794 204.701"><defs><linearGradient id="a" x1="0.476" x2="0.526" y2="1" gradientUnits="objectBoundingBox"><stop offset="0" stop-color="#de2120"/><stop offset="0.341" stop-color="#e02e22"/><stop offset="0.539" stop-color="#e44528"/><stop offset="0.769" stop-color="#e64e2a"/><stop offset="1" stop-color="#e64e2a"/></linearGradient><clipPath id="c"><circle cx="101.897" cy="101.897" r="101.897" transform="translate(203.794 203.794) rotate(180)" fill="url(#a)"/></clipPath></defs><g transform="translate(-1432.311 -3710.899)"><circle cx="101.897" cy="101.897" r="101.897" transform="translate(1636.105 3914.693) rotate(180)" fill="url(#a)"/><g transform="translate(1432.311 3711.806)" clip-path="url(#c)"><g transform="translate(18.418 7.529)"><g transform="translate(0 0)"><path d="M322.043,432.809c0,6.219,25.792,11.261,57.61,11.261s57.61-5.042,57.61-11.261-25.793-11.264-57.61-11.264S322.043,426.589,322.043,432.809Z" transform="translate(-322.043 -116.265)" fill="#1d1d1b" opacity="0.2"/><g transform="translate(24.881 169.262)"><path d="M367.562,379.083a74.713,74.713,0,0,0,11-.481,19.82,19.82,0,0,0,17.026-15.649,116.2,116.2,0,0,0,2.179-25.065,126.078,126.078,0,0,1-30.2,5.185,126.092,126.092,0,0,1-30.2-5.185,116.1,116.1,0,0,0,2.179,25.065A19.822,19.822,0,0,0,356.561,378.6,74.747,74.747,0,0,0,367.562,379.083Z" transform="translate(-337.346 -337.888)" fill="#3c3c3b"/><g transform="translate(0.001)"><path d="M367.561,343.073a126.077,126.077,0,0,0,30.2-5.185q.034,2.9-.049,5.782a125.986,125.986,0,0,1-30.155,5.174,125.972,125.972,0,0,1-30.155-5.174q-.08-2.875-.049-5.782A126.092,126.092,0,0,0,367.561,343.073Z" transform="translate(-337.347 -337.888)" fill="#575756"/><rect width="8.091" height="5.994" transform="translate(26.168 4.961)" fill="#878787"/><path d="M370.125,345.287h1.707V338.78l-1.707.419Z" transform="translate(-316.831 -337.329)" fill="#3c3c3b"/><path d="M342.391,345.287h-1.707V338.78l1.707.419Z" transform="translate(-335.258 -337.329)" fill="#3c3c3b"/><path d="M364.063,346.618h1.707v-6.507l-1.707.243Z" transform="translate(-320.626 -336.496)" fill="#3c3c3b"/><path d="M348.454,346.618h-1.707v-6.507l1.707.243Z" transform="translate(-331.464 -336.496)" fill="#3c3c3b"/></g></g><g transform="translate(23.141 186.28)"><g transform="translate(1.955 121.816)"><path d="M345.1,432.09c-2.712-.008-5.6,0-7.622-1.226l.1-1.769,8.146-.548Z" transform="translate(-337.478 -419.979)" fill="#3c3c3b"/><g transform="translate(0.101)"><path d="M337.54,429.945c14.153,4.631,24.806,5.7,30.882,3.836l.317-2.239-30.809-4.352Z" transform="translate(-337.54 -420.829)" fill="#3c3c3b"/><path d="M337.708,430.483c4.377,3.048,28.226,6.043,30.925,3.505.213-1.536-2.187-3.346-6.6-5.418-.437-.2-.891-.4-1.369-.619-.33-.143-.678-.291-1.032-.446-.462-.2-.933-.392-1.423-.589H358.2c-.33-.138-.678-.276-1.024-.415h-.008c-.48-.187-.977-.377-1.491-.576-1.224-.468-2.518-.938-3.887-1.423C339.926,420.313,338.051,428,337.708,430.483Z" transform="translate(-337.435 -423.277)" fill="#634e42"/><path d="M346.955,427.469a.638.638,0,0,0,.868.21l3.619-2.2c-.48-.187-.977-.377-1.491-.576l-2.785,1.686A.636.636,0,0,0,346.955,427.469Z" transform="translate(-331.706 -422.257)" fill="#3c3c3b"/><path d="M348.539,428.2a.626.626,0,0,0,.476.265.64.64,0,0,0,.4-.112c.644-.463,1.362-.9,2.063-1.332.473-.293.972-.6,1.447-.914-.462-.2-.933-.392-1.423-.589H351.5c-.226.14-.455.286-.683.424-.719.434-1.455.891-2.133,1.377A.631.631,0,0,0,348.539,428.2Z" transform="translate(-330.73 -421.876)" fill="#3c3c3b"/><path d="M350.091,428.831a.622.622,0,0,0,.491.283.658.658,0,0,0,.387-.106l3.383-2.237c-.437-.2-.891-.4-1.369-.619l-2.717,1.8A.632.632,0,0,0,350.091,428.831Z" transform="translate(-329.751 -421.478)" fill="#3c3c3b"/></g></g><path d="M336.276,473.718c-.024-.824.663-5.85.688-6.683,1.148-37.722,2.541-75.341,5.452-112.974.59-7.354,11.6-7.717,12.643-.415.587,4.125.026,8.66,0,12.8-.083,16.734.068,33.467.732,50.191q1.068,26.847,2.171,53.694c0,.128,0,.255,0,.384C353.857,472.731,347.123,475.368,336.276,473.718Z" transform="translate(-336.276 -348.355)" fill="#3c3c3b"/></g><g transform="translate(67.788 183.9)"><g transform="translate(4.081 123.641)"><path d="M373.925,431.783c-2.707.146-5.588.315-7.679-.79v-1.774l8.1-1.008Z" transform="translate(-366.246 -419.635)" fill="#3c3c3b"/><path d="M366.246,429.9c14.394,3.824,25.091,4.284,31.051,2.081l.189-2.253-31.006-2.6Z" transform="translate(-366.246 -420.314)" fill="#3c3c3b"/><path d="M366.347,430.6c4.544,2.8,28.523,4.435,31.074,1.749.127-1.546-2.374-3.218-6.892-5.034-.449-.177-.912-.354-1.4-.541-.338-.125-.691-.252-1.055-.387-.473-.171-.954-.338-1.454-.507h-.007c-.338-.119-.693-.236-1.049-.356h-.008c-.491-.159-1-.32-1.52-.488-1.25-.4-2.569-.8-3.961-1.2C367.984,420.318,366.55,428.106,366.347,430.6Z" transform="translate(-366.183 -422.936)" fill="#634e42"/><path d="M375.519,426.953a.638.638,0,0,0,.878.161l3.488-2.4c-.491-.159-1-.32-1.52-.488l-2.686,1.839A.637.637,0,0,0,375.519,426.953Z" transform="translate(-360.514 -422.129)" fill="#3c3c3b"/><path d="M377.139,427.59a.635.635,0,0,0,.886.1c.618-.5,1.309-.98,1.985-1.445.457-.32.938-.657,1.393-1-.473-.171-.954-.338-1.454-.507h-.007c-.221.151-.441.314-.66.463-.693.473-1.4.972-2.052,1.5A.629.629,0,0,0,377.139,427.59Z" transform="translate(-359.516 -421.804)" fill="#3c3c3b"/><path d="M378.723,428.134a.622.622,0,0,0,.507.252.642.642,0,0,0,.38-.125l3.252-2.424c-.449-.177-.912-.354-1.4-.541l-2.61,1.951A.635.635,0,0,0,378.723,428.134Z" transform="translate(-358.516 -421.46)" fill="#3c3c3b"/></g><path d="M364.708,472.774c-.073-.821.328-5.878.306-6.71-.99-37.729-1.73-75.365-.956-113.1.172-7.377,11.145-8.364,12.6-1.132.819,4.084.515,8.645.73,12.783.865,16.713,1.964,33.411,3.575,50.071q2.585,26.742,5.208,53.482c.013.128.016.257.024.384C381.4,471.992,374.394,474.249,364.708,472.774Z" transform="translate(-363.736 -346.891)" fill="#3c3c3b"/></g><path d="M372.32,348c1.054.328,2.092.639,3.154.92,8.025,2.149,16.379,2.546,24.678,2.79.366,0,.741.021,1.107.021l1.34.047a27.3,27.3,0,0,1,1.107-2.675c2.933-6.1,7.936-11.16,10.759-17.356,6.356-13.978.528-26.331,4.058-41.285,1.257-5.313-2-10.3.657-20.25,4.362-16.422.114-21.281-8.325-27.848a39.9,39.9,0,0,0-18.452-7.684l-.119-.021a39.891,39.891,0,0,0-19.971.9c-10.175,3.279-15.831,6.387-17.361,23.31-.909,10.259-5.679,13.828-6.32,19.251-1.806,15.256-17.8,23.858-16.617,39.168.53,6.786,3.5,13.259,4.162,19.99a27.883,27.883,0,0,1,.124,2.894l1.273.415c.343.124.706.234,1.049.359,7.879,2.614,22.146,6.11,30.424,6.842C370.14,347.882,371.223,347.947,372.32,348Z" transform="translate(-315.84 -233.771)" fill="#ededed"/><path d="M402.291,333.077c0,4.967-1.745,8.995-3.9,8.995s-3.894-4.027-3.894-8.995,1.743-8.994,3.894-8.994S402.291,328.11,402.291,333.077Z" transform="translate(-276.692 -177.266)" fill="#ededed"/><path d="M419.24,329.077l0-.044a2.05,2.05,0,0,0-1.741-2.322l-4.237-.35a2.085,2.085,0,0,0-2.123,2.008l0,.044a2.049,2.049,0,0,0,1.741,2.322l4.235.35A2.084,2.084,0,0,0,419.24,329.077Z" transform="translate(-266.285 -175.843)" fill="#ffc994"/><path d="M391.875,326.549l2.54,5.713,12.162,1.658c7.79.475,17.3.091,21.077-6.362l-19.26-1.01Z" transform="translate(-278.336 -175.723)" fill="#f5c08c"/><path d="M369.229,305.3l8.086,35.084,2.2,9.591.2.88a9.143,9.143,0,0,0,17.818-4.11l-1.167-5.055-9.313-40.5a9.149,9.149,0,1,0-17.831,4.107Z" transform="translate(-292.658 -196.036)" fill="#fff"/><path d="M410.234,343.1l-27.169-2.512A9.146,9.146,0,0,1,386.4,322.6l24.993,3.356C406.98,328.461,406.34,340.757,410.234,343.1Z" transform="translate(-288.532 -178.291)" fill="#fff"/><path d="M347.786,269.086c2.671-5.552,3.2-12.456,7.825-16.526a18.485,18.485,0,0,1,7.977-3.66,40.611,40.611,0,0,1,21.354.232,29.782,29.782,0,0,1,16.883,12.706,23.582,23.582,0,0,1,1.943,20.748c-1.2,2.936.25,1.587-1.117,4.442-1.366,3.835-5.057,10.276-4.879,13.253.46,7.634-.263,15.088-6.19,19.92,2.058-3.184,4.066-6.746,3.7-10.521a27.885,27.885,0,0,0-1.388-5.244,15.832,15.832,0,0,1-2.6,2.156c.273,2.273.556,4.636-.333,6.73a20.268,20.268,0,0,1-2.705,3.915,6.2,6.2,0,0,0-1.523,4.393,9.258,9.258,0,0,1-.246-5.526c.379-1.834,1-3.621,1.236-5.481.068-.546.1-1.1.119-1.652a10.8,10.8,0,0,0-2.361,2.359c-2.562,3.675-1.81,9.079-4.8,12.414-2.21,2.458-5.822,3.036-9.128,3.066a42.136,42.136,0,0,1-17.828-3.787c1.374-4.863,2.707-10.155,1.353-14.911-.111.128-.2.275-.314.4-1.244,1.33-2.8,2.317-4.146,3.546a6.951,6.951,0,0,0-2.567,4.653c-1.013-2.647.3-5.616,1.977-7.9,1.088-1.484,2.349-2.883,3.341-4.419-.673-1.062-1.427-2.078-2.161-3.105-.836,1.325-1.741,2.619-2.587,3.928-1.966,3.042-3.689,6.544-3.229,10.136-1.47-4.948-.964-8.988.78-13.844.683-1.9,1.619-3.3,2.442-5.144-1.714-3.831-2.223-10.84-1.493-14.976.33-1.868-1.325-4.674-1.582-6.554C345.14,271.9,346.5,271.755,347.786,269.086Z" transform="translate(-307.968 -225.144)" fill="#dadada"/><rect width="19.238" height="29.419" transform="translate(52 74.701)" fill="#deab7d"/><path d="M420.156,495.666c-3.366,2.325-6.146,1.219-9.268,1.252a9.552,9.552,0,0,0-6.146,2.309,10.83,10.83,0,0,1-1.788,1.154,14.926,14.926,0,0,1-11.137.846,20.473,20.473,0,0,0-2.227-.634,15.021,15.021,0,0,0-5.983-.26c-3.967.667-6.666,2.764-11.836,2.114-1.089-.13-2.163-.325-3.236-.52h-.016c-2.309-.439-4.6-.992-6.943-1.4a34.971,34.971,0,0,0-7.577-.65q-1.415.049-2.927.244c-.862.13-1.74.293-2.634.52a11.178,11.178,0,0,1-7.887-1.2v-.016a5.391,5.391,0,0,1-.649-.39,10.5,10.5,0,0,0-3.87-1.756c-3.219-.65-4.8,1.268-8.552-1.61,2.341-37.526,5.268-72.45,6.91-106.756v-.033q.7-14.121,1.041-28.16c.179-7.349.423-14.7.26-22.063-.276-12.308-.244-21.1.309-27.461,1.333-15.137,5.626-16.6,15.771-19.186l17.966-4.536c2.39.976,18.031,2.7,20.454,1.675,0,0,12.5,5.626,15.121,8.048.634.585,1.236,1.219,1.821,1.87a22.124,22.124,0,0,1,5.284,13.869q-.342,10.877-.52,21.364-.073,4.951-.114,9.837c-.032,3.8-.032,7.577-.032,11.3,0,2.309.016,4.585.032,6.861v.878A1223.871,1223.871,0,0,0,420.156,495.666Z" transform="translate(-318.64 -200.182)" fill="#fff" stroke="rgba(0,0,0,0)" stroke-width="1"/><path d="M354.44,285.316c6.305,1.889,12.718,3.125,19.238,1.219L374,290.5c-4.273,2.956-15.225,2.114-20.636-1Z" transform="translate(-302.441 -201.53)" fill="#f6f6f6"/><rect width="4.878" height="29.041" transform="translate(61.122 87.972)" fill="#f6f6f6"/><path d="M373.766,452.94a4.834,4.834,0,0,0,.291.975,10.841,10.841,0,0,0,1.789-1.154,9.554,9.554,0,0,1,6.146-2.309c-1.561-29.624-7.006-59.1-5.886-88.741-1.561,17.511-3.122,35.119-1.722,52.646.551,7.073,1.592,14.129,1.364,21.2a69.574,69.574,0,0,1-1.545,12.162A13.284,13.284,0,0,0,373.766,452.94Z" transform="translate(-289.748 -153.715)" fill="#ededed"/><path d="M361.9,440.013a19.688,19.688,0,0,0,.163,3.219,15.032,15.032,0,0,1,5.985.26c3.965-21.234,3.494-43.133,3.983-64.792a185.828,185.828,0,0,1-7.43,48.793C363.4,431.608,362.047,435.737,361.9,440.013Z" transform="translate(-297.102 -143.081)" fill="#ededed"/><path d="M349.239,455.758c2.343.406,4.635.961,6.944,1.4a69.943,69.943,0,0,1-1.415-26c.943-7.056,2.99-13.983,3.429-21.1.39-5.934-.358-11.885-1.089-17.787Q355.059,375.634,353,359q-.124,11.636-.229,23.25c-.081,7.317-.146,14.666-.943,21.95C349.94,421.468,344.119,439.369,349.239,455.758Z" transform="translate(-306.309 -155.411)" fill="#ededed"/><path d="M360.105,406.478a66.821,66.821,0,0,0,.075-13.214l-1.2-19.787c3.2,12,6.412,24.517,3.961,36.688-1.953,9.7-7.393,18.456-9.027,28.209C351.828,427.644,358.606,417.308,360.105,406.478Z" transform="translate(-302.341 -146.351)" fill="#ededed"/><path d="M341.015,416.626c.6,5.643,1.933,11.43,1.8,17.007q1.512-.2,2.927-.244c.831-3.609.325-7.382.049-12.715-.471-9.04-2.634-17.934-3.057-26.974A64.1,64.1,0,0,0,341.015,416.626Z" transform="translate(-310.391 -133.693)" fill="#ededed"/><path d="M332.88,442.955a10.494,10.494,0,0,1,3.87,1.756,5.311,5.311,0,0,0,.652.39c.325-4.926-.293-10.064-.262-15.023.1-18.828,9.741-37.314,6.227-55.817-.846,13.495-5.138,26.486-8.064,39.672C333.191,423.428,331.807,433.379,332.88,442.955Z" transform="translate(-315.493 -145.86)" fill="#ededed"/><g transform="translate(64.27 134.912)"><path d="M387.107,316.761a56.233,56.233,0,0,1-25.535,48.8A106.8,106.8,0,0,0,387.107,316.761Z" transform="translate(-361.572 -316.761)" fill="#ededed"/><path d="M369.978,364.636,383.265,325.8A55.564,55.564,0,0,1,369.978,364.636Z" transform="translate(-356.311 -311.1)" fill="#ededed"/></g><path d="M361.8,332.108c-3.257-1.453-5.323-4.67-7.038-7.8a103.835,103.835,0,0,1-9.806-25.291c4.618,3.627,9.51,9.835,12.892,16.5,1.873,3.689,3.923,9.443,7.006,11.245,4.271,2.5,11,1.268,15.942,1.1,7.46-.25,14.591-.6,19.36.719.026,1.138-4.481,1.92-4.455,3.057-8.477,2.156-18.358,1.5-27.105,1.5A16.59,16.59,0,0,1,361.8,332.108Z" transform="translate(-307.701 -192.954)" fill="#ededed"/><path d="M407.258,334.187c-.034,3.8-.034,7.577-.034,11.3-1.445.1-2.892.177-4.341.276-11.381.714-21.072,3.071-32.435,3.788-4.341.276-8.017,3-11.854.966-5.17-2.73-7.517-9.433-10.485-16.121-4.437-9.988-9.121-22.728-12.83-33q8.316,12.021,16.651,24.047c2.325,3.348,4.764,6.811,8.325,8.762,4.341,2.39,9.575,2.162,14.518,1.886Q391.014,335.139,407.258,334.187Z" transform="translate(-313.759 -191.468)" fill="#ededed"/><path d="M338.052,293.65a9.146,9.146,0,0,0-3.6,12.42l22.524,40.958A9.146,9.146,0,1,0,373,338.215l-22.525-40.958A9.146,9.146,0,0,0,338.052,293.65Z" transform="translate(-314.989 -197.023)" fill="#fff"/><path d="M402.527,324.218,386.293,316.5l-12.61,1.461-1.424,10.165h24.781Z" transform="translate(-290.613 -182.012)" fill="#ffc994"/><path d="M382.133,316.5a2.376,2.376,0,0,0-.686,3.785c-1.881.229-2.032,2.948-.915,3.735-1.32.433-1.767,2.642-.507,3.1a1.711,1.711,0,0,0-.61,2.819l13.464-1.814,5.487-3.907Z" transform="translate(-286.452 -182.012)" fill="#f5c08c"/><path d="M391.968,317.2,354.638,318.5a9.145,9.145,0,0,0,3.868,17.877l32.516-4.479C388.261,326.173,388.053,323.316,391.968,317.2Z" transform="translate(-306.157 -181.572)" fill="#fff"/><g transform="translate(77.059 93.25)"><path d="M440.807,340.551H384.36c-1.654,0-2.787-1.676-2.532-3.743L387,294.881c.255-2.068,1.8-3.744,3.455-3.744H446.9c1.652,0,2.785,1.676,2.53,3.744l-5.172,41.927C444.006,338.875,442.458,340.551,440.807,340.551Z" transform="translate(-361.705 -291.137)" fill="#968282"/><path d="M439.36,324.149H384.989l.541-2.9H439.9Z" transform="translate(-359.704 -272.291)" fill="#3c3c3b"/><path d="M442.118,340.551H385.673c-1.654,0-2.787-1.676-2.532-3.743l5.174-41.927c.255-2.068,1.8-3.744,3.455-3.744h56.445c1.654,0,2.785,1.676,2.532,3.744l-5.174,41.927C445.318,338.875,443.771,340.551,442.118,340.551Z" transform="translate(-360.883 -291.137)" fill="#c4a9a9"/><path d="M433.529,323.031v2.011a5.033,5.033,0,0,1-.589,2.419,2.59,2.59,0,0,1-2.188,1.517H372.215a2.594,2.594,0,0,1-2.187-1.517,5.034,5.034,0,0,1-.59-2.419v-2.011Z" transform="translate(-369.438 -271.175)" fill="#968282"/><rect width="64.094" height="2.01" transform="translate(0.001 51.858)" fill="#2e2e27"/><path d="M444.982,323.031v2.011a5.034,5.034,0,0,1-.59,2.419,2.59,2.59,0,0,1-2.187,1.517H383.668a2.6,2.6,0,0,1-2.188-1.517,5.033,5.033,0,0,1-.589-2.419v-2.011Z" transform="translate(-362.27 -271.175)" fill="#c4a9a9"/><rect width="64.094" height="2.01" transform="translate(18.621 51.858)" fill="#575756"/><path d="M409.659,308.322c-.353,2.853-2.486,5.169-4.77,5.169s-3.845-2.315-3.492-5.169,2.486-5.167,4.769-5.167S410.012,305.469,409.659,308.322Z" transform="translate(-349.467 -283.615)" fill="#fff"/></g><path d="M349.467,256.542c.08,0,.156.006.234.008a5.733,5.733,0,0,1,4.512,2.634l-3.5,14.258a4.5,4.5,0,0,1-.574.065c-3.442.137-6.382-3.551-6.569-8.235S346.027,256.679,349.467,256.542Z" transform="translate(-308.573 -219.54)" fill="#ffc994"/><g transform="translate(89.814 47.903)"><path d="M380.7,264.031a5.736,5.736,0,0,1,5.226-.276c.07.034.141.062.208.1,3,1.7,3.554,6.378,1.244,10.459s-6.611,6.009-9.607,4.313a4.642,4.642,0,0,1-.484-.32Z" transform="translate(-377.283 -263.247)" fill="#ffc994"/><path d="M388.525,269.445a10.422,10.422,0,0,0,.633-1.254,11.058,11.058,0,0,1-1.236,3.3c-2.309,4.079-6.609,6.011-9.607,4.315a5,5,0,0,1-.484-.32l.45-1.886C381.638,275.194,386.163,273.389,388.525,269.445Z" transform="translate(-376.941 -260.152)" fill="#f2bb88"/><path d="M379.719,273.659a4.583,4.583,0,0,0,.366-1.083c.049-.431.135-.87.146-1.38.036-.493.037-1.047.091-1.628a7.539,7.539,0,0,1,.345-1.854A4.474,4.474,0,0,1,381.692,266a3.105,3.105,0,0,1,1.746-.912,2.945,2.945,0,0,1,2.884,1.285,2.627,2.627,0,0,1,.317,2.047c-.137.473-.353.658-.415.628-.093-.039-.042-.283-.07-.685a2.564,2.564,0,0,0-.558-1.476,2.089,2.089,0,0,0-1.967-.659,2.633,2.633,0,0,0-1.776,1.894,11.9,11.9,0,0,0-.416,2.65.94.94,0,0,1,.1-.024,1.8,1.8,0,0,1,1.606,2.826c-.314.4-.655.447-.754.324-.119-.137-.062-.387-.057-.681a1.908,1.908,0,0,0-.19-.945,1.854,1.854,0,0,0-.714-.644c-.033-.02-.06-.034-.093-.05-.059.432-.156.862-.244,1.254a4.894,4.894,0,0,1-.61,1.28,3.008,3.008,0,0,1-1.59,1.265,1.3,1.3,0,0,1-.549.068c-.128-.01-.193-.037-.2-.08C378.1,275.163,379.11,274.979,379.719,273.659Z" transform="translate(-376.744 -262.113)" fill="#dba97b"/></g><path d="M344,259.737a8.985,8.985,0,0,0,.021,1.445,9.61,9.61,0,0,0,7.143,8.437l-.447,1.823a4.45,4.45,0,0,1-.574.063c-3.44.137-6.38-3.549-6.567-8.234A11.136,11.136,0,0,1,344,259.737Z" transform="translate(-308.573 -217.54)" fill="#f2bb88"/><path d="M351.029,256.836a15.871,15.871,0,0,0-.179,1.949l-1.64,14.306-.779,3.453-1.259,11.274,0,.4c-.294,4.753,3.611,10.352,7.051,13.965l6.635,7.017a6.277,6.277,0,0,0,3.447,1.8l11.048,1.951a6.276,6.276,0,0,0,3.853-.506l5.87-4.413c4.453-2.218,8.617-6.788,9.968-11.354l.117-.376,3.616-11.035.828-2.528,4.731-14.453a13.421,13.421,0,0,0,.093-8.554,10.18,10.18,0,0,0-4.909-5.77,77.8,77.8,0,0,0-19.613-7.113c-.237-.059-.476-.1-.719-.145s-.463-.081-.706-.107c-6.647-.977-11.233-.514-18.2.387C355.453,247.594,351.9,251.607,351.029,256.836Z" transform="translate(-306.328 -226.11)" fill="#ffc994"/><path d="M346.253,258.478a2.938,2.938,0,0,1,3.151.179,3.1,3.1,0,0,1,1.135,1.608,4.486,4.486,0,0,1,.125,1.995,7.369,7.369,0,0,1-.543,1.806c-.216.54-.47,1.032-.662,1.488a13.744,13.744,0,0,0-.5,1.294,4.606,4.606,0,0,0-.171,1.13c-.064,1.452.75,2.078.619,2.236-.026.034-.1.029-.213-.019a1.274,1.274,0,0,1-.458-.312,3,3,0,0,1-.834-1.853,4.771,4.771,0,0,1,.044-1.416c.1-.389.21-.815.354-1.228-.034,0-.068,0-.1,0a1.53,1.53,0,0,0-1.53,1c-.132.263-.2.514-.363.58-.145.065-.429-.132-.524-.632a1.8,1.8,0,0,1,2.722-1.779c.034.023.052.047.08.068a11.861,11.861,0,0,0,.844-2.544,2.631,2.631,0,0,0-.712-2.5,2.09,2.09,0,0,0-2.05-.317,2.579,2.579,0,0,0-1.172,1.058c-.206.345-.273.584-.376.577-.07,0-.176-.265-.081-.748A2.631,2.631,0,0,1,346.253,258.478Z" transform="translate(-307.677 -218.562)" fill="#dba97b"/><path d="M353.392,245.705a22.794,22.794,0,0,1,4.844-4.214,32.333,32.333,0,0,1,17.974-4.765c-.109-.046-.224-.1-.328-.141-.4-.145-.777-.32-1.137-.429-.182-.063-.358-.124-.527-.184l-.494-.137a7.3,7.3,0,0,0-.878-.2,4.024,4.024,0,0,0-.694-.1l-.621-.065s.187-.112.556-.3a3.281,3.281,0,0,1,.7-.278,5.248,5.248,0,0,1,.982-.234l.589-.078c.2-.016.415-.013.637-.016a9.03,9.03,0,0,1,1.4.1,12.864,12.864,0,0,1,3,.87c.343.15.668.306.985.463.153-.223,3.639-1.806,3.414-1.46a8.22,8.22,0,0,0-.662,1.221c-.068.14-.145.309-.224.481a7.794,7.794,0,0,1,2.031-.384,6.517,6.517,0,0,1,2.3.254l.444.143c.135.063.263.124.38.18a2.788,2.788,0,0,1,.571.332c.294.21.439.335.439.335l-.543.015a4.034,4.034,0,0,0-.606.049c-.112.013-.236.024-.364.037s-.26.054-.4.081a12.727,12.727,0,0,0-1.857.524c-.024.008-.049.02-.071.028a36.921,36.921,0,0,1,11.919,5.078,25.013,25.013,0,0,1,9.44,11,22.564,22.564,0,0,1,1.1,13.542l-3.445,15.371c.5-7.9-3.785-18.241-4.886-20.052a9.84,9.84,0,0,0-4.46-3.91c-.555-.242-1.114-.48-1.673-.711-7.466-.782-14.383,3.37-21.9,2.693,1.551-.5,3.161-1.122,4.8-1.748-6.985.914-13.9,1.439-20.117-2a9.812,9.812,0,0,0-1.319,2.3,9.644,9.644,0,0,0-.447,1.366l-2.959,12.061a5.739,5.739,0,0,0-4.513-2.635l1.46-13.232A22.778,22.778,0,0,1,353.392,245.705Z" transform="translate(-306.565 -233.34)" fill="#3c3c3b"/><path d="M363.542,274.9c1.275.333,2.868.88,4.642,1.2.337.059.667.1,1,.14a.193.193,0,0,1,.067-.013c6.185-.267,4.144-9.378,4.956-15.711,1.187,4.468,4.631,14.435-1.089,18.525-1.174.839-3.341.933-5.546.558a10.662,10.662,0,0,1-5.022-2.424c-1.073-.958-1.584-1.793-1.38-2.223C361.374,274.509,362.274,274.559,363.542,274.9Z" transform="translate(-297.585 -217.051)" fill="#dba97b"/><path d="M386.2,266.95c-6.4-3.707-10.855-7.378-15.787-7.3-1.346.32-1.841,5.38-1.2,6.187C375.146,262.121,382.315,268.413,386.2,266.95Z" transform="translate(-292.697 -217.596)" fill="#dba97b"/><path d="M353.973,260.2c7.281-1.288,13.284-2.325,17.89-.559-.306.893-.067,4.772-.94,5.312C366.614,259.423,357.114,262.9,353.973,260.2Z" transform="translate(-302.058 -218.19)" fill="#dba97b"/><g transform="translate(42.42 5.214)" opacity="0.2"><path d="M368.547,248.247c-3.333.413-7.666-.424-8.866-3.993,6.183,4.913,14.786-3.744,21.14,1.294-3.54-.335-6.793,1.34-10.15,2.258,5.113-1.063,10.224-1.958,15.264.141-10.315-.042-23.309,8.949-32.219.127C358.613,250.079,363.577,249.269,368.547,248.247Z" transform="translate(-344.639 -232.661)" fill="#dadada" style="mix-blend-mode:screen;isolation:isolate"/><path d="M371.645,237c-12.355,1.92-21.125,10.362-23.512,22.634A22.605,22.605,0,0,1,371.645,237Z" transform="translate(-348.133 -236.991)" fill="#dadada" style="mix-blend-mode:screen;isolation:isolate"/><path d="M348.751,259.877a21.463,21.463,0,0,1,7.66-17.431A80.818,80.818,0,0,0,348.751,259.877Z" transform="translate(-347.756 -233.577)" fill="#dadada" style="mix-blend-mode:screen;isolation:isolate"/><path d="M385.91,261.417a30.834,30.834,0,0,0-6.795-19.13A17.167,17.167,0,0,1,385.91,261.417Z" transform="translate(-328.741 -233.676)" fill="#dadada" style="mix-blend-mode:screen;isolation:isolate"/></g><g transform="translate(65.948 43.924)" opacity="0.3"><path d="M363.622,273.848a1.31,1.31,0,0,0,1.681-.621c.047-.143.239-.984.5-2.174.278-1.189.689-2.7,1.086-4.221l.589-2.219c.166-.714.32-1.375.452-1.941.257-1.127.429-1.873.429-1.873s-.337.689-.841,1.728c-.252.519-.548,1.124-.865,1.774-.337.644-.7,1.332-1.063,2.024-.715,1.387-1.468,2.811-2,3.936s-.886,1.953-.937,2.1A1.246,1.246,0,0,0,363.622,273.848Z" transform="translate(-362.604 -260.799)" fill="#fff"/></g><g transform="translate(80.436 47.369)"><path d="M371.554,265.251a3.355,3.355,0,1,0,3.777-2.275A3.134,3.134,0,0,0,371.554,265.251Z" transform="translate(-371.515 -262.918)" fill="#936037"/><path d="M372.48,265.052a1.79,1.79,0,1,0,2.053-1.358A1.741,1.741,0,0,0,372.48,265.052Z" transform="translate(-370.927 -262.451)" fill="#3c3c3b"/><path d="M374.03,265.66a.627.627,0,0,0,.511.725h0a.625.625,0,0,0,.725-.507h0a.626.626,0,0,0-.507-.727h0a.629.629,0,0,0-.728.509Z" transform="translate(-369.947 -261.527)" fill="#fff"/><path d="M372.273,263.817a.884.884,0,0,0,.715,1.026h0a.886.886,0,0,0,1.026-.717h0a.884.884,0,0,0-.719-1.024h0a.88.88,0,0,0-1.023.715Z" transform="translate(-371.049 -262.812)" fill="#fff"/></g><path d="M369.2,263.383c.135.247.48.228.972.054a14.1,14.1,0,0,1,2.016-.626c1.7-.372,4.057.1,6.569,1.089,2.522.972,4.522,3.413,6,4.505,2.657,2.3,3.528-.089,1.689-1.88a26.486,26.486,0,0,0-6.681-5.418c-2.888-1.735-6.908-3.1-8.916-2.036C369.85,259.63,369.07,263.141,369.2,263.383Z" transform="translate(-292.536 -218.191)" fill="#3c3c3b"/><g transform="translate(60.533 42.927)"><path d="M359.313,262.519a3.354,3.354,0,1,0,3.775-2.275A3.129,3.129,0,0,0,359.313,262.519Z" transform="translate(-359.274 -260.186)" fill="#936037"/><path d="M360.237,262.32a1.79,1.79,0,1,0,2.055-1.359A1.742,1.742,0,0,0,360.237,262.32Z" transform="translate(-358.686 -259.719)" fill="#3c3c3b"/><path d="M361.789,262.928a.627.627,0,0,0,.509.727h0a.628.628,0,0,0,.727-.511h0a.628.628,0,0,0-.511-.725h0a.626.626,0,0,0-.725.509Z" transform="translate(-357.706 -258.794)" fill="#fff"/><path d="M359.906,261.075a.923.923,0,0,0,.746,1.068h0a.923.923,0,0,0,1.067-.748h0a.921.921,0,0,0-.746-1.067h0a.922.922,0,0,0-1.067.746Z" transform="translate(-358.887 -260.105)" fill="#fff"/></g><path d="M372.261,263.72c-.223.169-.53.008-.907-.351a13.9,13.9,0,0,0-1.577-1.4c-1.4-1.041-3.736-1.584-6.434-1.717-2.7-.154-5.526,1.244-7.323,1.629-3.367,1-3.175-1.535-.762-2.406a26.476,26.476,0,0,1,8.32-2.182c3.346-.389,7.573.023,8.962,1.824C373.219,260.034,372.482,263.553,372.261,263.72Z" transform="translate(-302.375 -219.156)" fill="#3c3c3b"/><path d="M331.029,318.789c.353,4.735,2.787,15.126,3.92,19.733.675-.54,6.98-9.284,7.723-9.747-1.61-8.555-2.587-15.173-.206-23.4,1.649-5.687,5.331-10.65,6.808-16.4.967-3.792,4.749-6.635,7.668-9.224,2.627-2.343,3.832-.528,6.291-3.049,2.423-2.494,1.964-8.5,4.567-10.8,2.6-2.315,4.513-2.471,7.938-1.852,3.2.6,9.858,4.05,13.058,4.631,3.2.55,5.826-1.15,9.035-.616,3.427.589,12.363,2.754,14.035,5.824,1.637,3.063-1.281,7.715.141,10.89,1.445,3.21.93,1.145,2.61,4.249,1.855,3.431.5,7.616.112,11.511-.58,5.907,1.18,11.832.8,17.74-.6,8.629-9.043,19.815-13.518,27.378.522.686.909,4.053,1.372,4.795,2.561-4.754,9.372-14.321,11.37-18.722,6.347-13.968.524-26.325,4.058-41.286,1.252-5.31-2.011-10.294.652-20.241,4.357-16.436.112-21.28-8.32-27.855a39.845,39.845,0,0,0-18.456-7.686l-.127-.021a39.843,39.843,0,0,0-19.972.894c-10.173,3.289-15.822,6.387-17.36,23.319-.906,10.259-5.679,13.823-6.305,19.244C347.1,293.36,329.834,303.488,331.029,318.789Z" transform="translate(-316.456 -233.784)" fill="#fff"/><path d="M387.025,257.09c-.763,2.317-2.416,4.551-1.936,6.946.348,1.73,1.771,3.1,2.086,4.842.494,2.725-1.865,5.442-1.153,8.12a13.249,13.249,0,0,0,1.364,2.68,3.267,3.267,0,0,1,.338,2.883,5.2,5.2,0,0,0-2.027-3.312c-1-.884-.774-1.9-1.411-3.066-1.457-2.671,1.006-5.863-.125-8.686-.87-2.171-5.419-3.626-6.151-5.845a6.924,6.924,0,0,1,.616-5c.727-1.561,1.743-2.972,2.473-4.531a13.93,13.93,0,0,0,.649-10.029,21.063,21.063,0,0,1,4.78,6.811A12.009,12.009,0,0,1,387.025,257.09Z" transform="translate(-287.166 -228.587)" fill="#ededed"/><path d="M375.268,259.47c1.74-2.449,1.034-5.943,2.449-8.59a38.577,38.577,0,0,1,2.369-3.193,8.644,8.644,0,0,0,1.106-7.222c-.424,2.359-2.457,4.057-4.439,5.4s-4.161,2.678-5.188,4.844c-.961,2.023-.761,4.5-1.951,6.393-1.3,2.075-3.879,2.883-6.24,3.536A20.214,20.214,0,0,0,369.626,262,6.848,6.848,0,0,0,375.268,259.47Z" transform="translate(-296.175 -229.602)" fill="#ededed"/><path d="M361.544,249.74a27.692,27.692,0,0,1-1.7,5.245c-1.13,2.071-3.158,3.523-4.38,5.541-1.741,2.863-1.722,6.609-3.767,9.263-1.789,2.32-4.767,3.31-7.564,4.179A12.985,12.985,0,0,0,350.177,265c.322-2.052.143-4.161.5-6.206a24.163,24.163,0,0,1,1.767-5.229,19.088,19.088,0,0,1,3.211-5.645c3.122-3.38,8.2-4.089,11.919-6.8A17.362,17.362,0,0,0,361.544,249.74Z" transform="translate(-308.218 -229.191)" fill="#ededed"/><path d="M368.17,247.733a9.675,9.675,0,0,0-2.957,5.136,5.169,5.169,0,0,0,2.153,5.248,5.868,5.868,0,0,0,2.863-4.058c.429-1.658.532-3.4,1.12-5.009.514-1.408,1.385-2.658,1.954-4.045a4.959,4.959,0,0,0,.039-4.336,6.674,6.674,0,0,1-1.906,3.975C370.43,245.758,369.232,246.677,368.17,247.733Z" transform="translate(-295.069 -229.475)" fill="#ededed"/><path d="M411.8,263.508a2.473,2.473,0,0,1-.8-.133A207.707,207.707,0,0,0,346.9,252.051a2.439,2.439,0,0,1,.042-4.878h.044A212.564,212.564,0,0,1,412.6,258.764a2.439,2.439,0,0,1-.8,4.744Z" transform="translate(-307.984 -225.404)" fill="#3c3c3b"/><path d="M412.286,260.789a2.429,2.429,0,0,1-.8-.133,207.747,207.747,0,0,0-64.109-11.326,2.439,2.439,0,0,1,.041-4.878h.046a212.738,212.738,0,0,1,65.613,11.593,2.439,2.439,0,0,1-.8,4.744Z" transform="translate(-307.684 -227.107)" fill="#3c3c3b"/><path d="M370.893,272.777c-2.146-.379-9.764-1.683-13.661,2.34-2.4,2.476-4.574,5.242-4.328,13.053,3.156,6.731,8.583,10.5,13.428,11.35s11.887-.68,14.88-7.684c1.51-4.567,1.922-6.406,1.993-8.377C383.491,275.624,374.257,273.371,370.893,272.777Zm-2.136,12.4c-1.416-.307-1.868,2.2-3.9,2.016-7.585-.678-6.543-8.084-4.326-9.49a5.66,5.66,0,0,1,2.284-.787,32.247,32.247,0,0,1,14.563,2.574,5.6,5.6,0,0,1,1.876,1.522c1.6,2.081,1.5,6.2-1.041,7.762-.008.006-.021.006-.029.011a4.451,4.451,0,0,1-4.229.3c-1.283-.68-.7-3.053-2.135-3.25Z" transform="translate(-302.739 -209.694)" fill="#3c3c3b"/><g transform="translate(129.854 145.644)"><path d="M405.431,323.362h-.049a2.719,2.719,0,0,0-2.774,1.987l-.68,4.378c-.171,1.1.8,2,2.158,2.01h.049a2.719,2.719,0,0,0,2.774-1.987l.68-4.377C407.759,324.269,406.793,323.368,405.431,323.362Z" transform="translate(-401.909 -323.362)" fill="#ffc994"/><path d="M408.555,323.373h-.05a2.719,2.719,0,0,0-2.772,1.987l-.815,5.265c-.171,1.1.8,2,2.158,2.008h.05a2.722,2.722,0,0,0,2.774-1.985l.815-5.266C410.883,324.279,409.916,323.38,408.555,323.373Z" transform="translate(-400.038 -323.355)" fill="#ffc994"/><path d="M411.617,323.384h-.052a2.725,2.725,0,0,0-2.774,1.985l-.784,5.073c-.171,1.1.8,2,2.158,2.008h.049a2.719,2.719,0,0,0,2.774-1.987l.787-5.071C413.944,324.288,412.978,323.39,411.617,323.384Z" transform="translate(-398.104 -323.348)" fill="#ffc994"/><path d="M414.277,323.683h-.044a2.414,2.414,0,0,0-2.462,1.764l-.6,3.884c-.151.98.707,1.779,1.917,1.784h.042a2.415,2.415,0,0,0,2.463-1.762l.6-3.888C416.343,324.488,415.485,323.688,414.277,323.683Z" transform="translate(-396.125 -323.161)" fill="#ffc994"/></g></g><g transform="translate(60.928 67.815)"><path d="M369.15,280.284c-.063.494-2.278,1.969-4.59,1.371-2.322-.556-3.821-2.958-3.645-3.423.185-.494,1.655.948,3.9,1.484C367.044,280.3,369.218,279.759,369.15,280.284Z" transform="translate(-358.651 -273.843)" fill="#dba97b"/><path d="M375.3,279.6c-.2.543-3.966-.171-8.555-1.247-1.162-.242-2.265-.5-3.262-.754l-1.413-.384c-.393-.122-.766-.236-1.112-.34-.065.011.007-.078-.062-.21-.057-.1.036.086.062.091.065.073.026-.028.021.016a1.313,1.313,0,0,0-.226.278,6.414,6.414,0,0,1-.493.67c-.315.353-.554.494-.667.424s-.1-.345-.011-.766c.042-.213.1-.46.176-.774a2.141,2.141,0,0,1,.242-.6,1.289,1.289,0,0,1,.428-.384,1.333,1.333,0,0,1,.567-.13,6.174,6.174,0,0,1,.732.054c.216.026.436.052.663.081.462.065.95.137,1.46.21,1.023.163,2.146.366,3.318.608C371.859,277.548,375.487,279.135,375.3,279.6Z" transform="translate(-359.517 -275.493)" fill="#c4986e"/></g></g></g></g></svg>