<svg xmlns="http://www.w3.org/2000/svg" xmlns:xlink="http://www.w3.org/1999/xlink" width="203.794" height="204.701" viewBox="0 0 203.794 204.701"><defs><linearGradient id="a" x1="0.476" x2="0.526" y2="1" gradientUnits="objectBoundingBox"><stop offset="0" stop-color="#de2120"/><stop offset="0.341" stop-color="#e02e22"/><stop offset="0.539" stop-color="#e44528"/><stop offset="0.769" stop-color="#e64e2a"/><stop offset="1" stop-color="#e64e2a"/></linearGradient><clipPath id="c"><circle cx="101.897" cy="101.897" r="101.897" transform="translate(203.794 203.794) rotate(180)" fill="url(#a)"/></clipPath></defs><g transform="translate(-1432.311 -3710.899)"><circle cx="101.897" cy="101.897" r="101.897" transform="translate(1636.105 3914.693) rotate(180)" fill="url(#a)"/><g transform="translate(1432.311 3711.806)" clip-path="url(#c)"><g transform="translate(-136.699 -1330.165)"><path d="M293.584,1436.383c-11.981,14.225-27.156,18.94-33.1,18.914-6.076-.026-22.493-4.273-34.688-19.18-6.912-8.442-9.713-25.033-11.492-36.61-1.021-6.653-1.9-27.38.886-35.379-8.306-9.527-4.249-18.484-4.249-18.484s3.427,8.793,24.2,3.864c6.159-1.46,17.128-2.945,24.011-4.135,10.133-1.75,20.831-.207,22.261,5.556,11.7-.366,17.6,5.726,20.465,10.94,4.181,7.593,5.706,18.225,4.584,28.329C304.983,1403.54,300.774,1427.856,293.584,1436.383Z" transform="translate(-20.653 0)" fill="#241412"/><path d="M222.884,1449.339s1.464-11.042-8.132-8.382c-7.38,2.05.114,22.563,4.966,24.33,4.145,1.52,5.062-1.66,5.062-1.66Z" transform="translate(-21.368 -40.201)" fill="#f9ab78"/><path d="M359.786,1449.884s-1.378-11.055,8.189-8.32c7.368,2.114-.29,22.562-5.154,24.291-4.161,1.487-5.05-1.7-5.05-1.7Z" transform="translate(-82.65 -40.446)" fill="#f9ab78"/><path d="M311.23,1620.04l5.442-56.006s-20.024-8.875-31.534-11.684c-10.838-2.646-23.546-2.409-24.874-2.373-1.326-.045-14.031-.385-24.888,2.178-11.532,2.717-31.294,11.435-31.294,11.435s3.777,26.146,7.456,56.45Z" transform="translate(-18.192 -86.081)" fill="#f9ab78"/><path d="M278.589,1556.4s26.46-18.012,24.855-18.9c-9.339-5.174-8.23-19.817-8.23-19.817l-33.878-1.9s2.062,20.712-7.983,23.235C252.613,1539.2,278.589,1556.4,278.589,1556.4Z" transform="translate(-38.85 -71.756)" fill="#f9ab78"/><path d="M266.242,1528.161a12.218,12.218,0,0,1,4.112,2.356c4.451,3.812,14.793,9.529,21,7.61,4.594-1.421,7.763-4.976,10.984-8.662a30.272,30.272,0,0,1-1.708-11.779l-33.878-1.9A50.691,50.691,0,0,1,266.242,1528.161Z" transform="translate(-44.263 -71.756)" fill="#da895d"/><path d="M305.367,1417.907c-1.67,12.114-2.185,19.114-9.233,27.656-4.9,5.938-15.594,14.892-23.418,18.531-2.2,1.021-9.249,1.136-11.463.28-8.551-3.3-20.57-12.052-24.757-19.047-5.575-9.306-7.062-16.725-8.672-27.726-1.94-13.224-2.114-8.561-2.064-21.031.1-25.393,9.974-43.695,38.441-43.583,28.5.114,42.964,16.13,43.294,42.2C307.675,1409.468,307.2,1404.627,305.367,1417.907Z" transform="translate(-27.281 -3.479)" fill="#f9ab78"/><path d="M263.695,1501.009c-1.848,6.214,1.632,15.544,2.819,16.337a56.5,56.5,0,0,0,10.43,5.594c2.214.855,9.266.741,11.463-.28a53.754,53.754,0,0,0,7.909-4.713c1.323-.931,5.34-10.871,4.651-16.938s-10.945-8.525-19.038-8.377S265.543,1494.8,263.695,1501.009Z" transform="translate(-42.972 -62.044)" fill="#241412"/><path d="M269.238,1505.673c-1.19,4,4.53,11.974,5.3,12.482a36.587,36.587,0,0,0,6.722,3.608c.625.24,2.257-8.125,3.558-8.123,1.662.007,3.035,8.308,3.833,7.94a34.655,34.655,0,0,0,5.093-3.04c.855-.594,7-10.271,6.556-14.185s-8.523-.682-16.465-.682C278.616,1503.673,270.43,1501.666,269.238,1505.673Z" transform="translate(-45.451 -66.152)" fill="#f9ab78"/><path d="M240.094,1385.987c3.839-3.959,33.007,10.634,38.655,9.845,8.261-1.156,8.242-8.109,13.691-8.09,12.615.048,9.01,15.563,10.959,25.712.525,2.727,1.183.81,1.915,3.627.019-.145.038-.28.057-.425,1.836-13.28,2.308-8.439,2.128-22.724-.33-26.066-13.986-43.814-42.479-43.928-28.467-.112-39.158,19.921-39.256,45.315-.045,11.893,3.328,8.176,5.026,19.273C233.247,1409.462,235.56,1390.671,240.094,1385.987Z" transform="translate(-27.286 -2.228)" fill="#e2d3cd" style="mix-blend-mode:multiply;isolation:isolate"/><path d="M236.188,1382.256c8.363-8.366,38.232,23.03,50.45,2.085,14.47.243,12.458,6.8,14.75,12.01,1.06,2.411,1.024,22.325,1.024,22.325a18.293,18.293,0,0,0,1.941-2.019c1.836-13.28,3.919-8.078,3.741-22.365-.33-26.067-15.6-44.173-44.092-44.287-28.467-.112-40.564,19.9-40.664,45.3-.05,12.472,1.532,7.821,3.473,21.045.028.2,2.869-.879,2.869-.879S225.5,1392.942,236.188,1382.256Z" transform="translate(-26.268 -2.228)" fill="#241412"/><path d="M186.614,1629.545l4.952-14.817s13.983-47.439-5.677-41.633c-12.194,3.6-20.415,32.55-25.184,56.45Z" transform="translate(0 -95.587)" fill="#f9ab78"/><path d="M390.609,1629.85h25.926c-4.6-23.805-12.556-52.344-24.61-56-19.61-5.96-6,41.593-6,41.593Z" transform="translate(-92.529 -95.892)" fill="#f9ab78"/><g transform="translate(251.468 1407.163)"><path d="M333.645,1454.378a7.829,7.829,0,0,1-2.3,3.914c-1.442,1.354-10.221,2.235-11.147,1.817-1.378-.625-3.169-3.6-3.169-3.6s3.107-4.231,6.922-4.221S333.645,1454.378,333.645,1454.378Z" transform="translate(-317.032 -1452.29)" fill="#fff"/><path d="M323.944,1453.126a33.724,33.724,0,0,1,8.5,1.691c.437.138.209,1.644-.532,2.888a5.562,5.562,0,0,0,1.734-3.327s-5.886-2.071-9.691-2.088-6.922,4.221-6.922,4.221a1.513,1.513,0,0,0,.442.684C318.158,1456.347,320.647,1453.111,323.944,1453.126Z" transform="translate(-317.032 -1452.29)" fill="#341e13"/><path d="M330.579,1456.179a3.864,3.864,0,1,1-3.848-3.882A3.863,3.863,0,0,1,330.579,1456.179Z" transform="translate(-319.472 -1452.293)" fill="#341e13"/><path d="M332.821,1456.837c0,1.632-4.584-2.981-2.945-2.976A2.96,2.96,0,0,1,332.821,1456.837Z" transform="translate(-322.27 -1452.949)" fill="#fff"/></g><path d="M240.579,1439.657a31.81,31.81,0,0,1,7.054-2.884c5.3-1.618,12.537.929,12.817.931.495,0,1.226-.126,1.231-1.421s-.39-2.352-.884-2.354c-.278,0-7.449-1.727-12.836-.151C243.842,1434.982,240.579,1439.657,240.579,1439.657Z" transform="translate(-33.499 -37.085)" fill="#241412"/><path d="M337.9,1440.027a30.855,30.855,0,0,0-6.931-2.934c-5.217-1.667-12.375.827-12.654.827-.486-.005-1.2-.138-1.2-1.432s.4-2.347.892-2.345c.271,0,7.354-1.667,12.656-.05C334.72,1435.331,337.9,1440.027,337.9,1440.027Z" transform="translate(-65.599 -37.199)" fill="#241412"/><g transform="translate(211.54 1407.016)"><path d="M248.262,1454.051a7.831,7.831,0,0,0,2.264,3.936c1.432,1.364,10.2,2.311,11.13,1.9,1.388-.615,3.2-3.572,3.2-3.572s-3.071-4.259-6.884-4.271S248.262,1454.051,248.262,1454.051Z" transform="translate(-248.262 -1452.039)" fill="#fff"/><path d="M257.97,1452.875a33.822,33.822,0,0,0-8.51,1.622c-.442.136-.218,1.641.508,2.891a5.542,5.542,0,0,1-1.705-3.337s5.9-2.026,9.71-2.007,6.884,4.271,6.884,4.271a1.586,1.586,0,0,1-.449.682C263.732,1456.139,261.269,1452.89,257.97,1452.875Z" transform="translate(-248.262 -1452.039)" fill="#341e13"/><path d="M257.716,1455.886a3.865,3.865,0,1,0,3.879-3.85A3.869,3.869,0,0,0,257.716,1455.886Z" transform="translate(-252.227 -1452.036)" fill="#341e13"/><path d="M258.67,1456.551c-.008,1.634,4.608-2.943,2.969-2.948A2.956,2.956,0,0,0,258.67,1456.551Z" transform="translate(-252.627 -1452.693)" fill="#fff"/></g><path d="M293.608,1479.115l-3.454-2.758,3.5-8.076Z" transform="translate(-54.292 -51.834)" fill="#da895d"/><path d="M278.767,1510.647l-2.563-2.316,4.285,1.114,14.912-.109,4.181-1.314-3.24,2.629Z" transform="translate(-48.441 -68.501)" fill="#da895d"/><g transform="translate(206.12 1401.118)"><path d="M263.957,1462.279c-3.466,2.719-14.252,2.867-18.489,0s-9.244-13.952-4.817-17.658,23.306-3.612,26.389,0S267.425,1459.562,263.957,1462.279Z" transform="translate(-238.926 -1441.879)" fill="none" stroke="#241412" stroke-miterlimit="10" stroke-width="3.981"/><path d="M308.7,1462.279c3.468,2.719,14.254,2.867,18.491,0s9.247-13.952,4.817-17.658-23.309-3.612-26.389,0S305.232,1459.562,308.7,1462.279Z" transform="translate(-266.33 -1441.879)" fill="none" stroke="#241412" stroke-miterlimit="10" stroke-width="3.981"/><line x2="8.475" transform="translate(29.463 6.144)" fill="none" stroke="#241412" stroke-miterlimit="10" stroke-width="3.981"/></g><g transform="translate(160.705 1463.019)"><path d="M311.23,1621.339l5.442-56.006s-20.024-8.874-31.534-11.684c-.732,15.456-14.4,24.123-26.346,24.123s-24.306-10.238-24.221-24.736c-11.532,2.718-30.489,11.853-30.489,11.853s3.777,26.146,7.456,56.45Z" transform="translate(-178.898 -1550.4)" fill="#fcfcfd"/><path d="M383.98,1656.424l1.917-19.734c-.086.045-.176.081-.266.124-8.333,4.561-7.758,11.447-8.088,19.61Z" transform="translate(-251.648 -1585.484)" fill="#e4e3e3" style="mix-blend-mode:multiply;isolation:isolate"/><path d="M219.013,1655.95c-2.95-10.057-5.368-18.14-6.5-20.389.827,6.375,1.694,13.278,2.56,20.389Z" transform="translate(-182.434 -1585.011)" fill="#e4e3e3" style="mix-blend-mode:multiply;isolation:isolate"/><path d="M186.614,1629.545l4.952-14.817s13.983-47.439-5.677-41.633c-12.194,3.6-20.415,32.55-25.184,56.45Z" transform="translate(-160.705 -1558.606)" fill="#003b62"/><path d="M199.637,1648.8l4.952-14.817A152.768,152.768,0,0,0,208.1,1618.5c-5.233,8.2-12.548,14.195-14.862,24.527-.437,1.938-.948,3.86-1.487,5.767Z" transform="translate(-173.728 -1577.856)" fill="#e4e3e3" style="mix-blend-mode:multiply;isolation:isolate"/><path d="M390.609,1629.85h25.926c-4.6-23.805-12.556-52.344-24.61-56-19.61-5.96-6,41.593-6,41.593Z" transform="translate(-253.234 -1558.911)" fill="#003b62"/><path d="M392.282,1653.418h9.292c-.637-2.556-1.338-5.078-2.148-7.53-2.558-7.729-8.417-11.518-14.113-16.365,1.144,5.5,2.28,9.484,2.28,9.484Z" transform="translate(-254.907 -1582.479)" fill="#e4e3e3" style="mix-blend-mode:multiply;isolation:isolate"/><path d="M303.744,1549.811s-4.228,21.508-22.9,21c-18.736-.506-21.308-22.318-21.308-22.318l-2.955,2.636s-1.513,27.62,24.629,27.045,25.938-26.432,25.938-26.432Z" transform="translate(-200.91 -1548.495)" fill="#e4e3e3"/><path d="M242.127,1621.339V1606.28a195.777,195.777,0,0,1-7.556-53.244c-11.532,2.718-30.489,11.853-30.489,11.853s2.71,25.289,5.038,56.45Z" transform="translate(-178.898 -1550.4)" fill="#003b62"/><path d="M364.911,1621.782c2.147-31.133,4.565-56.006,4.565-56.006s-20.024-8.875-31.534-11.684c-.34,7.187-1.021,31.251-7.957,52.431l.178,15.259Z" transform="translate(-231.702 -1550.842)" fill="#003b62"/><path d="M385.15,1657.645c.437-6.323.884-12.394,1.318-18.042-.145.24-.282.482-.453.727a57.665,57.665,0,0,0-7.772,17.316Z" transform="translate(-251.941 -1586.706)" fill="#e4e3e3" style="mix-blend-mode:multiply;isolation:isolate"/><path d="M336.365,1621.782l6.045-16.024-7.8-2.5,13.677-3.465,6.55-41.415-16.892-4.283s-.767,28.175-7.957,52.431c.048,4.109.116,9.831.176,15.259Z" transform="translate(-231.702 -1550.842)" fill="#00263e"/><path d="M247.71,1602.2l-7.8,2.5,6.278,16.636h5.964c.064-5.606.133-11.608.181-15.872-7.188-24.256-7.957-52.431-7.957-52.431l-16.888,4.288,6.549,41.41Z" transform="translate(-188.714 -1550.4)" fill="#00263e"/></g></g></g></g></svg>