<svg xmlns="http://www.w3.org/2000/svg" width="134" height="107.585" viewBox="0 0 134 107.585"><g transform="translate(1488 -2344)"><path d="M811.425,870.378a14.325,14.325,0,0,1,3.077-5.946c.184-.192.139-.725.039-1.05a11.622,11.622,0,0,1,.287-7.927q4.5-11.332,9.018-22.653c1.887-4.7,5.429-7.175,10.443-7.671a2.241,2.241,0,0,0,1.416-.848c2.1-2.94,4.137-5.931,6.2-8.9,3.724-5.372,9.084-6.912,15.084-4.4a1.668,1.668,0,0,0,1.41-.323c2.173-1.885,4.285-3.841,6.417-5.774,5.867-5.32,12.665-4.937,17.9.968,3.442,3.883,6.924,7.73,10.409,11.574.776.857,1.185,1.743.519,2.815a1.936,1.936,0,0,1-3.225.147c-1.134-1.2-2.216-2.441-3.393-3.745l-9.4,8.5c2.341,1.623,4.575,3.174,6.811,4.722,2.219,1.537,4.44,3.071,6.733,4.656l6.575-5.942c-.5-.574-.964-1.087-1.411-1.611a2.083,2.083,0,0,1-.061-3.024,2.022,2.022,0,0,1,3,.338q4.574,5.034,9.109,10.1c10,11.116,19.972,22.264,30.026,33.334a25.057,25.057,0,0,1,7.014,17.865c-.177,10.823-8.835,20.991-19.558,22.707a34.875,34.875,0,0,1-5.463.421q-48.141.037-96.283.017c-6.743,0-10.586-2.884-12.522-9.372-.022-.073-.112-.126-.17-.188Zm47.867-5.477v4.613c0,5.713.009,11.426-.006,17.139,0,1.693-1.114,2.681-2.547,2.286-1.253-.346-1.447-1.344-1.446-2.468q.015-10.009,0-20.018v-1.518H837.16v39.69h18.062c.028-.434.072-.815.074-1.2.01-2.66-.02-5.321.029-7.98a1.961,1.961,0,0,1,1.966-2.015,2.048,2.048,0,0,1,1.992,2.027c.035.477.01.959.01,1.439v7.712h18.055V864.9Zm44.41,39.739h19.74a1.141,1.141,0,0,0,.129-.015,19.987,19.987,0,0,0,17.4-24.123c-1.688-8.342-9.513-15.343-17.748-15.593-6.269-.19-12.547-.063-18.822-.071a5.423,5.423,0,0,0-.7.1ZM864.28,860.758c6.432,0,12.622.007,18.812-.021a1.148,1.148,0,0,0,.89-.491c1.408-3.4,2.766-6.82,4.172-10.328l-16.887-6.73c-.737,1.834-1.415,3.566-2.126,5.284-.585,1.413-1.585,1.934-2.737,1.475-1.121-.447-1.5-1.574-.968-2.955.673-1.737,1.375-3.463,2.1-5.292l-16.881-6.733-10.224,25.626a2.053,2.053,0,0,0,.466.147c6.105.01,12.211.025,18.317-.014a1.4,1.4,0,0,0,.99-.726c.632-1.381,1.153-2.813,1.727-4.222.639-1.564,1.579-2.147,2.734-1.711,1.26.477,1.6,1.552.993,3.135C865.225,858.331,864.785,859.458,864.28,860.758Zm17.273,43.815h17.983V864.922H881.553Zm-48.5.09v-39.7a2.043,2.043,0,0,0-.431-.116c-3.269-.007-6.538-.047-9.807,0a7.364,7.364,0,0,0-7.427,7.38q-.112,12.552,0,25.106a7.318,7.318,0,0,0,6.693,7.3C825.7,904.779,829.315,904.663,833.056,904.663Zm13.837-71.052a3.113,3.113,0,0,0-.506-.351c-3.149-1.245-6.263-2.6-9.464-3.69a7.164,7.164,0,0,0-9.013,4.01c-3.262,7.909-6.383,15.876-9.521,23.835a5.316,5.316,0,0,0-.193,4c2.169-.23,4.18-.571,6.2-.63,3.482-.1,6.97-.063,10.453-.005a1.523,1.523,0,0,0,1.7-1.168c2.157-5.542,4.374-11.061,6.576-16.586Q845,838.324,846.892,833.61Zm-7.575-7.479c5.274,2.108,10.388,4.16,15.519,6.171a1.048,1.048,0,0,0,.935-.318c2.674-3.8,5.31-7.634,8.01-11.538-2.443-1.7-4.831-3.359-7.227-5.012a11.907,11.907,0,0,0-1.335-.815,7.37,7.37,0,0,0-9.362,2.131C843.633,819.757,841.571,822.884,839.317,826.132Zm45.053-12.5c-2.1-2.278-4-4.546-6.121-6.6a7.018,7.018,0,0,0-8.917-.63c-2.89,2.21-5.512,4.773-8.326,7.249l13.233,9.144Zm-25.155,20.439c5.409,2.153,10.642,4.243,15.886,6.3a.982.982,0,0,0,.884-.121c1.8-2.531,3.561-5.095,5.352-7.682l-14.258-9.857ZM891.864,851.4c-1.264,3.181-2.458,6.183-3.684,9.265h26.368l.042-.2Zm6.961-6.725-14.2-9.814-5.066,7.331c4.29,1.7,8.395,3.346,12.508,4.966,1.323.52,2.907,1.66,3.938,1.294,1.142-.405,1.789-2.209,2.648-3.406A2.913,2.913,0,0,0,898.825,844.671Zm-4.278-7.819,13.561,9.374,3.052-2.784-10.725-11.905ZM899.9,850.3l15.6,6.213.106-.229L902.177,847Zm13.943-3.861-2.348,2.138,10.387,7.178.157-.214Z" transform="translate(-2299.425 1542.861)" fill="#ec663b"/><path d="M950.984,913.956a9.442,9.442,0,1,1,9.44,9.511A9.471,9.471,0,0,1,950.984,913.956Zm9.426-5.4a5.432,5.432,0,1,0,.074,10.864,5.432,5.432,0,1,0-.074-10.864Z" transform="translate(-2338.289 1514.076)" fill="#ec663b"/></g></svg>