<svg xmlns="http://www.w3.org/2000/svg" xmlns:xlink="http://www.w3.org/1999/xlink" width="203.794" height="204.701" viewBox="0 0 203.794 204.701"><defs><linearGradient id="a" x1="0.476" x2="0.526" y2="1" gradientUnits="objectBoundingBox"><stop offset="0" stop-color="#de2120"/><stop offset="0.341" stop-color="#e02e22"/><stop offset="0.539" stop-color="#e44528"/><stop offset="0.769" stop-color="#e64e2a"/><stop offset="1" stop-color="#e64e2a"/></linearGradient><clipPath id="c"><circle cx="101.897" cy="101.897" r="101.897" transform="translate(203.794 203.794) rotate(180)" fill="url(#a)"/></clipPath></defs><g transform="translate(-1432.311 -3710.899)"><circle cx="101.897" cy="101.897" r="101.897" transform="translate(1636.105 3914.693) rotate(180)" fill="url(#a)"/><g transform="translate(1432.311 3711.806)" clip-path="url(#c)"><g transform="translate(-2072.675 -1334.13)"><path d="M2223.417,1441.426c-11.793,14-26.743,18.644-32.594,18.621-5.988-.022-22.151-4.2-34.157-18.885-6.806-8.318-9.566-24.65-11.317-36.05-1.01-6.551-3.745-27.89.873-34.845a37.032,37.032,0,0,1,14.1-12.473c.771-.4-6.171-4.423-5.353-4.786.329-.149,7.84,1.9,7.439,0-.635-2.976-1.7-6.688-1.7-6.688s3.78,5.5,9.84,5.483c6.237-.018,12.082-.028,18.964,0,8.52.031,20.511-.2,21.917,5.468,11.519-.355,17.325,5.641,20.151,10.774,4.121,7.482,5.618,17.946,4.517,27.9C2234.643,1409.084,2230.5,1433.028,2223.417,1441.426Z" transform="translate(-19.505)" fill="#272228"/><path d="M2152.122,1451.1s1.442-10.872-8-8.254c-7.272,2.022.107,22.22,4.888,23.962,4.084,1.492,4.988-1.642,4.988-1.642Z" transform="translate(-18.533 -36.503)" fill="#f9ab78"/><path d="M2277.738,1451.6s-1.355-10.883,8.068-8.186c7.256,2.075-.284,22.214-5.074,23.917-4.1,1.464-4.973-1.675-4.973-1.675Z" transform="translate(-69.689 -36.71)" fill="#f9ab78"/><path d="M2241.466,1612.725l5.4-55.567s-19.715-8.736-31.052-11.5c-10.672-2.611-23.186-2.372-24.5-2.34-1.3-.045-13.818-.375-24.505,2.142-11.357,2.677-30.813,11.26-30.813,11.26s4.217,25.98,8.287,56.006Z" transform="translate(-16.61 -74.802)" fill="#f9ab78"/><path d="M2204.359,1551.8s26.54-17.962,24.956-18.837c-9.2-5.1-8.591-19.286-8.591-19.286l-33.361-1.878s2.029,20.4-7.86,22.879C2178.778,1534.858,2204.359,1551.8,2204.359,1551.8Z" transform="translate(-33.127 -62.844)" fill="#f9ab78"/><path d="M2191.384,1523.976a12.225,12.225,0,0,1,4.05,2.327c4.384,3.753,14.564,9.386,20.679,7.5,4.521-1.4,7.876-5.349,11.048-8.977a30.856,30.856,0,0,1-1.918-11.151l-33.361-1.878A49.574,49.574,0,0,1,2191.384,1523.976Z" transform="translate(-37.644 -62.844)" fill="#da895d"/><path d="M2232.457,1425.655c-1.644,11.931-2.152,18.822-9.094,27.233-4.826,5.849-15.346,14.668-23.054,18.25-2.162,1-9.114,1.117-11.291.272-8.414-3.25-20.254-11.861-24.379-18.758-5.486-9.16-6.952-16.462-8.541-27.3-1.908-13.021-2.081-8.431-2.03-20.709.1-25.008,9.82-43.028,37.857-42.916,28.058.109,42.3,15.884,42.627,41.551C2234.731,1417.35,2234.264,1412.58,2232.457,1425.655Z" transform="translate(-23.47 -5.851)" fill="#f9ab78"/><path d="M2164.964,1406.649c3.781-3.9,9.718-2.888,14.99-3.027,4.963-.13,15.924-1.858,19.6-6.107,3.263-3.773,9.236-9.259,14.594-9.244,12.428.053,14.448,23.193,16.371,33.188.517,2.682,1.167.8,1.882,3.572.02-.145.041-.278.056-.421,1.807-13.075,2.273-8.3,2.1-22.374-.325-25.667-13.768-43.147-41.825-43.256-28.038-.109-38.557,19.613-38.659,44.621-.046,11.712,3.278,8.051,4.953,18.982C2161.442,1417.529,2160.5,1411.262,2164.964,1406.649Z" transform="translate(-23.474 -4.807)" fill="#e2d3cd" style="mix-blend-mode:multiply;isolation:isolate"/><path d="M2161.695,1405.043c9.322-6.977,36.232-.9,48.26-21.521,14.255.236,16.487,15.964,18.741,21.1,1.045,2.372,1,21.983,1,21.983a17.864,17.864,0,0,0,1.913-1.99c1.807-13.075,3.862-7.957,3.685-22.024-.325-25.667-15.356-43.5-43.414-43.606-28.038-.109-39.948,19.6-40.044,44.6-.051,12.281,1.508,7.706,3.415,20.727a14.558,14.558,0,0,0,2.832-.862S2159.822,1406.443,2161.695,1405.043Z" transform="translate(-22.625 -4.807)" fill="#272228"/><path d="M2121.337,1620.658l5.014-15s13.768-46.717-5.587-41c-12.083,3.57-20.2,32.392-24.881,56.006Z" transform="translate(-1.374 -82.735)" fill="#f9ab78"/><path d="M2308.656,1620.914h25.48c-4.516-23.526-12.377-51.936-24.318-55.564-19.314-5.866-5.912,40.957-5.912,40.957Z" transform="translate(-78.66 -82.991)" fill="#f9ab78"/><g transform="translate(2182.777 1412.654)"><path d="M2254.563,1455.325a7.732,7.732,0,0,1-2.263,3.857c-1.421,1.332-10.063,2.195-10.976,1.786-1.36-.616-3.121-3.542-3.121-3.542s3.06-4.169,6.815-4.154S2254.563,1455.325,2254.563,1455.325Z" transform="translate(-2238.203 -1453.272)" fill="#fff"/><path d="M2245.013,1454.094a33.2,33.2,0,0,1,8.368,1.665c.432.135.2,1.616-.522,2.842a5.477,5.477,0,0,0,1.7-3.276s-5.8-2.038-9.546-2.053-6.815,4.154-6.815,4.154a1.558,1.558,0,0,0,.436.675C2239.309,1457.263,2241.76,1454.079,2245.013,1454.094Z" transform="translate(-2238.203 -1453.272)" fill="#341e13"/><path d="M2251.182,1457.093a3.806,3.806,0,1,1-3.8-3.821A3.806,3.806,0,0,1,2251.182,1457.093Z" transform="translate(-2240.241 -1453.272)" fill="#341e13"/><path d="M2252.97,1457.643c-.005,1.614-4.511-2.934-2.9-2.923A2.915,2.915,0,0,1,2252.97,1457.643Z" transform="translate(-2242.577 -1453.822)" fill="#fff"/></g><path d="M2167.73,1442.029a31.22,31.22,0,0,1,6.947-2.834c5.222-1.6,12.342.911,12.621.916.488,0,1.2-.126,1.213-1.4s-.386-2.314-.872-2.316c-.269,0-7.334-1.7-12.636-.147C2170.942,1437.432,2167.73,1442.029,2167.73,1442.029Z" transform="translate(-28.66 -33.903)" fill="#272228"/><path d="M2258.747,1442.378a30.557,30.557,0,0,0-6.831-2.89c-5.136-1.639-12.179.814-12.453.814-.482-.005-1.187-.135-1.187-1.406s.4-2.314.878-2.311c.274,0,7.246-1.641,12.468-.053C2255.616,1437.755,2258.747,1442.378,2258.747,1442.378Z" transform="translate(-55.453 -33.998)" fill="#272228"/><g transform="translate(2143.459 1412.506)"><path d="M2174.807,1455.013a7.742,7.742,0,0,0,2.233,3.875c1.41,1.345,10.047,2.276,10.961,1.875,1.365-.607,3.147-3.516,3.147-3.516s-3.025-4.2-6.775-4.213S2174.807,1455.013,2174.807,1455.013Z" transform="translate(-2174.807 -1453.034)" fill="#fff"/><path d="M2184.368,1453.859a33.1,33.1,0,0,0-8.383,1.6c-.432.13-.213,1.611.507,2.847a5.488,5.488,0,0,1-1.685-3.292s5.811-1.994,9.566-1.979,6.775,4.213,6.775,4.213a1.52,1.52,0,0,1-.437.667C2190.042,1457.071,2187.621,1453.871,2184.368,1453.859Z" transform="translate(-2174.807 -1453.034)" fill="#341e13"/><path d="M2183.53,1456.822a3.806,3.806,0,1,0,3.821-3.788A3.8,3.8,0,0,0,2183.53,1456.822Z" transform="translate(-2178.12 -1453.034)" fill="#341e13"/><path d="M2184.405,1457.378c-.01,1.611,4.537-2.9,2.928-2.908A2.919,2.919,0,0,0,2184.405,1457.378Z" transform="translate(-2178.452 -1453.579)" fill="#fff"/></g><path d="M2216.828,1478.675l-3.4-2.715,3.446-7.952Z" transform="translate(-46.016 -46.215)" fill="#da895d"/><path d="M2203.608,1505.135l-2.527-2.284,4.222,1.1,14.681-.107,4.12-1.3-3.192,2.6Z" transform="translate(-41.327 -59.331)" fill="#da895d"/><g transform="translate(2092.266 1461.38)"><path d="M2308.017,1620.415H2335.6c-4.648-23.686-13.549-52.763-25.662-56.391-19.334-5.8-5.75,40.977-5.75,40.977S2306.171,1612.988,2308.017,1620.415Z" transform="translate(-2170.992 -1543.872)" fill="#e8e8e8"/><path d="M2337.357,1622.286h7.338c-4.06-20.672-11.352-45.445-21.2-53.833a113.168,113.168,0,0,1,12.545,32.962A77.066,77.066,0,0,1,2337.357,1622.286Z" transform="translate(-2180.084 -1545.743)" fill="#fff" opacity="0.4" style="mix-blend-mode:soft-light;isolation:isolate"/><path d="M2309.661,1638.6h7.607c-3.9-5.533-6.815-14.432-9.647-27.182-.025-.121-3.644,4.044-3.74,3.963,1.025,4.6,1.954,7.8,1.954,7.8S2307.813,1631.178,2309.661,1638.6Z" transform="translate(-2172.635 -1562.061)" fill="#e4e3e3" style="mix-blend-mode:multiply;isolation:isolate"/><path d="M2121.486,1620.415l3.7-15.414s13.59-46.772-5.75-40.977c-12.129,3.633-22.344,32.7-27.175,56.391Z" transform="translate(-2092.266 -1543.872)" fill="#e8e8e8"/><path d="M2134.068,1641.552l3.7-15.414s.817-2.809,1.76-6.957c-4.567,5.318-8.708,16.249-11.6,19.675a34.506,34.506,0,0,1-2.542,2.7Z" transform="translate(-2104.848 -1565.009)" fill="#e4e3e3" style="mix-blend-mode:multiply;isolation:isolate"/><path d="M2184.119,1559.9s5.272,4.584,23.586,4.584,23.587-4.584,23.587-4.584v28.5h-47.174Z" transform="translate(-2127.151 -1542.493)" fill="#fff"/><path d="M2241.7,1613.42l5.257-56.391s-21.385-10.477-33.584-11.92c-10.063,24.518-24.79,34.634-24.79,34.634s-15.788-15.123-24.323-33.762c-11.342,2.723-28.174,11.048-28.174,11.048s3.892,26.212,7.668,56.391Z" transform="translate(-2108.907 -1536.877)" fill="#b2251e"/><g transform="translate(27.175 8.231)"><path d="M2139.256,1586.329c.893,6.364,2.025,14.562,3.253,23.76l10.357-12.07Z" transform="translate(-2137.288 -1560.763)" fill="#960610"/><path d="M2183.268,1559.628a96.984,96.984,0,0,1-7.384-13.113,87.6,87.6,0,0,0-9.186,2.872l14.6,12.532Z" transform="translate(-2147.71 -1545.642)" fill="#960610"/><path d="M2136.082,1563.873s.05.324.132.888l1.405-1.632C2136.645,1563.591,2136.082,1563.873,2136.082,1563.873Z" transform="translate(-2136.082 -1551.952)" fill="#960610"/><path d="M2203.363,1647.26l-15.2-13.049-11.2,13.049Z" transform="translate(-2151.607 -1578.949)" fill="#960610"/><path d="M2262.766,1546.242a44.423,44.423,0,0,0-5.734-1.134,102.9,102.9,0,0,1-5.983,12.225l1.263,1.091Z" transform="translate(-2179.745 -1545.108)" fill="#960610"/><path d="M2301.837,1649.332l.9-9.667-8.3,9.667Z" transform="translate(-2196.225 -1581.02)" fill="#960610"/><path d="M2301.275,1595.917l2.958-31.731-.477-.231-16.853,19.626Z" transform="translate(-2193.363 -1552.266)" fill="#960610"/><path d="M2161.2,1592.331l20.973,18.007,18.01-20.976-.762-.649c-.817.662-1.3,1-1.3,1a123.81,123.81,0,0,1-8.719-9.6l-10.19-8.754Z" transform="translate(-2145.622 -1555.075)" fill="#960610"/><path d="M2263.034,1584.577l-20.973-18-18,20.971,20.973,18.01Z" transform="translate(-2169.494 -1553.262)" fill="#960610"/><path d="M2268.111,1645.444l-18.659-16.016-13.752,16.016Z" transform="translate(-2173.916 -1577.132)" fill="#960610"/><path d="M2274.06,1577.118l16.853-19.627c-2.594-1.246-16.386-7.744-27.373-10.555l-10.454,12.182Z" transform="translate(-2180.519 -1545.802)" fill="#b30014"/><path d="M2200.429,1578.7a133.139,133.139,0,0,1-8.221-11.045l-1.969,2.291Z" transform="translate(-2156.651 -1553.672)" fill="#b30014"/><path d="M2241.594,1565.91l-1.263-1.091c-7.08,12.278-14.56,19.04-17.5,21.412l.762.649Z" transform="translate(-2169.027 -1552.594)" fill="#b30014"/><path d="M2280.551,1632.6l8.3-9.667,1.4-14.993-14.372-12.336-18,20.981,18.66,16.016Z" transform="translate(-2182.337 -1564.284)" fill="#b30014"/><path d="M2169.752,1563.678l-14.6-12.532c-7.226,2.651-14.4,5.978-17.451,7.432l-1.406,1.632c.269,1.811.928,6.348,1.836,12.757l13.61,11.69Z" transform="translate(-2136.163 -1547.401)" fill="#b30014"/><path d="M2220.249,1634.416,2234,1618.4l-20.973-18.01-18.01,20.976,15.2,13.049Z" transform="translate(-2158.465 -1566.104)" fill="#b30014"/><path d="M2148.6,1636.233h16.031l11.2-13.049-20.973-18.007-10.357,12.07c.726,5.509,1.486,11.357,2.248,17.4Z" transform="translate(-2139.28 -1567.922)" fill="#b30014"/></g><path d="M2153.67,1642.024c-.69-2.3-1.436-4.584-2.319-6.845-2.025-5.161-4.852-9.881-7.414-14.755.9,6.714,1.847,14.039,2.8,21.6Z" transform="translate(-2111.89 -1565.481)" fill="#e4e3e3" style="mix-blend-mode:multiply;isolation:isolate"/><path d="M2230.88,1546.284l10.393-14.448,4.243,8.231s-6.247,24.774-24.79,34.634C2230.353,1566.169,2230.88,1546.284,2230.88,1546.284Z" transform="translate(-2141.054 -1531.836)" fill="#e8e8e8"/><path d="M2241.273,1531.836l-.183.259c.264,27.055-18.786,41.208-20.364,42.607,18.542-9.86,24.79-34.634,24.79-34.634Z" transform="translate(-2141.054 -1531.836)" fill="#e4e3e3" style="mix-blend-mode:multiply;isolation:isolate"/><path d="M2196.707,1546.284l-12.453-14.448-2.745,9.1s5.785,23.9,24.323,33.762C2196.21,1566.169,2196.707,1546.284,2196.707,1546.284Z" transform="translate(-2126.16 -1531.836)" fill="#e8e8e8"/><path d="M2193.084,1559.792c-3.978-7.158-6.384-15.041-9.459-22.6-.1-.241-.167-.485-.239-.726l-1.877,6.232s5.785,23.9,24.323,33.762a21.8,21.8,0,0,1-5.141-7.32A35.289,35.289,0,0,1,2193.084,1559.792Z" transform="translate(-2126.16 -1533.595)" fill="#e4e3e3" style="mix-blend-mode:multiply;isolation:isolate"/></g><g transform="translate(2138.445 1407.244)"><path d="M2191.371,1464.64c-3.41,2.677-14.031,2.821-18.208,0s-9.1-13.737-4.74-17.389,22.947-3.557,25.982,0S2194.786,1461.958,2191.371,1464.64Z" transform="translate(-2166.723 -1444.549)" fill="none" stroke="#241412" stroke-miterlimit="10" stroke-width="3.67"/><path d="M2231.317,1464.64c3.415,2.677,14.037,2.821,18.208,0s9.1-13.737,4.745-17.389-22.953-3.557-25.987,0S2227.9,1461.958,2231.317,1464.64Z" transform="translate(-2189.598 -1444.549)" fill="none" stroke="#241412" stroke-miterlimit="10" stroke-width="3.67"/><line x2="8.348" transform="translate(29.012 6.052)" fill="none" stroke="#241412" stroke-miterlimit="10" stroke-width="3.67"/></g></g></g></g></svg>